<svg xmlns="http://www.w3.org/2000/svg" xmlns:xlink="http://www.w3.org/1999/xlink" viewBox="0 0 89.59 89.39"><defs><style>.cls-1,.cls-3,.cls-4,.cls-5,.cls-8{fill:none;}.cls-2{clip-path:url(#clip-path);}.cls-3{stroke:#000;}.cls-3,.cls-5,.cls-8{stroke-miterlimit:10;}.cls-3,.cls-4,.cls-5,.cls-8{stroke-width:0.25px;}.cls-4,.cls-5{stroke:#1d1d1e;}.cls-4{stroke-linejoin:round;}.cls-6{clip-path:url(#clip-path-2);}.cls-7{clip-path:url(#clip-path-3);}.cls-8{stroke:#3459f4;}.cls-9{clip-path:url(#clip-path-4);}.cls-10{clip-path:url(#clip-path-5);}.cls-11{clip-path:url(#clip-path-6);}.cls-12{clip-path:url(#clip-path-7);}</style><clipPath id="clip-path"><polygon class="cls-1" points="0.28 89.27 5.85 83.7 39.27 83.7 39.27 50.28 44.84 44.72 44.84 89.27 0.28 89.27"/></clipPath><clipPath id="clip-path-2"><path class="cls-1" d="M44.91,78.09A33.41,33.41,0,0,0,78.33,44.68H67.19A22.28,22.28,0,0,1,44.91,67Z"/></clipPath><clipPath id="clip-path-3"><path class="cls-1" d="M44.89,44.67V89.23H89.46L68.53,68.31a33.26,33.26,0,0,1-23.62,9.78V67a22.2,22.2,0,0,0,15.75-6.52Z"/></clipPath><clipPath id="clip-path-4"><path class="cls-1" d="M89.35,44.68V.13H44.8V11.26h0A33.41,33.41,0,0,1,78.23,44.68ZM44.82,33.54h0A11.14,11.14,0,0,1,56,44.68H44.8V33.54Z"/></clipPath><clipPath id="clip-path-5"><path class="cls-1" d="M44.78,11.26h0A33.42,33.42,0,0,1,78.22,44.68H67.08A22.29,22.29,0,0,0,44.8,22.4h0Z"/></clipPath><clipPath id="clip-path-6"><path class="cls-1" d="M11.38,44.69H.25V.13L21.17,21.06A33.29,33.29,0,0,0,11.38,44.69ZM29.05,28.93a22.22,22.22,0,0,0-6.53,15.76H44.8L29.08,29Z"/></clipPath><clipPath id="clip-path-7"><path class="cls-1" d="M44.68,11.27V.13H0l21.08,21A33.36,33.36,0,0,1,44.68,11.27Zm0,11.14V44.69L29,29A22.19,22.19,0,0,1,44.68,22.41Z"/></clipPath></defs><g id="Layer_2" data-name="Layer 2"><g id="Layer_1-2" data-name="Layer 1"><g class="cls-2"><line class="cls-3" x1="44.84" y1="44.72" x2="44.84" y2="89.27"/><line class="cls-3" x1="39.27" y1="44.72" x2="39.27" y2="89.27"/><line class="cls-3" x1="33.7" y1="44.72" x2="33.7" y2="89.27"/><line class="cls-3" x1="28.13" y1="44.72" x2="28.13" y2="89.27"/><line class="cls-3" x1="22.56" y1="44.72" x2="22.56" y2="89.27"/><line class="cls-3" x1="16.99" y1="44.72" x2="16.99" y2="89.27"/><line class="cls-3" x1="11.42" y1="44.72" x2="11.42" y2="89.27"/><line class="cls-3" x1="5.85" y1="44.72" x2="5.85" y2="89.27"/><line class="cls-3" x1="0.29" y1="44.72" x2="0.29" y2="89.27"/><line class="cls-3" x1="42.05" y1="44.72" x2="42.05" y2="89.27"/><line class="cls-3" x1="36.49" y1="44.72" x2="36.49" y2="89.27"/><line class="cls-3" x1="30.92" y1="44.72" x2="30.92" y2="89.27"/><line class="cls-3" x1="25.35" y1="44.72" x2="25.35" y2="89.27"/><line class="cls-3" x1="19.78" y1="44.72" x2="19.78" y2="89.27"/><line class="cls-3" x1="14.21" y1="44.72" x2="14.21" y2="89.27"/><line class="cls-3" x1="8.64" y1="44.72" x2="8.64" y2="89.27"/><line class="cls-3" x1="3.07" y1="44.72" x2="3.07" y2="89.27"/></g><line class="cls-3" x1="22.56" y1="74.11" x2="22.56" y2="78.42"/><rect class="cls-4" x="0.29" y="44.72" width="44.55" height="44.55"/><polyline class="cls-4" points="39.27 50.28 44.84 44.72 44.84 44.72 44.84 89.27 0.28 89.27 5.85 83.7"/><rect class="cls-3" x="5.85" y="50.29" width="5.57" height="5.57" transform="translate(61.71 44.43) rotate(90)"/><rect class="cls-3" x="5.85" y="55.85" width="5.57" height="5.57" transform="translate(67.28 50) rotate(90)"/><rect class="cls-3" x="5.85" y="61.42" width="5.57" height="5.57" transform="translate(72.85 55.57) rotate(90)"/><rect class="cls-3" x="5.85" y="66.99" width="5.57" height="5.57" transform="translate(78.42 61.14) rotate(90)"/><rect class="cls-3" x="5.85" y="72.56" width="5.57" height="5.57" transform="translate(83.99 66.71) rotate(90)"/><rect class="cls-3" x="5.85" y="78.13" width="5.57" height="5.57" transform="translate(89.55 72.28) rotate(90)"/><rect class="cls-3" x="11.42" y="50.29" width="5.57" height="5.57" transform="translate(67.28 38.86) rotate(90)"/><polyline class="cls-3" points="16.99 60.57 16.99 55.85 11.42 55.85 11.42 61.42"/><polyline class="cls-3" points="15.62 61.42 11.42 61.42 11.42 66.99"/><polyline class="cls-3" points="11.42 66.99 11.42 72.56 16.57 72.56"/><polyline class="cls-3" points="11.42 72.56 11.42 78.13 16.99 78.13"/><rect class="cls-3" x="11.42" y="78.13" width="5.57" height="5.57" transform="translate(95.12 66.71) rotate(90)"/><rect class="cls-3" x="16.99" y="50.29" width="5.57" height="5.57" transform="translate(72.85 33.29) rotate(90)"/><polyline class="cls-3" points="16.99 72.8 16.99 78.13 22.56 78.13"/><rect class="cls-3" x="16.99" y="78.13" width="5.57" height="5.57" transform="translate(100.69 61.14) rotate(90)"/><rect class="cls-3" x="22.56" y="50.29" width="5.57" height="5.57" transform="translate(78.42 27.72) rotate(90)"/><polyline class="cls-3" points="22.56 78.13 28.13 78.13 28.13 72.8"/><rect class="cls-3" x="22.56" y="78.13" width="5.57" height="5.57" transform="translate(106.26 55.57) rotate(90)"/><rect class="cls-3" x="28.13" y="50.29" width="5.57" height="5.57" transform="translate(83.99 22.15) rotate(90)"/><polyline class="cls-3" points="29.51 61.42 33.7 61.42 33.7 55.85 28.13 55.85 28.13 60.57"/><polyline class="cls-3" points="28.55 72.56 33.7 72.56 33.7 66.99"/><polyline class="cls-3" points="28.13 78.13 33.7 78.13 33.7 72.56"/><rect class="cls-3" x="28.13" y="78.13" width="5.57" height="5.57" transform="translate(111.83 50) rotate(90)"/><rect class="cls-3" x="33.7" y="50.29" width="5.57" height="5.57" transform="translate(89.55 16.58) rotate(90)"/><rect class="cls-3" x="33.7" y="55.85" width="5.57" height="5.57" transform="translate(95.12 22.15) rotate(90)"/><rect class="cls-3" x="33.7" y="61.42" width="5.57" height="5.57" transform="translate(100.69 27.72) rotate(90)"/><rect class="cls-3" x="33.7" y="66.99" width="5.57" height="5.57" transform="translate(106.26 33.29) rotate(90)"/><rect class="cls-3" x="33.7" y="72.56" width="5.57" height="5.57" transform="translate(111.83 38.86) rotate(90)"/><rect class="cls-3" x="33.7" y="78.13" width="5.57" height="5.57" transform="translate(117.4 44.43) rotate(90)"/><path class="cls-4" d="M11.42,66.68a12.07,12.07,0,0,0,22.28,0h0a12.07,12.07,0,0,0-22.28,0Z"/><path class="cls-4" d="M19.7,73.79a7.43,7.43,0,1,1,5.75,0"/><circle class="cls-4" cx="22.56" cy="66.94" r="3.43"/><circle class="cls-4" cx="22.56" cy="66.99" r="16.71"/><rect class="cls-5" x="5.85" y="50.29" width="33.42" height="33.42"/><g class="cls-6"><line class="cls-3" x1="89.55" y1="89.22" x2="44.99" y2="44.67"/><line class="cls-3" x1="89.55" y1="83.65" x2="50.56" y2="44.67"/><line class="cls-3" x1="89.55" y1="78.08" x2="56.13" y2="44.67"/><line class="cls-3" x1="89.55" y1="72.51" x2="61.7" y2="44.67"/><line class="cls-3" x1="67.27" y1="44.67" x2="89.55" y2="66.94"/><line class="cls-3" x1="89.55" y1="61.37" x2="72.84" y2="44.67"/><line class="cls-3" x1="78.41" y1="44.67" x2="89.55" y2="55.81"/><line class="cls-3" x1="89.55" y1="50.24" x2="83.98" y2="44.67"/><line class="cls-3" x1="44.99" y1="50.24" x2="83.98" y2="89.22"/><line class="cls-3" x1="44.99" y1="55.81" x2="78.41" y2="89.22"/><line class="cls-3" x1="44.99" y1="61.37" x2="72.84" y2="89.22"/><line class="cls-3" x1="67.27" y1="89.22" x2="44.99" y2="66.94"/><line class="cls-3" x1="44.99" y1="72.51" x2="61.7" y2="89.22"/><line class="cls-3" x1="56.13" y1="89.22" x2="44.99" y2="78.08"/><line class="cls-3" x1="44.99" y1="83.65" x2="50.56" y2="89.22"/><line class="cls-3" x1="86.76" y1="89.22" x2="44.99" y2="47.45"/><line class="cls-3" x1="89.55" y1="86.44" x2="47.78" y2="44.67"/><line class="cls-3" x1="89.55" y1="80.87" x2="53.35" y2="44.67"/><line class="cls-3" x1="89.55" y1="75.3" x2="58.91" y2="44.67"/><line class="cls-3" x1="64.48" y1="44.67" x2="89.55" y2="69.73"/><line class="cls-3" x1="89.55" y1="64.16" x2="70.05" y2="44.67"/><line class="cls-3" x1="75.62" y1="44.67" x2="89.55" y2="58.59"/><line class="cls-3" x1="89.55" y1="53.02" x2="81.19" y2="44.67"/><line class="cls-3" x1="89.55" y1="47.45" x2="86.76" y2="44.67"/><line class="cls-3" x1="44.99" y1="53.02" x2="81.19" y2="89.22"/><line class="cls-3" x1="44.99" y1="58.59" x2="75.62" y2="89.22"/><line class="cls-3" x1="44.99" y1="64.16" x2="70.05" y2="89.22"/><line class="cls-3" x1="64.48" y1="89.22" x2="44.99" y2="69.73"/><line class="cls-3" x1="44.99" y1="75.3" x2="58.91" y2="89.22"/><line class="cls-3" x1="53.35" y1="89.22" x2="44.99" y2="80.87"/><line class="cls-3" x1="44.99" y1="86.44" x2="47.78" y2="89.22"/></g><g class="cls-7"><path class="cls-8" d="M89.47,84.08c-2.79,0-2.79-1.39-5.57-1.39s-2.79,1.39-5.57,1.39-2.79-1.39-5.57-1.39S70,84.08,67.19,84.08s-2.78-1.39-5.57-1.39-2.78,1.39-5.57,1.39-2.78-1.39-5.57-1.39-2.78,1.39-5.57,1.39"/><path class="cls-8" d="M44.91,86.6c2.79,0,2.79-1.39,5.57-1.39s2.79,1.39,5.57,1.39,2.79-1.39,5.57-1.39,2.79,1.39,5.57,1.39,2.79-1.39,5.57-1.39,2.78,1.39,5.57,1.39,2.78-1.39,5.57-1.39,2.78,1.39,5.57,1.39"/><path class="cls-8" d="M44.91,89.12c2.79,0,2.79-1.39,5.57-1.39s2.79,1.39,5.57,1.39,2.79-1.39,5.57-1.39,2.79,1.39,5.57,1.39,2.79-1.39,5.57-1.39,2.78,1.39,5.57,1.39,2.78-1.39,5.57-1.39,2.78,1.39,5.57,1.39"/><path class="cls-8" d="M44.91,81.56c2.79,0,2.79-1.39,5.57-1.39s2.79,1.39,5.57,1.39,2.79-1.39,5.57-1.39,2.79,1.39,5.57,1.39,2.79-1.39,5.57-1.39,2.78,1.39,5.57,1.39,2.78-1.39,5.57-1.39,2.78,1.39,5.57,1.39"/><path class="cls-8" d="M89.47,79c-2.79,0-2.79-1.39-5.57-1.39S81.11,79,78.33,79s-2.79-1.39-5.57-1.39S70,79,67.19,79s-2.78-1.39-5.57-1.39S58.84,79,56.05,79s-2.78-1.39-5.57-1.39S47.7,79,44.91,79"/><path class="cls-8" d="M89.47,74c-2.79,0-2.79-1.39-5.57-1.39S81.11,74,78.33,74s-2.79-1.39-5.57-1.39S70,74,67.19,74s-2.78-1.39-5.57-1.39S58.84,74,56.05,74s-2.78-1.39-5.57-1.39S47.7,74,44.91,74"/><path class="cls-8" d="M44.91,76.52c2.79,0,2.79-1.39,5.57-1.39s2.79,1.39,5.57,1.39,2.79-1.39,5.57-1.39,2.79,1.39,5.57,1.39,2.79-1.39,5.57-1.39,2.78,1.39,5.57,1.39,2.78-1.39,5.57-1.39,2.78,1.39,5.57,1.39"/><path class="cls-8" d="M44.91,71.48c2.79,0,2.79-1.39,5.57-1.39s2.79,1.39,5.57,1.39,2.79-1.39,5.57-1.39,2.79,1.39,5.57,1.39,2.79-1.39,5.57-1.39,2.78,1.39,5.57,1.39,2.78-1.39,5.57-1.39,2.78,1.39,5.57,1.39"/><path class="cls-8" d="M89.47,69c-2.79,0-2.79-1.39-5.57-1.39S81.11,69,78.33,69s-2.79-1.39-5.57-1.39S70,69,67.19,69s-2.78-1.39-5.57-1.39S58.84,69,56.05,69s-2.78-1.39-5.57-1.39S47.7,69,44.91,69"/><path class="cls-8" d="M89.47,66.44c-2.79,0-2.79-1.39-5.57-1.39s-2.79,1.39-5.57,1.39-2.79-1.39-5.57-1.39S70,66.44,67.19,66.44s-2.78-1.39-5.57-1.39-2.78,1.39-5.57,1.39-2.78-1.39-5.57-1.39-2.78,1.39-5.57,1.39"/><path class="cls-8" d="M44.91,63.92c2.79,0,2.79-1.39,5.57-1.39s2.79,1.39,5.57,1.39,2.79-1.39,5.57-1.39,2.79,1.39,5.57,1.39,2.79-1.39,5.57-1.39,2.78,1.39,5.57,1.39,2.78-1.39,5.57-1.39,2.78,1.39,5.57,1.39"/><path class="cls-8" d="M89.47,61.4C86.68,61.4,86.68,60,83.9,60s-2.79,1.39-5.57,1.39S75.54,60,72.76,60,70,61.4,67.19,61.4,64.41,60,61.62,60s-2.78,1.39-5.57,1.39S53.27,60,50.48,60,47.7,61.4,44.91,61.4"/><path class="cls-8" d="M89.47,56.36c-2.79,0-2.79-1.4-5.57-1.4s-2.79,1.4-5.57,1.4S75.54,55,72.76,55s-2.78,1.4-5.57,1.4S64.41,55,61.62,55s-2.78,1.4-5.57,1.4S53.27,55,50.48,55s-2.78,1.4-5.57,1.4"/><path class="cls-8" d="M44.91,58.88c2.79,0,2.79-1.4,5.57-1.4s2.79,1.4,5.57,1.4,2.79-1.4,5.57-1.4,2.79,1.4,5.57,1.4,2.79-1.4,5.57-1.4,2.78,1.4,5.57,1.4,2.78-1.4,5.57-1.4,2.78,1.4,5.57,1.4"/><path class="cls-8" d="M44.91,53.84c2.79,0,2.79-1.4,5.57-1.4s2.79,1.4,5.57,1.4,2.79-1.4,5.57-1.4,2.79,1.4,5.57,1.4,2.79-1.4,5.57-1.4,2.78,1.4,5.57,1.4,2.78-1.4,5.57-1.4,2.78,1.4,5.57,1.4"/><path class="cls-8" d="M89.47,51.32c-2.79,0-2.79-1.4-5.57-1.4s-2.79,1.4-5.57,1.4-2.79-1.4-5.57-1.4-2.78,1.4-5.57,1.4-2.78-1.4-5.57-1.4-2.78,1.4-5.57,1.4-2.78-1.4-5.57-1.4-2.78,1.4-5.57,1.4"/><path class="cls-8" d="M89.47,48.8c-2.79,0-2.79-1.4-5.57-1.4s-2.79,1.4-5.57,1.4-2.79-1.4-5.57-1.4S70,48.8,67.19,48.8s-2.78-1.4-5.57-1.4-2.78,1.4-5.57,1.4-2.78-1.4-5.57-1.4-2.78,1.4-5.57,1.4"/><path class="cls-8" d="M89.47,46.27c-2.79,0-2.79-1.39-5.57-1.39s-2.79,1.39-5.57,1.39-2.79-1.39-5.57-1.39S70,46.27,67.19,46.27s-2.78-1.39-5.57-1.39-2.78,1.39-5.57,1.39-2.78-1.39-5.57-1.39-2.78,1.39-5.57,1.39"/></g><rect class="cls-5" x="44.91" y="44.68" width="44.55" height="44.55" transform="translate(0.23 134.15) rotate(-90)"/><polyline class="cls-4" points="60.6 60.36 44.91 44.68 89.47 44.68 89.47 89.23 89.47 89.23 68.54 68.31"/><path class="cls-5" d="M44.91,78.09A33.41,33.41,0,0,0,78.33,44.68H67.19A22.28,22.28,0,0,1,44.91,67Z"/><g class="cls-9"><line class="cls-3" x1="89.31" y1="0.25" x2="89.31" y2="44.81"/><line class="cls-3" x1="83.74" y1="0.25" x2="83.74" y2="44.81"/><line class="cls-3" x1="78.17" y1="0.25" x2="78.17" y2="44.81"/><line class="cls-3" x1="72.6" y1="0.25" x2="72.6" y2="44.81"/><line class="cls-3" x1="67.03" y1="0.25" x2="67.03" y2="44.81"/><line class="cls-3" x1="61.46" y1="0.25" x2="61.46" y2="44.81"/><line class="cls-3" x1="55.89" y1="0.25" x2="55.89" y2="44.81"/><line class="cls-3" x1="50.32" y1="0.25" x2="50.32" y2="44.81"/><line class="cls-3" x1="44.76" y1="0.25" x2="44.76" y2="44.81"/><line class="cls-3" x1="86.52" y1="0.25" x2="86.52" y2="44.81"/><line class="cls-3" x1="80.96" y1="0.25" x2="80.96" y2="44.81"/><line class="cls-3" x1="75.39" y1="0.25" x2="75.39" y2="44.81"/><line class="cls-3" x1="69.82" y1="0.25" x2="69.82" y2="44.81"/><line class="cls-3" x1="64.25" y1="0.25" x2="64.25" y2="44.81"/><line class="cls-3" x1="58.68" y1="0.25" x2="58.68" y2="44.81"/><line class="cls-3" x1="53.11" y1="0.25" x2="53.11" y2="44.81"/><line class="cls-3" x1="47.54" y1="0.25" x2="47.54" y2="44.81"/></g><line class="cls-3" x1="44.8" y1="44.68" x2="89.35" y2="44.68"/><path class="cls-5" d="M44.8,22.4A22.29,22.29,0,0,1,67.08,44.68H78.22A33.42,33.42,0,0,0,44.8,11.26"/><path class="cls-5" d="M44.8,22.4A22.29,22.29,0,0,1,67.08,44.68H55.94A11.14,11.14,0,0,0,44.8,33.54Z"/><rect class="cls-5" x="44.8" y="0.13" width="44.55" height="44.55"/><g class="cls-10"><line class="cls-3" x1="44.78" y1="0.08" x2="89.34" y2="44.64"/><line class="cls-3" x1="50.35" y1="0.08" x2="89.34" y2="39.07"/><line class="cls-3" x1="55.92" y1="0.08" x2="89.34" y2="33.5"/><line class="cls-3" x1="61.49" y1="0.08" x2="89.34" y2="27.93"/><line class="cls-3" x1="89.34" y1="22.36" x2="67.06" y2="0.08"/><line class="cls-3" x1="72.63" y1="0.08" x2="89.34" y2="16.79"/><line class="cls-3" x1="89.34" y1="11.22" x2="78.2" y2="0.08"/><line class="cls-3" x1="83.77" y1="0.08" x2="89.34" y2="5.65"/><line class="cls-3" x1="83.77" y1="44.64" x2="44.78" y2="5.65"/><line class="cls-3" x1="78.2" y1="44.64" x2="44.78" y2="11.22"/><line class="cls-3" x1="72.63" y1="44.64" x2="44.78" y2="16.79"/><line class="cls-3" x1="44.78" y1="22.36" x2="67.06" y2="44.64"/><line class="cls-3" x1="61.49" y1="44.64" x2="44.78" y2="27.93"/><line class="cls-3" x1="44.78" y1="33.5" x2="55.92" y2="44.64"/><line class="cls-3" x1="50.35" y1="44.64" x2="44.78" y2="39.07"/><line class="cls-3" x1="44.78" y1="2.87" x2="86.55" y2="44.64"/><line class="cls-3" x1="47.57" y1="0.08" x2="89.34" y2="41.85"/><line class="cls-3" x1="53.14" y1="0.08" x2="89.34" y2="36.28"/><line class="cls-3" x1="58.7" y1="0.08" x2="89.34" y2="30.71"/><line class="cls-3" x1="89.34" y1="25.15" x2="64.27" y2="0.08"/><line class="cls-3" x1="69.84" y1="0.08" x2="89.34" y2="19.58"/><line class="cls-3" x1="89.34" y1="14.01" x2="75.41" y2="0.08"/><line class="cls-3" x1="80.98" y1="0.08" x2="89.34" y2="8.44"/><line class="cls-3" x1="86.55" y1="0.08" x2="89.34" y2="2.87"/><line class="cls-3" x1="80.98" y1="44.64" x2="44.78" y2="8.44"/><line class="cls-3" x1="75.41" y1="44.64" x2="44.78" y2="14.01"/><line class="cls-3" x1="69.84" y1="44.64" x2="44.78" y2="19.58"/><line class="cls-3" x1="44.78" y1="25.15" x2="64.27" y2="44.64"/><line class="cls-3" x1="58.7" y1="44.64" x2="44.78" y2="30.71"/><line class="cls-3" x1="44.78" y1="36.28" x2="53.14" y2="44.64"/><line class="cls-3" x1="47.57" y1="44.64" x2="44.78" y2="41.85"/></g><line class="cls-5" x1="44.8" y1="11.26" x2="44.8" y2="22.4"/><g class="cls-11"><line class="cls-3" x1="44.8" y1="44.69" x2="0.25" y2="0.13"/><line class="cls-3" x1="39.23" y1="44.69" x2="0.25" y2="5.7"/><line class="cls-3" x1="33.66" y1="44.69" x2="0.25" y2="11.27"/><line class="cls-3" x1="28.09" y1="44.69" x2="0.25" y2="16.84"/><line class="cls-3" x1="0.25" y1="22.41" x2="22.52" y2="44.69"/><line class="cls-3" x1="16.95" y1="44.69" x2="0.25" y2="27.98"/><line class="cls-3" x1="0.25" y1="33.55" x2="11.38" y2="44.69"/><line class="cls-3" x1="5.81" y1="44.69" x2="0.25" y2="39.12"/><line class="cls-3" x1="5.81" y1="0.13" x2="44.8" y2="39.12"/><line class="cls-3" x1="11.38" y1="0.13" x2="44.8" y2="33.55"/><line class="cls-3" x1="16.95" y1="0.13" x2="44.8" y2="27.98"/><line class="cls-3" x1="44.8" y1="22.41" x2="22.52" y2="0.13"/><line class="cls-3" x1="28.09" y1="0.13" x2="44.8" y2="16.84"/><line class="cls-3" x1="44.8" y1="11.27" x2="33.66" y2="0.13"/><line class="cls-3" x1="39.23" y1="0.13" x2="44.8" y2="5.7"/><line class="cls-3" x1="44.8" y1="41.9" x2="3.03" y2="0.13"/><line class="cls-3" x1="42.01" y1="44.69" x2="0.25" y2="2.92"/><line class="cls-3" x1="36.45" y1="44.69" x2="0.25" y2="8.49"/><line class="cls-3" x1="30.88" y1="44.69" x2="0.25" y2="14.06"/><line class="cls-3" x1="0.25" y1="19.63" x2="25.31" y2="44.69"/><line class="cls-3" x1="19.74" y1="44.69" x2="0.25" y2="25.2"/><line class="cls-3" x1="0.25" y1="30.77" x2="14.17" y2="44.69"/><line class="cls-3" x1="8.6" y1="44.69" x2="0.25" y2="36.34"/><line class="cls-3" x1="3.03" y1="44.69" x2="0.25" y2="41.9"/><line class="cls-3" x1="8.6" y1="0.13" x2="44.8" y2="36.34"/><line class="cls-3" x1="14.17" y1="0.13" x2="44.8" y2="30.77"/><line class="cls-3" x1="19.74" y1="0.13" x2="44.8" y2="25.2"/><line class="cls-3" x1="44.8" y1="19.63" x2="25.31" y2="0.13"/><line class="cls-3" x1="30.88" y1="0.13" x2="44.8" y2="14.06"/><line class="cls-3" x1="44.8" y1="8.49" x2="36.45" y2="0.13"/><line class="cls-3" x1="42.01" y1="0.13" x2="44.8" y2="2.92"/></g><g class="cls-12"><line class="cls-3" x1="0.25" y1="0.12" x2="44.8" y2="0.12"/><line class="cls-3" x1="0.25" y1="5.69" x2="44.8" y2="5.69"/><line class="cls-3" x1="0.25" y1="11.26" x2="44.8" y2="11.26"/><line class="cls-3" x1="0.25" y1="16.83" x2="44.8" y2="16.83"/><line class="cls-3" x1="0.25" y1="22.39" x2="44.8" y2="22.39"/><line class="cls-3" x1="0.25" y1="27.96" x2="44.8" y2="27.96"/><line class="cls-3" x1="0.25" y1="33.53" x2="44.8" y2="33.53"/><line class="cls-3" x1="0.25" y1="39.1" x2="44.8" y2="39.1"/><line class="cls-3" x1="0.25" y1="44.67" x2="44.8" y2="44.67"/><line class="cls-3" x1="44.8" y1="44.67" x2="44.8" y2="0.12"/><line class="cls-3" x1="39.23" y1="0.12" x2="39.23" y2="44.67"/><line class="cls-3" x1="33.66" y1="0.12" x2="33.66" y2="44.67"/><line class="cls-3" x1="28.09" y1="0.12" x2="28.09" y2="44.67"/><line class="cls-3" x1="22.52" y1="0.12" x2="22.52" y2="44.67"/><line class="cls-3" x1="16.95" y1="0.12" x2="16.95" y2="44.67"/><line class="cls-3" x1="11.38" y1="0.12" x2="11.38" y2="44.67"/><line class="cls-3" x1="5.81" y1="0.12" x2="5.81" y2="44.67"/><line class="cls-3" x1="0.25" y1="44.67" x2="0.25" y2="0.12"/></g><polyline class="cls-5" points="44.8 11.27 44.8 0.13 0.25 0.13 0.25 44.69 44.8 44.69 44.8 22.41"/><polyline class="cls-4" points="21.17 21.06 0.25 0.13 0.25 44.69 44.8 44.69 44.8 44.69 29.08 28.96"/><path class="cls-5" d="M44.8,22.41A22.28,22.28,0,0,0,22.52,44.69H11.38A33.42,33.42,0,0,1,44.8,11.27"/><path class="cls-5" d="M44.8,11.27A33.42,33.42,0,0,0,11.38,44.69H22.52A22.28,22.28,0,0,1,44.8,22.41Z"/></g></g></svg>