<svg xmlns="http://www.w3.org/2000/svg" xmlns:xlink="http://www.w3.org/1999/xlink" viewBox="0 0 89.38 44.94"><defs><style>.cls-1,.cls-3,.cls-4,.cls-5{fill:none;}.cls-2{clip-path:url(#clip-path);}.cls-3{stroke:#3459f4;}.cls-3,.cls-4{stroke-miterlimit:10;}.cls-3,.cls-4,.cls-5{stroke-width:0.25px;}.cls-4,.cls-5{stroke:#000;}.cls-5{stroke-linecap:round;stroke-linejoin:round;}.cls-6{clip-path:url(#clip-path-2);}.cls-7{clip-path:url(#clip-path-3);}.cls-8{clip-path:url(#clip-path-4);}</style><clipPath id="clip-path"><path class="cls-1" d="M22.4,13.49,33.54,22.4,22.4,31.31,11.26,22.4Zm0,31.19L11.26,35.77.13,44.68H44.68L33.54,35.77ZM44.68.12H22.4L33.54,9ZM22.4.12H.13L11.26,9ZM44.68,31.31V13.49L33.54,22.4Zm-44.55,0L11.26,22.4.13,13.49Z"/></clipPath><clipPath id="clip-path-2"><path class="cls-1" d="M11.26,22.4V9L22.4.13V13.49Zm33.42-8.91V.13L33.54,9V22.4ZM22.4,31.31V44.68l11.14-8.91V22.4Zm-22.27,0V44.68l11.13-8.91V22.4Z"/></clipPath><clipPath id="clip-path-3"><path class="cls-1" d="M67,13.49,78.11,22.4,67,31.31,55.84,22.4Zm0,31.19L55.84,35.77,44.7,44.68H89.25L78.11,35.77ZM89.25.12H67L78.11,9ZM67,.12H44.7L55.84,9ZM89.25,31.31V13.49L78.11,22.4Zm-44.55,0L55.84,22.4,44.7,13.49Z"/></clipPath><clipPath id="clip-path-4"><path class="cls-1" d="M55.84,22.4V9L67,.13V13.49Zm33.41-8.91V.13L78.11,9V22.4ZM67,31.31V44.68l11.13-8.91V22.4Zm-22.28,0V44.68l11.14-8.91V22.4Z"/></clipPath></defs><g id="Layer_2" data-name="Layer 2"><g id="Layer_1-2" data-name="Layer 1"><g class="cls-2"><path class="cls-3" d="M44.68,39.34C41.9,39.34,41.9,38,39.11,38s-2.78,1.39-5.57,1.39S30.76,38,28,38s-2.78,1.39-5.57,1.39S19.62,38,16.83,38s-2.78,1.39-5.57,1.39S8.48,38,5.7,38,2.91,39.34.13,39.34"/><path class="cls-3" d="M.13,41.86c2.78,0,2.78-1.39,5.57-1.39s2.78,1.39,5.56,1.39,2.79-1.39,5.57-1.39,2.79,1.39,5.57,1.39,2.79-1.39,5.57-1.39,2.79,1.39,5.57,1.39,2.79-1.39,5.57-1.39,2.79,1.39,5.57,1.39"/><path class="cls-3" d="M.13,44.38C2.91,44.38,2.91,43,5.7,43s2.78,1.39,5.56,1.39S14.05,43,16.83,43s2.79,1.39,5.57,1.39S25.19,43,28,43s2.79,1.39,5.57,1.39S36.33,43,39.11,43s2.79,1.39,5.57,1.39"/><path class="cls-3" d="M.13,36.82c2.78,0,2.78-1.39,5.57-1.39s2.78,1.39,5.56,1.39,2.79-1.39,5.57-1.39,2.79,1.39,5.57,1.39,2.79-1.39,5.57-1.39,2.79,1.39,5.57,1.39,2.79-1.39,5.57-1.39,2.79,1.39,5.57,1.39"/><path class="cls-3" d="M44.68,34.3c-2.78,0-2.78-1.39-5.57-1.39s-2.78,1.39-5.57,1.39S30.76,32.91,28,32.91,25.19,34.3,22.4,34.3s-2.78-1.39-5.57-1.39-2.78,1.39-5.57,1.39S8.48,32.91,5.7,32.91,2.91,34.3.13,34.3"/><path class="cls-3" d="M44.68,29.26c-2.78,0-2.78-1.39-5.57-1.39s-2.78,1.39-5.57,1.39S30.76,27.87,28,27.87s-2.78,1.39-5.57,1.39-2.78-1.39-5.57-1.39-2.78,1.39-5.57,1.39S8.48,27.87,5.7,27.87,2.91,29.26.13,29.26"/><path class="cls-3" d="M.13,31.78c2.78,0,2.78-1.39,5.57-1.39s2.78,1.39,5.56,1.39,2.79-1.39,5.57-1.39,2.79,1.39,5.57,1.39,2.79-1.39,5.57-1.39,2.79,1.39,5.57,1.39,2.79-1.39,5.57-1.39,2.79,1.39,5.57,1.39"/><path class="cls-3" d="M.13,26.74c2.78,0,2.78-1.39,5.57-1.39s2.78,1.39,5.56,1.39,2.79-1.39,5.57-1.39,2.79,1.39,5.57,1.39,2.79-1.39,5.57-1.39,2.79,1.39,5.57,1.39,2.79-1.39,5.57-1.39,2.79,1.39,5.57,1.39"/><path class="cls-3" d="M44.68,24.22c-2.78,0-2.78-1.39-5.57-1.39s-2.78,1.39-5.57,1.39S30.76,22.83,28,22.83s-2.78,1.39-5.57,1.39-2.78-1.39-5.57-1.39-2.78,1.39-5.57,1.39S8.48,22.83,5.7,22.83,2.91,24.22.13,24.22"/><path class="cls-3" d="M44.68,21.7c-2.78,0-2.78-1.39-5.57-1.39s-2.78,1.39-5.57,1.39S30.76,20.31,28,20.31,25.19,21.7,22.4,21.7s-2.78-1.39-5.57-1.39-2.78,1.39-5.57,1.39S8.48,20.31,5.7,20.31,2.91,21.7.13,21.7"/><path class="cls-3" d="M.13,19.18c2.78,0,2.78-1.4,5.57-1.4s2.78,1.4,5.56,1.4,2.79-1.4,5.57-1.4,2.79,1.4,5.57,1.4,2.79-1.4,5.57-1.4,2.79,1.4,5.57,1.4,2.79-1.4,5.57-1.4,2.79,1.4,5.57,1.4"/><path class="cls-3" d="M44.68,16.66c-2.78,0-2.78-1.4-5.57-1.4s-2.78,1.4-5.57,1.4-2.78-1.4-5.57-1.4-2.78,1.4-5.57,1.4-2.78-1.4-5.57-1.4-2.78,1.4-5.57,1.4-2.78-1.4-5.56-1.4-2.79,1.4-5.57,1.4"/><path class="cls-3" d="M44.68,11.62c-2.78,0-2.78-1.4-5.57-1.4s-2.78,1.4-5.57,1.4-2.78-1.4-5.57-1.4-2.78,1.4-5.57,1.4-2.78-1.4-5.57-1.4-2.78,1.4-5.57,1.4-2.78-1.4-5.56-1.4-2.79,1.4-5.57,1.4"/><path class="cls-3" d="M.13,14.14c2.78,0,2.78-1.4,5.57-1.4s2.78,1.4,5.56,1.4,2.79-1.4,5.57-1.4,2.79,1.4,5.57,1.4,2.79-1.4,5.57-1.4,2.79,1.4,5.57,1.4,2.79-1.4,5.57-1.4,2.79,1.4,5.57,1.4"/><path class="cls-3" d="M.13,9.1c2.78,0,2.78-1.4,5.57-1.4s2.78,1.4,5.56,1.4,2.79-1.4,5.57-1.4,2.79,1.4,5.57,1.4S25.19,7.7,28,7.7s2.79,1.4,5.57,1.4,2.79-1.4,5.57-1.4,2.79,1.4,5.57,1.4"/><path class="cls-3" d="M44.68,6.57c-2.78,0-2.78-1.39-5.57-1.39s-2.78,1.39-5.57,1.39S30.76,5.18,28,5.18,25.19,6.57,22.4,6.57s-2.78-1.39-5.57-1.39-2.78,1.39-5.57,1.39S8.48,5.18,5.7,5.18,2.91,6.57.13,6.57"/><path class="cls-3" d="M44.68,4.05c-2.78,0-2.78-1.39-5.57-1.39s-2.78,1.39-5.57,1.39S30.76,2.66,28,2.66,25.19,4.05,22.4,4.05s-2.78-1.39-5.57-1.39-2.78,1.39-5.57,1.39S8.48,2.66,5.7,2.66,2.91,4.05.13,4.05"/><path class="cls-3" d="M44.68,1.53C41.9,1.53,41.9.14,39.11.14s-2.78,1.39-5.57,1.39S30.76.14,28,.14,25.19,1.53,22.4,1.53,19.62.14,16.83.14s-2.78,1.39-5.57,1.39S8.48.14,5.7.14,2.91,1.53.13,1.53"/></g><rect class="cls-4" x="0.13" y="0.13" width="44.55" height="44.55" transform="translate(44.81 44.8) rotate(180)"/><polygon class="cls-5" points="33.54 22.4 33.54 35.77 44.68 44.68 44.68 31.31 33.54 22.4"/><polygon class="cls-4" points="11.27 22.4 11.27 35.77 22.4 44.68 22.4 31.31 11.27 22.4"/><polygon class="cls-5" points="11.27 22.4 11.27 9.04 0.13 0.13 0.13 13.49 11.27 22.4"/><polygon class="cls-5" points="33.54 22.4 33.54 9.04 22.4 0.13 22.4 13.49 33.54 22.4"/><polygon class="cls-5" points="33.54 22.4 44.68 13.49 44.68 31.31 33.54 22.4"/><polygon class="cls-5" points="22.4 13.49 11.27 22.4 22.4 31.31 33.54 22.4 22.4 13.49"/><polygon class="cls-4" points="0.22 13.49 0.13 31.31 11.27 22.4 0.22 13.49"/><g class="cls-6"><line class="cls-4" x1="44.68" y1="44.68" x2="0.13" y2="0.13"/><line class="cls-4" x1="39.11" y1="44.68" x2="0.13" y2="5.69"/><line class="cls-4" x1="33.54" y1="44.68" x2="0.13" y2="11.26"/><line class="cls-4" x1="27.97" y1="44.68" x2="0.13" y2="16.83"/><line class="cls-4" x1="0.13" y1="22.4" x2="22.4" y2="44.68"/><line class="cls-4" x1="16.83" y1="44.68" x2="0.13" y2="27.97"/><line class="cls-4" x1="0.13" y1="33.54" x2="11.26" y2="44.68"/><line class="cls-4" x1="5.7" y1="44.68" x2="0.13" y2="39.11"/><line class="cls-4" x1="5.7" y1="0.13" x2="44.68" y2="39.11"/><line class="cls-4" x1="11.26" y1="0.13" x2="44.68" y2="33.54"/><line class="cls-4" x1="16.83" y1="0.13" x2="44.68" y2="27.97"/><line class="cls-4" x1="44.68" y1="22.4" x2="22.4" y2="0.13"/><line class="cls-4" x1="27.97" y1="0.13" x2="44.68" y2="16.83"/><line class="cls-4" x1="44.68" y1="11.26" x2="33.54" y2="0.13"/><line class="cls-4" x1="39.11" y1="0.13" x2="44.68" y2="5.69"/><line class="cls-4" x1="44.68" y1="41.89" x2="2.91" y2="0.13"/><line class="cls-4" x1="41.9" y1="44.68" x2="0.13" y2="2.91"/><line class="cls-4" x1="36.33" y1="44.68" x2="0.13" y2="8.48"/><line class="cls-4" x1="30.76" y1="44.68" x2="0.13" y2="14.05"/><line class="cls-4" x1="0.13" y1="19.62" x2="25.19" y2="44.68"/><line class="cls-4" x1="19.62" y1="44.68" x2="0.13" y2="25.19"/><line class="cls-4" x1="0.13" y1="30.76" x2="14.05" y2="44.68"/><line class="cls-4" x1="8.48" y1="44.68" x2="0.13" y2="36.33"/><line class="cls-4" x1="2.91" y1="44.68" x2="0.13" y2="41.89"/><line class="cls-4" x1="8.48" y1="0.13" x2="44.68" y2="36.33"/><line class="cls-4" x1="14.05" y1="0.13" x2="44.68" y2="30.76"/><line class="cls-4" x1="19.62" y1="0.13" x2="44.68" y2="25.19"/><line class="cls-4" x1="44.68" y1="19.62" x2="25.19" y2="0.13"/><line class="cls-4" x1="30.76" y1="0.13" x2="44.68" y2="14.05"/><line class="cls-4" x1="44.68" y1="8.48" x2="36.33" y2="0.13"/><line class="cls-4" x1="41.9" y1="0.13" x2="44.68" y2="2.91"/></g><path class="cls-5" d="M11.26,22.4V9L22.4.13V13.49Zm33.42-8.91V.13L33.54,9V22.4ZM22.4,31.31V44.68l11.14-8.91V22.4Zm-22.27,0V44.68l11.13-8.91V22.4Z"/><g class="cls-7"><path class="cls-3" d="M89.25,39.34c-2.78,0-2.78-1.39-5.57-1.39s-2.78,1.39-5.57,1.39S75.33,38,72.55,38,69.76,39.34,67,39.34,64.19,38,61.41,38s-2.79,1.39-5.57,1.39S53.05,38,50.27,38s-2.79,1.39-5.57,1.39"/><path class="cls-3" d="M44.7,41.86c2.78,0,2.78-1.39,5.57-1.39s2.78,1.39,5.57,1.39,2.78-1.39,5.57-1.39,2.78,1.39,5.57,1.39,2.78-1.39,5.57-1.39,2.78,1.39,5.56,1.39,2.79-1.39,5.57-1.39,2.79,1.39,5.57,1.39"/><path class="cls-3" d="M44.7,44.38c2.78,0,2.78-1.39,5.57-1.39s2.78,1.39,5.57,1.39S58.62,43,61.41,43s2.78,1.39,5.57,1.39S69.76,43,72.55,43s2.78,1.39,5.56,1.39S80.9,43,83.68,43s2.79,1.39,5.57,1.39"/><path class="cls-3" d="M44.7,36.82c2.78,0,2.78-1.39,5.57-1.39s2.78,1.39,5.57,1.39,2.78-1.39,5.57-1.39,2.78,1.39,5.57,1.39,2.78-1.39,5.57-1.39,2.78,1.39,5.56,1.39,2.79-1.39,5.57-1.39,2.79,1.39,5.57,1.39"/><path class="cls-3" d="M89.25,34.3c-2.78,0-2.78-1.39-5.57-1.39S80.9,34.3,78.11,34.3s-2.78-1.39-5.56-1.39S69.76,34.3,67,34.3s-2.79-1.39-5.57-1.39-2.79,1.39-5.57,1.39-2.79-1.39-5.57-1.39S47.48,34.3,44.7,34.3"/><path class="cls-3" d="M89.25,29.26c-2.78,0-2.78-1.39-5.57-1.39s-2.78,1.39-5.57,1.39-2.78-1.39-5.56-1.39S69.76,29.26,67,29.26s-2.79-1.39-5.57-1.39-2.79,1.39-5.57,1.39-2.79-1.39-5.57-1.39-2.79,1.39-5.57,1.39"/><path class="cls-3" d="M44.7,31.78c2.78,0,2.78-1.39,5.57-1.39s2.78,1.39,5.57,1.39,2.78-1.39,5.57-1.39,2.78,1.39,5.57,1.39,2.78-1.39,5.57-1.39,2.78,1.39,5.56,1.39,2.79-1.39,5.57-1.39,2.79,1.39,5.57,1.39"/><path class="cls-3" d="M44.7,26.74c2.78,0,2.78-1.39,5.57-1.39s2.78,1.39,5.57,1.39,2.78-1.39,5.57-1.39,2.78,1.39,5.57,1.39,2.78-1.39,5.57-1.39,2.78,1.39,5.56,1.39,2.79-1.39,5.57-1.39,2.79,1.39,5.57,1.39"/><path class="cls-3" d="M89.25,24.22c-2.78,0-2.78-1.39-5.57-1.39s-2.78,1.39-5.57,1.39-2.78-1.39-5.56-1.39S69.76,24.22,67,24.22s-2.79-1.39-5.57-1.39-2.79,1.39-5.57,1.39-2.79-1.39-5.57-1.39-2.79,1.39-5.57,1.39"/><path class="cls-3" d="M89.25,21.7c-2.78,0-2.78-1.39-5.57-1.39S80.9,21.7,78.11,21.7s-2.78-1.39-5.56-1.39S69.76,21.7,67,21.7s-2.79-1.39-5.57-1.39-2.79,1.39-5.57,1.39-2.79-1.39-5.57-1.39S47.48,21.7,44.7,21.7"/><path class="cls-3" d="M44.7,19.18c2.78,0,2.78-1.4,5.57-1.4s2.78,1.4,5.57,1.4,2.78-1.4,5.57-1.4,2.78,1.4,5.57,1.4,2.78-1.4,5.57-1.4,2.78,1.4,5.56,1.4,2.79-1.4,5.57-1.4,2.79,1.4,5.57,1.4"/><path class="cls-3" d="M89.25,16.66c-2.78,0-2.78-1.4-5.57-1.4s-2.78,1.4-5.57,1.4-2.78-1.4-5.56-1.4-2.79,1.4-5.57,1.4-2.79-1.4-5.57-1.4-2.79,1.4-5.57,1.4-2.79-1.4-5.57-1.4-2.79,1.4-5.57,1.4"/><path class="cls-3" d="M89.25,11.62c-2.78,0-2.78-1.4-5.57-1.4s-2.78,1.4-5.57,1.4-2.78-1.4-5.56-1.4-2.79,1.4-5.57,1.4-2.79-1.4-5.57-1.4-2.79,1.4-5.57,1.4-2.79-1.4-5.57-1.4-2.79,1.4-5.57,1.4"/><path class="cls-3" d="M44.7,14.14c2.78,0,2.78-1.4,5.57-1.4s2.78,1.4,5.57,1.4,2.78-1.4,5.57-1.4,2.78,1.4,5.57,1.4,2.78-1.4,5.57-1.4,2.78,1.4,5.56,1.4,2.79-1.4,5.57-1.4,2.79,1.4,5.57,1.4"/><path class="cls-3" d="M44.7,9.1c2.78,0,2.78-1.4,5.57-1.4s2.78,1.4,5.57,1.4,2.78-1.4,5.57-1.4S64.19,9.1,67,9.1s2.78-1.4,5.57-1.4,2.78,1.4,5.56,1.4,2.79-1.4,5.57-1.4,2.79,1.4,5.57,1.4"/><path class="cls-3" d="M89.25,6.57c-2.78,0-2.78-1.39-5.57-1.39S80.9,6.57,78.11,6.57s-2.78-1.39-5.56-1.39S69.76,6.57,67,6.57s-2.79-1.39-5.57-1.39-2.79,1.39-5.57,1.39-2.79-1.39-5.57-1.39S47.48,6.57,44.7,6.57"/><path class="cls-3" d="M89.25,4.05c-2.78,0-2.78-1.39-5.57-1.39S80.9,4.05,78.11,4.05s-2.78-1.39-5.56-1.39S69.76,4.05,67,4.05s-2.79-1.39-5.57-1.39-2.79,1.39-5.57,1.39-2.79-1.39-5.57-1.39S47.48,4.05,44.7,4.05"/><path class="cls-3" d="M89.25,1.53c-2.78,0-2.78-1.39-5.57-1.39S80.9,1.53,78.11,1.53,75.33.14,72.55.14,69.76,1.53,67,1.53,64.19.14,61.41.14s-2.79,1.39-5.57,1.39S53.05.14,50.27.14,47.48,1.53,44.7,1.53"/></g><rect class="cls-4" x="44.7" y="0.13" width="44.55" height="44.55" transform="translate(133.95 44.8) rotate(180)"/><polygon class="cls-5" points="78.11 22.4 78.11 35.77 89.25 44.68 89.25 31.31 78.11 22.4"/><polygon class="cls-4" points="55.84 22.4 55.84 35.77 66.98 44.68 66.98 31.31 55.84 22.4"/><polygon class="cls-5" points="55.84 22.4 55.84 9.04 44.7 0.13 44.7 13.49 55.84 22.4"/><polygon class="cls-5" points="78.11 22.4 78.11 9.04 66.98 0.13 66.98 13.49 78.11 22.4"/><polygon class="cls-5" points="78.11 22.4 89.25 13.49 89.25 31.31 78.11 22.4"/><polygon class="cls-5" points="66.98 13.49 55.84 22.4 66.98 31.31 78.11 22.4 66.98 13.49"/><polygon class="cls-4" points="44.79 13.49 44.7 31.31 55.84 22.4 44.79 13.49"/><g class="cls-8"><line class="cls-4" x1="89.25" y1="44.68" x2="44.7" y2="0.13"/><line class="cls-4" x1="83.68" y1="44.68" x2="44.7" y2="5.69"/><line class="cls-4" x1="78.11" y1="44.68" x2="44.7" y2="11.26"/><line class="cls-4" x1="72.55" y1="44.68" x2="44.7" y2="16.83"/><line class="cls-4" x1="44.7" y1="22.4" x2="66.98" y2="44.68"/><line class="cls-4" x1="61.41" y1="44.68" x2="44.7" y2="27.97"/><line class="cls-4" x1="44.7" y1="33.54" x2="55.84" y2="44.68"/><line class="cls-4" x1="50.27" y1="44.68" x2="44.7" y2="39.11"/><line class="cls-4" x1="50.27" y1="0.13" x2="89.25" y2="39.11"/><line class="cls-4" x1="55.84" y1="0.13" x2="89.25" y2="33.54"/><line class="cls-4" x1="61.41" y1="0.13" x2="89.25" y2="27.97"/><line class="cls-4" x1="89.25" y1="22.4" x2="66.98" y2="0.13"/><line class="cls-4" x1="72.55" y1="0.13" x2="89.25" y2="16.83"/><line class="cls-4" x1="89.25" y1="11.26" x2="78.11" y2="0.13"/><line class="cls-4" x1="83.68" y1="0.13" x2="89.25" y2="5.69"/><line class="cls-4" x1="89.25" y1="41.89" x2="47.48" y2="0.13"/><line class="cls-4" x1="86.47" y1="44.68" x2="44.7" y2="2.91"/><line class="cls-4" x1="80.9" y1="44.68" x2="44.7" y2="8.48"/><line class="cls-4" x1="75.33" y1="44.68" x2="44.7" y2="14.05"/><line class="cls-4" x1="44.7" y1="19.62" x2="69.76" y2="44.68"/><line class="cls-4" x1="64.19" y1="44.68" x2="44.7" y2="25.19"/><line class="cls-4" x1="44.7" y1="30.76" x2="58.62" y2="44.68"/><line class="cls-4" x1="53.05" y1="44.68" x2="44.7" y2="36.33"/><line class="cls-4" x1="47.48" y1="44.68" x2="44.7" y2="41.89"/><line class="cls-4" x1="53.05" y1="0.13" x2="89.25" y2="36.33"/><line class="cls-4" x1="58.62" y1="0.13" x2="89.25" y2="30.76"/><line class="cls-4" x1="64.19" y1="0.13" x2="89.25" y2="25.19"/><line class="cls-4" x1="89.25" y1="19.62" x2="69.76" y2="0.13"/><line class="cls-4" x1="75.33" y1="0.13" x2="89.25" y2="14.05"/><line class="cls-4" x1="89.25" y1="8.48" x2="80.9" y2="0.13"/><line class="cls-4" x1="86.47" y1="0.13" x2="89.25" y2="2.91"/></g><path class="cls-5" d="M55.84,22.4V9L67,.13V13.49Zm33.41-8.91V.13L78.11,9V22.4ZM67,31.31V44.68l11.13-8.91V22.4Zm-22.28,0V44.68l11.14-8.91V22.4Z"/></g></g></svg>