<svg xmlns="http://www.w3.org/2000/svg" xmlns:xlink="http://www.w3.org/1999/xlink" viewBox="0 0 89.36 44.8"><defs><style>.cls-1,.cls-3,.cls-4{fill:none;}.cls-2{clip-path:url(#clip-path);}.cls-3{stroke:#000;stroke-miterlimit:10;}.cls-3,.cls-4{stroke-width:0.25px;}.cls-4{stroke:#1d1d1e;stroke-linejoin:round;}.cls-5{clip-path:url(#clip-path-2);}</style><clipPath id="clip-path"><path class="cls-1" d="M5.76,21A16.7,16.7,0,0,1,39,21H50.32a16.69,16.69,0,0,1,33.27,0h2.23v2.78H83.59a16.69,16.69,0,0,1-33.27,0H39a16.7,16.7,0,0,1-33.28,0H2.87V21ZM57.11,32.25a13.92,13.92,0,1,0,0-19.69A13.94,13.94,0,0,0,57.11,32.25Zm-44.55,0a13.92,13.92,0,1,0,0-19.69A13.94,13.94,0,0,0,12.56,32.25Z"/></clipPath><clipPath id="clip-path-2"><path class="cls-1" d="M44.68,21V.12H.13L10.6,10.6A16.68,16.68,0,0,1,39,21ZM76.8,32.25a13.94,13.94,0,0,1-19.69,0h0L76.8,12.56A13.92,13.92,0,0,1,76.8,32.25ZM12.56,12.56A13.92,13.92,0,0,1,32.25,32.25L12.56,12.56ZM67,39.11A16.7,16.7,0,0,0,83.59,23.79h2.23V21H83.59A16.64,16.64,0,0,0,78.75,10.6L89.23.12V44.68H44.68L55.16,34.2A16.59,16.59,0,0,0,67,39.11ZM39,23.79h5.64V44.68L34.2,34.2A16.69,16.69,0,0,0,39,23.79Z"/></clipPath></defs><g id="Layer_2" data-name="Layer 2"><g id="Layer_1-2" data-name="Layer 1"><g class="cls-2"><line class="cls-3" x1="44.68" y1="44.68" x2="44.68" y2="0.12"/><line class="cls-3" x1="50.25" y1="44.68" x2="50.25" y2="0.12"/><line class="cls-3" x1="55.82" y1="44.68" x2="55.82" y2="0.12"/><line class="cls-3" x1="61.39" y1="44.68" x2="61.39" y2="0.12"/><line class="cls-3" x1="66.96" y1="44.68" x2="66.96" y2="0.12"/><line class="cls-3" x1="72.53" y1="44.68" x2="72.53" y2="0.12"/><line class="cls-3" x1="78.09" y1="44.68" x2="78.09" y2="0.12"/><line class="cls-3" x1="83.66" y1="44.68" x2="83.66" y2="0.12"/><line class="cls-3" x1="89.23" y1="44.68" x2="89.23" y2="0.12"/><line class="cls-3" x1="47.46" y1="44.68" x2="47.46" y2="0.12"/><line class="cls-3" x1="53.03" y1="44.68" x2="53.03" y2="0.12"/><line class="cls-3" x1="58.6" y1="44.68" x2="58.6" y2="0.12"/><line class="cls-3" x1="64.17" y1="44.68" x2="64.17" y2="0.12"/><line class="cls-3" x1="69.74" y1="44.68" x2="69.74" y2="0.12"/><line class="cls-3" x1="75.31" y1="44.68" x2="75.31" y2="0.12"/><line class="cls-3" x1="80.88" y1="44.68" x2="80.88" y2="0.12"/><line class="cls-3" x1="86.45" y1="44.68" x2="86.45" y2="0.12"/><line class="cls-3" x1="0.12" y1="44.68" x2="0.12" y2="0.12"/><line class="cls-3" x1="5.69" y1="44.68" x2="5.69" y2="0.12"/><line class="cls-3" x1="11.26" y1="44.68" x2="11.26" y2="0.12"/><line class="cls-3" x1="16.83" y1="44.68" x2="16.83" y2="0.12"/><line class="cls-3" x1="22.4" y1="44.68" x2="22.4" y2="0.12"/><line class="cls-3" x1="27.97" y1="44.68" x2="27.97" y2="0.12"/><line class="cls-3" x1="33.54" y1="44.68" x2="33.54" y2="0.12"/><line class="cls-3" x1="39.11" y1="44.68" x2="39.11" y2="0.12"/><line class="cls-3" x1="44.68" y1="44.68" x2="44.68" y2="0.12"/><line class="cls-3" x1="2.91" y1="44.68" x2="2.91" y2="0.12"/><line class="cls-3" x1="8.48" y1="44.68" x2="8.48" y2="0.12"/><line class="cls-3" x1="14.05" y1="44.68" x2="14.05" y2="0.12"/><line class="cls-3" x1="19.62" y1="44.68" x2="19.62" y2="0.12"/><line class="cls-3" x1="25.19" y1="44.68" x2="25.19" y2="0.12"/><line class="cls-3" x1="30.76" y1="44.68" x2="30.76" y2="0.12"/><line class="cls-3" x1="36.33" y1="44.68" x2="36.33" y2="0.12"/><line class="cls-3" x1="41.89" y1="44.68" x2="41.89" y2="0.12"/></g><path class="cls-1" d="M44.68,44.68H89.23V.13L44.68,44.68ZM.12.13H44.68V44.68L.12.13Z"/><rect class="cls-4" x="0.13" y="0.13" width="44.55" height="44.55"/><path class="cls-4" d="M32.25,32.25A13.92,13.92,0,0,0,12.56,12.56Z"/><path class="cls-4" d="M12.56,12.56A13.92,13.92,0,0,0,32.25,32.25Z"/><rect class="cls-4" x="44.68" y="0.13" width="44.55" height="44.55" transform="translate(133.91 44.8) rotate(180)"/><path class="cls-4" d="M76.8,12.56A13.92,13.92,0,0,1,57.11,32.25Z"/><path class="cls-4" d="M57.11,32.25A13.92,13.92,0,0,1,76.8,12.56Z"/><path class="cls-4" d="M2.87,21H5.76A16.7,16.7,0,0,1,39,21H50.32a16.69,16.69,0,0,1,33.27,0h2.23v2.78H83.59a16.69,16.69,0,0,1-33.27,0H39a16.7,16.7,0,0,1-33.28,0H2.87Z"/><g class="cls-5"><line class="cls-3" x1="44.68" y1="44.68" x2="0.13" y2="0.13"/><line class="cls-3" x1="39.11" y1="44.68" x2="0.13" y2="5.69"/><line class="cls-3" x1="33.54" y1="44.68" x2="0.13" y2="11.26"/><line class="cls-3" x1="27.97" y1="44.68" x2="0.13" y2="16.83"/><line class="cls-3" x1="0.13" y1="22.4" x2="22.4" y2="44.68"/><line class="cls-3" x1="16.83" y1="44.68" x2="0.13" y2="27.97"/><line class="cls-3" x1="0.13" y1="33.54" x2="11.26" y2="44.68"/><line class="cls-3" x1="5.69" y1="44.68" x2="0.13" y2="39.11"/><line class="cls-3" x1="5.69" y1="0.13" x2="44.68" y2="39.11"/><line class="cls-3" x1="11.26" y1="0.13" x2="44.68" y2="33.54"/><line class="cls-3" x1="16.83" y1="0.13" x2="44.68" y2="27.97"/><line class="cls-3" x1="44.68" y1="22.4" x2="22.4" y2="0.13"/><line class="cls-3" x1="27.97" y1="0.13" x2="44.68" y2="16.83"/><line class="cls-3" x1="44.68" y1="11.26" x2="33.54" y2="0.13"/><line class="cls-3" x1="39.11" y1="0.13" x2="44.68" y2="5.69"/><line class="cls-3" x1="44.68" y1="41.89" x2="2.91" y2="0.13"/><line class="cls-3" x1="41.89" y1="44.68" x2="0.13" y2="2.91"/><line class="cls-3" x1="36.33" y1="44.68" x2="0.13" y2="8.48"/><line class="cls-3" x1="30.76" y1="44.68" x2="0.13" y2="14.05"/><line class="cls-3" x1="0.13" y1="19.62" x2="25.19" y2="44.68"/><line class="cls-3" x1="19.62" y1="44.68" x2="0.13" y2="25.19"/><line class="cls-3" x1="0.13" y1="30.76" x2="14.05" y2="44.68"/><line class="cls-3" x1="8.48" y1="44.68" x2="0.13" y2="36.33"/><line class="cls-3" x1="2.91" y1="44.68" x2="0.12" y2="41.89"/><line class="cls-3" x1="8.48" y1="0.13" x2="44.68" y2="36.33"/><line class="cls-3" x1="14.05" y1="0.13" x2="44.68" y2="30.76"/><line class="cls-3" x1="19.62" y1="0.13" x2="44.68" y2="25.19"/><line class="cls-3" x1="44.68" y1="19.62" x2="25.19" y2="0.13"/><line class="cls-3" x1="30.76" y1="0.13" x2="44.68" y2="14.05"/><line class="cls-3" x1="44.68" y1="8.48" x2="36.33" y2="0.13"/><line class="cls-3" x1="41.89" y1="0.13" x2="44.68" y2="2.91"/><line class="cls-3" x1="89.23" y1="44.68" x2="44.68" y2="0.13"/><line class="cls-3" x1="83.66" y1="44.68" x2="44.68" y2="5.69"/><line class="cls-3" x1="78.09" y1="44.68" x2="44.68" y2="11.26"/><line class="cls-3" x1="72.53" y1="44.68" x2="44.68" y2="16.83"/><line class="cls-3" x1="44.68" y1="22.4" x2="66.96" y2="44.68"/><line class="cls-3" x1="61.39" y1="44.68" x2="44.68" y2="27.97"/><line class="cls-3" x1="44.68" y1="33.54" x2="55.82" y2="44.68"/><line class="cls-3" x1="50.25" y1="44.68" x2="44.68" y2="39.11"/><line class="cls-3" x1="50.25" y1="0.13" x2="89.23" y2="39.11"/><line class="cls-3" x1="55.82" y1="0.13" x2="89.23" y2="33.54"/><line class="cls-3" x1="61.39" y1="0.13" x2="89.23" y2="27.97"/><line class="cls-3" x1="89.23" y1="22.4" x2="66.96" y2="0.13"/><line class="cls-3" x1="72.53" y1="0.13" x2="89.23" y2="16.83"/><line class="cls-3" x1="89.23" y1="11.26" x2="78.09" y2="0.13"/><line class="cls-3" x1="83.66" y1="0.13" x2="89.23" y2="5.69"/><line class="cls-3" x1="89.23" y1="41.89" x2="47.46" y2="0.13"/><line class="cls-3" x1="86.45" y1="44.68" x2="44.68" y2="2.91"/><line class="cls-3" x1="80.88" y1="44.68" x2="44.68" y2="8.48"/><line class="cls-3" x1="75.31" y1="44.68" x2="44.68" y2="14.05"/><line class="cls-3" x1="44.68" y1="19.62" x2="69.74" y2="44.68"/><line class="cls-3" x1="64.17" y1="44.68" x2="44.68" y2="25.19"/><line class="cls-3" x1="44.68" y1="30.76" x2="58.6" y2="44.68"/><line class="cls-3" x1="53.03" y1="44.68" x2="44.68" y2="36.33"/><line class="cls-3" x1="47.46" y1="44.68" x2="44.68" y2="41.89"/><line class="cls-3" x1="53.03" y1="0.13" x2="89.23" y2="36.33"/><line class="cls-3" x1="58.6" y1="0.13" x2="89.23" y2="30.76"/><line class="cls-3" x1="64.17" y1="0.13" x2="89.23" y2="25.19"/><line class="cls-3" x1="89.23" y1="19.62" x2="69.74" y2="0.13"/><line class="cls-3" x1="75.31" y1="0.13" x2="89.23" y2="14.05"/><line class="cls-3" x1="89.23" y1="8.48" x2="80.88" y2="0.13"/><line class="cls-3" x1="86.45" y1="0.13" x2="89.23" y2="2.91"/></g><polygon class="cls-4" points="44.68 44.68 0.13 44.68 0.13 0.13 44.68 44.68"/><polygon class="cls-4" points="89.23 0.13 44.68 44.68 89.23 44.68 89.23 0.13"/></g></g></svg>