<svg xmlns="http://www.w3.org/2000/svg" xmlns:xlink="http://www.w3.org/1999/xlink" viewBox="0 0 44.95 44.8"><defs><style>.cls-1,.cls-3,.cls-6,.cls-7,.cls-8{fill:none;}.cls-2{clip-path:url(#clip-path);}.cls-3{stroke:#3459f4;}.cls-3,.cls-6,.cls-8{stroke-miterlimit:10;}.cls-3,.cls-6,.cls-7,.cls-8{stroke-width:0.25px;}.cls-4{clip-path:url(#clip-path-2);}.cls-5{clip-path:url(#clip-path-3);}.cls-6{stroke:#000;}.cls-7,.cls-8{stroke:#1d1d1e;}.cls-7{stroke-linejoin:round;}</style><clipPath id="clip-path"><path class="cls-1" d="M19.78,8.64,19.69,9v8c0,2.78.76,5.57-2.78,5.57V44.68H28.05V19.3C28.05,14.7,24.25,10.1,19.78,8.64Z"/></clipPath><clipPath id="clip-path-2"><polygon class="cls-1" points="0.2 0.13 44.75 0.13 44.75 0.13 0.2 44.68 0.2 0.13"/></clipPath><clipPath id="clip-path-3"><path class="cls-1" d="M28.05,34.61V44.68h16.7V22.4S38.74,32.07,28.05,34.61ZM44.75.13V22.4c-5.51-3.1-9.43-9.63-16.11-9.63a9.91,9.91,0,0,0-2.83.33,12.6,12.6,0,0,0-6-4.46L19.69,9V5.69s-2.78,0-2.78,5.57v1.52h-.59C9.63,12.77,5.71,19.3.2,22.4c0,0,6,9.67,16.71,12.21V44.68H.2V.13Z"/></clipPath></defs><g id="Layer_2" data-name="Layer 2"><g id="Layer_1-2" data-name="Layer 1"><g class="cls-2"><path class="cls-3" d="M44.75,39.64c-2.78,0-2.78-1.39-5.57-1.39s-2.78,1.39-5.56,1.39-2.79-1.39-5.57-1.39-2.79,1.39-5.57,1.39-2.79-1.39-5.57-1.39-2.79,1.39-5.57,1.39-2.79-1.39-5.57-1.39S3,39.64.2,39.64"/><path class="cls-3" d="M.2,42.16C3,42.16,3,40.77,5.77,40.77s2.78,1.39,5.57,1.39,2.78-1.39,5.57-1.39,2.78,1.39,5.57,1.39,2.78-1.39,5.57-1.39,2.78,1.39,5.57,1.39,2.78-1.39,5.56-1.39,2.79,1.39,5.57,1.39"/><path class="cls-3" d="M.2,44.68C3,44.68,3,43.29,5.77,43.29s2.78,1.39,5.57,1.39,2.78-1.39,5.57-1.39,2.78,1.39,5.57,1.39,2.78-1.39,5.57-1.39,2.78,1.39,5.57,1.39,2.78-1.39,5.56-1.39,2.79,1.39,5.57,1.39"/><path class="cls-3" d="M.2,37.12C3,37.12,3,35.73,5.77,35.73s2.78,1.39,5.57,1.39,2.78-1.39,5.57-1.39,2.78,1.39,5.57,1.39,2.78-1.39,5.57-1.39,2.78,1.39,5.57,1.39,2.78-1.39,5.56-1.39,2.79,1.39,5.57,1.39"/><path class="cls-3" d="M44.75,34.6c-2.78,0-2.78-1.4-5.57-1.4s-2.78,1.4-5.56,1.4-2.79-1.4-5.57-1.4-2.79,1.4-5.57,1.4-2.79-1.4-5.57-1.4-2.79,1.4-5.57,1.4-2.79-1.4-5.57-1.4S3,34.6.2,34.6"/><path class="cls-3" d="M44.75,29.56c-2.78,0-2.78-1.4-5.57-1.4s-2.78,1.4-5.56,1.4-2.79-1.4-5.57-1.4-2.79,1.4-5.57,1.4-2.79-1.4-5.57-1.4-2.79,1.4-5.57,1.4-2.79-1.4-5.57-1.4S3,29.56.2,29.56"/><path class="cls-3" d="M.2,32.08c2.78,0,2.78-1.4,5.57-1.4s2.78,1.4,5.57,1.4,2.78-1.4,5.57-1.4,2.78,1.4,5.57,1.4,2.78-1.4,5.57-1.4,2.78,1.4,5.57,1.4,2.78-1.4,5.56-1.4,2.79,1.4,5.57,1.4"/><path class="cls-3" d="M.2,27C3,27,3,25.64,5.77,25.64S8.55,27,11.34,27s2.78-1.4,5.57-1.4S19.69,27,22.48,27s2.78-1.4,5.57-1.4S30.83,27,33.62,27s2.78-1.4,5.56-1.4S42,27,44.75,27"/><path class="cls-3" d="M44.75,24.52c-2.78,0-2.78-1.4-5.57-1.4s-2.78,1.4-5.56,1.4-2.79-1.4-5.57-1.4-2.79,1.4-5.57,1.4-2.79-1.4-5.57-1.4-2.79,1.4-5.57,1.4-2.79-1.4-5.57-1.4S3,24.52.2,24.52"/><path class="cls-3" d="M44.75,22C42,22,42,20.6,39.18,20.6S36.4,22,33.62,22s-2.79-1.39-5.57-1.39S25.26,22,22.48,22s-2.79-1.39-5.57-1.39S14.12,22,11.34,22,8.55,20.6,5.77,20.6,3,22,.2,22"/><path class="cls-3" d="M.2,19.47C3,19.47,3,18.08,5.77,18.08s2.78,1.39,5.57,1.39,2.78-1.39,5.57-1.39,2.78,1.39,5.57,1.39,2.78-1.39,5.57-1.39,2.78,1.39,5.57,1.39,2.78-1.39,5.56-1.39,2.79,1.39,5.57,1.39"/><path class="cls-3" d="M44.75,17C42,17,42,15.56,39.18,15.56S36.4,17,33.62,17s-2.79-1.39-5.57-1.39S25.26,17,22.48,17s-2.79-1.39-5.57-1.39S14.12,17,11.34,17s-2.79-1.39-5.57-1.39S3,17,.2,17"/><path class="cls-3" d="M44.75,11.91c-2.78,0-2.78-1.39-5.57-1.39s-2.78,1.39-5.56,1.39-2.79-1.39-5.57-1.39-2.79,1.39-5.57,1.39-2.79-1.39-5.57-1.39-2.79,1.39-5.57,1.39-2.79-1.39-5.57-1.39S3,11.91.2,11.91"/><path class="cls-3" d="M.2,14.43C3,14.43,3,13,5.77,13s2.78,1.39,5.57,1.39S14.12,13,16.91,13s2.78,1.39,5.57,1.39S25.26,13,28.05,13s2.78,1.39,5.57,1.39S36.4,13,39.18,13s2.79,1.39,5.57,1.39"/><path class="cls-3" d="M.2,9.39C3,9.39,3,8,5.77,8s2.78,1.39,5.57,1.39S14.12,8,16.91,8s2.78,1.39,5.57,1.39S25.26,8,28.05,8s2.78,1.39,5.57,1.39S36.4,8,39.18,8,42,9.39,44.75,9.39"/><path class="cls-3" d="M44.75,6.87C42,6.87,42,5.48,39.18,5.48S36.4,6.87,33.62,6.87s-2.79-1.39-5.57-1.39-2.79,1.39-5.57,1.39-2.79-1.39-5.57-1.39-2.79,1.39-5.57,1.39S8.55,5.48,5.77,5.48,3,6.87.2,6.87"/><path class="cls-3" d="M44.75,4.35C42,4.35,42,3,39.18,3S36.4,4.35,33.62,4.35,30.83,3,28.05,3s-2.79,1.39-5.57,1.39S19.69,3,16.91,3s-2.79,1.39-5.57,1.39S8.55,3,5.77,3,3,4.35.2,4.35"/><path class="cls-3" d="M44.75,1.83C42,1.83,42,.44,39.18.44S36.4,1.83,33.62,1.83,30.83.44,28.05.44s-2.79,1.39-5.57,1.39S19.69.44,16.91.44s-2.79,1.39-5.57,1.39S8.55.44,5.77.44,3,1.83.2,1.83"/></g><g class="cls-4"><g class="cls-5"><line class="cls-6" x1="0.2" y1="0.13" x2="44.75" y2="44.68"/><line class="cls-6" x1="0.2" y1="5.69" x2="39.18" y2="44.68"/><line class="cls-6" x1="0.2" y1="11.26" x2="33.62" y2="44.68"/><line class="cls-6" x1="0.2" y1="16.83" x2="28.05" y2="44.68"/><line class="cls-6" x1="22.48" y1="44.68" x2="0.2" y2="22.4"/><line class="cls-6" x1="0.2" y1="27.97" x2="16.91" y2="44.68"/><line class="cls-6" x1="11.34" y1="44.68" x2="0.2" y2="33.54"/><line class="cls-6" x1="0.2" y1="39.11" x2="5.77" y2="44.68"/><line class="cls-6" x1="44.75" y1="39.11" x2="5.77" y2="0.13"/><line class="cls-6" x1="44.75" y1="33.54" x2="11.34" y2="0.13"/><line class="cls-6" x1="44.75" y1="27.97" x2="16.91" y2="0.13"/><line class="cls-6" x1="22.48" y1="0.13" x2="44.75" y2="22.4"/><line class="cls-6" x1="44.75" y1="16.83" x2="28.05" y2="0.13"/><line class="cls-6" x1="33.62" y1="0.13" x2="44.75" y2="11.26"/><line class="cls-6" x1="44.75" y1="5.69" x2="39.18" y2="0.13"/><line class="cls-6" x1="2.98" y1="0.13" x2="44.75" y2="41.89"/><line class="cls-6" x1="0.2" y1="2.91" x2="41.97" y2="44.68"/><line class="cls-6" x1="0.2" y1="8.48" x2="36.4" y2="44.68"/><line class="cls-6" x1="0.2" y1="14.05" x2="30.83" y2="44.68"/><line class="cls-6" x1="25.26" y1="44.68" x2="0.2" y2="19.62"/><line class="cls-6" x1="0.2" y1="25.19" x2="19.69" y2="44.68"/><line class="cls-6" x1="14.12" y1="44.68" x2="0.2" y2="30.76"/><line class="cls-6" x1="0.2" y1="36.33" x2="8.55" y2="44.68"/><line class="cls-6" x1="0.2" y1="41.89" x2="2.98" y2="44.68"/><line class="cls-6" x1="44.75" y1="36.33" x2="8.55" y2="0.13"/><line class="cls-6" x1="44.75" y1="30.76" x2="14.12" y2="0.13"/><line class="cls-6" x1="44.75" y1="25.19" x2="19.69" y2="0.13"/><line class="cls-6" x1="25.26" y1="0.13" x2="44.75" y2="19.62"/><line class="cls-6" x1="44.75" y1="14.05" x2="30.83" y2="0.13"/><line class="cls-6" x1="36.4" y1="0.13" x2="44.75" y2="8.48"/><line class="cls-6" x1="44.75" y1="2.91" x2="41.97" y2="0.13"/></g></g><rect class="cls-7" x="0.2" y="0.13" width="44.55" height="44.55"/><rect class="cls-7" x="0.2" y="0.13" width="44.55" height="44.55"/><path class="cls-8" d="M16.91,22.55c3.54,0,2.78-2.79,2.78-5.57V5.69s-2.78,0-2.78,5.57Z"/><path class="cls-8" d="M19.78,8.64c4.47,1.46,8.27,6.06,8.27,10.66V44.68H16.91V19.3"/><path class="cls-8" d="M25.81,13.09a10.36,10.36,0,0,1,2.83-.32c6.68,0,10.6,6.53,16.11,9.63"/><path class="cls-8" d="M.2,22.4c5.51-3.1,9.43-9.63,16.12-9.63h.59"/><path class="cls-8" d="M16.91,34.62C6.21,32.08.2,22.4.2,22.4c8.4-1.77,13.33-.9,16.71.15"/><path class="cls-8" d="M28.05,22.62c3.33-1.07,8.11-2,16.7-.22,0,0-6,9.68-16.7,12.22"/><polyline class="cls-7" points="31.61 13.27 44.75 0.13 44.75 44.68 0.2 44.68 0.2 44.68 11.99 32.89"/></g></g></svg>