<?xml version="1.0" encoding="UTF-8"?><svg id="Layer_2" xmlns="http://www.w3.org/2000/svg" xmlns:xlink="http://www.w3.org/1999/xlink" viewBox="0 0 288.37 288.3"><defs><style>.cls-1,.cls-2,.cls-3,.cls-4,.cls-5,.cls-6{fill:none;}.cls-7{clip-path:url(#clippath);}.cls-8{clip-path:url(#clippath-1);}.cls-9{clip-path:url(#clippath-4);}.cls-10{clip-path:url(#clippath-3);}.cls-11{clip-path:url(#clippath-2);}.cls-12{clip-path:url(#clippath-7);}.cls-13{clip-path:url(#clippath-8);}.cls-14{clip-path:url(#clippath-6);}.cls-15{clip-path:url(#clippath-5);}.cls-16{clip-path:url(#clippath-9);}.cls-2{stroke-linejoin:round;}.cls-2,.cls-3{stroke:#1d1d1e;}.cls-2,.cls-3,.cls-4,.cls-5,.cls-6{stroke-width:.5px;}.cls-3,.cls-4,.cls-5,.cls-6{stroke-miterlimit:10;}.cls-4{stroke:#010101;}.cls-5{stroke:#4961ad;}.cls-6{stroke:#4a62ad;}</style><clipPath id="clippath"><path class="cls-1" d="M137.91,114.32l-.2,.73v17.25c0,6,1.63,12-6,12v47.71h24.01v-54.7c0-9.92-8.19-19.84-17.81-22.98Z"/></clipPath><clipPath id="clippath-1"><polygon class="cls-1" points="95.69 95.98 191.73 95.98 191.73 95.98 95.69 192.01 95.69 95.98"/></clipPath><clipPath id="clippath-2"><path class="cls-1" d="M155.72,170.32v21.7h36.01v-48.02s-12.96,20.84-36.01,26.32Zm36.01-74.34v48.02c-11.88-6.69-20.33-20.77-34.74-20.77-2.74,0-4.65,.29-6.09,.7-3.29-4.42-7.94-7.95-12.99-9.61l-.2,.73v-7.07s-6,0-6,12v3.28c-.41-.01-.82-.03-1.27-.03-14.41,0-22.86,14.08-34.74,20.77,0,0,12.96,20.84,36.01,26.32v21.7h-36.01V95.98h96.04Z"/></clipPath><clipPath id="clippath-3"><path class="cls-5" d="M233.75,108.51v70.89c-17.02-2.92-29.97-17.67-29.97-35.44s12.95-32.52,29.97-35.44Z"/></clipPath><clipPath id="clippath-4"><path class="cls-1" d="M239.93,95.88v12.09c-19.96,0-36.15,16.11-36.15,35.98,0,17.78,12.97,32.51,30,35.42l-.03,.02,.15,12.53h-42.39V95.88h48.42Z"/></clipPath><clipPath id="clippath-5"><path class="cls-1" d="M239.93,107.97v-12.09h48.16v48.07h-12.01c0-19.87-16.18-35.98-36.15-35.98Z"/></clipPath><clipPath id="clippath-6"><path class="cls-1" d="M162.01,210.02c-9.95,0-18.01,8.06-18.01,18.01l-6,12.01h12l-8.51,12h12l-8.51,12h11.98c10.32-10.36,23.05-25.31,23.05-36.01,0-9.94-8.06-18.01-18.01-18.01Z"/></clipPath><clipPath id="clippath-7"><polygon class="cls-1" points="95.69 288.05 191.73 288.05 191.73 192.01 191.73 192.01 171.08 212.67 125.35 258.4 95.69 288.05"/></clipPath><clipPath id="clippath-8"><path class="cls-1" d="M95.69,192.01v96.04h96.04v-96.04H95.69Zm48.02,84.03s-36.01-30.01-36.01-48.02c0-9.94,8.06-18.01,18.01-18.01s18.01,8.06,18.01,18.01c0-9.94,8.06-18.01,18.01-18.01s18.01,8.06,18.01,18.01c0,18.01-36.01,48.02-36.01,48.02Z"/></clipPath><clipPath id="clippath-9"><path class="cls-1" d="M122.93,48.12v35.9h11.97V48.12c0-3.3-2.68-5.98-5.98-5.98s-5.98,2.68-5.98,5.98Zm-11.97-5.98c3.3,0,5.98,2.68,5.98,5.98v35.9h-11.97V48.12c0-3.3,2.68-5.98,5.98-5.98Zm65.82,0c3.3,0,5.98,2.68,5.98,5.98v35.9h-11.97V48.12c0-3.3,2.68-5.98,5.98-5.98Zm-17.95,0c3.3,0,5.98,2.68,5.98,5.98v35.9h-11.97V48.12c0-3.3,2.68-5.98,5.98-5.98Zm-86.76,5.98c8.26,0,14.96,6.7,14.96,14.96v20.94h-29.92v-20.94c0-8.26,6.7-14.96,14.96-14.96Z"/></clipPath></defs><g id="Layer_1-2"><g><g><g class="cls-7"><g><path class="cls-6" d="M191.73,181.15c-6,0-6-3-12-3s-6,3-12,3-6-3-12-3-6,3-12,3-6-3-12-3-6,3-12,3-6-3-12-3-6,3-12,3"/><path class="cls-6" d="M95.69,186.58c6,0,6-3,12-3s6,3,12,3,6-3,12-3,6,3,12,3,6-3,12-3,6,3,12,3,6-3,12-3,6,3,12,3"/><path class="cls-6" d="M95.69,192.01c6,0,6-3,12-3s6,3,12,3,6-3,12-3,6,3,12,3,6-3,12-3,6,3,12,3,6-3,12-3,6,3,12,3"/><path class="cls-6" d="M95.69,175.71c6,0,6-3,12-3s6,3,12,3,6-3,12-3,6,3,12,3,6-3,12-3,6,3,12,3,6-3,12-3,6,3,12,3"/><path class="cls-6" d="M191.73,170.28c-6,0-6-3-12-3s-6,3-12,3-6-3-12-3-6,3-12,3-6-3-12-3-6,3-12,3-6-3-12-3-6,3-12,3"/><path class="cls-6" d="M191.73,159.41c-6,0-6-3-12-3s-6,3-12,3-6-3-12-3-6,3-12,3-6-3-12-3-6,3-12,3-6-3-12-3-6,3-12,3"/><path class="cls-6" d="M95.69,164.85c6,0,6-3,12-3s6,3,12,3,6-3,12-3,6,3,12,3,6-3,12-3,6,3,12,3,6-3,12-3,6,3,12,3"/><path class="cls-6" d="M95.69,153.98c6,0,6-3,12-3s6,3,12,3,6-3,12-3,6,3,12,3,6-3,12-3,6,3,12,3,6-3,12-3,6,3,12,3"/><path class="cls-6" d="M191.73,148.55c-6,0-6-3-12-3s-6,3-12,3-6-3-12-3-6,3-12,3-6-3-12-3-6,3-12,3-6-3-12-3-6,3-12,3"/><path class="cls-6" d="M191.73,143.12c-6,0-6-3-12-3s-6,3-12,3-6-3-12-3-6,3-12,3-6-3-12-3-6,3-12,3-6-3-12-3-6,3-12,3"/><path class="cls-6" d="M95.69,137.68c6,0,6-3,12-3s6,3,12,3,6-3,12-3,6,3,12,3,6-3,12-3,6,3,12,3,6-3,12-3,6,3,12,3"/><path class="cls-6" d="M191.73,132.25c-6,0-6-3-12-3s-6,3-12,3-6-3-12-3-6,3-12,3-6-3-12-3-6,3-12,3-6-3-12-3-6,3-12,3"/><path class="cls-6" d="M191.73,121.38c-6,0-6-3-12-3s-6,3-12,3-6-3-12-3-6,3-12,3-6-3-12-3-6,3-12,3-6-3-12-3-6,3-12,3"/><path class="cls-6" d="M95.69,126.82c6,0,6-3,12-3s6,3,12,3,6-3,12-3,6,3,12,3,6-3,12-3,6,3,12,3,6-3,12-3,6,3,12,3"/><path class="cls-6" d="M95.69,115.95c6,0,6-3,12-3s6,3,12,3,6-3,12-3,6,3,12,3,6-3,12-3,6,3,12,3,6-3,12-3,6,3,12,3"/><path class="cls-6" d="M191.73,110.52c-6,0-6-3-12-3s-6,3-12,3-6-3-12-3-6,3-12,3-6-3-12-3-6,3-12,3-6-3-12-3-6,3-12,3"/><path class="cls-6" d="M191.73,105.08c-6,0-6-3-12-3s-6,3-12,3-6-3-12-3-6,3-12,3-6-3-12-3-6,3-12,3-6-3-12-3-6,3-12,3"/><path class="cls-6" d="M191.73,99.65c-6,0-6-3-12-3s-6,3-12,3-6-3-12-3-6,3-12,3-6-3-12-3-6,3-12,3-6-3-12-3-6,3-12,3"/></g></g><g class="cls-8"><g class="cls-11"><g><g><line class="cls-4" x1="95.69" y1="95.98" x2="191.73" y2="192.01"/><line class="cls-4" x1="95.69" y1="107.98" x2="179.73" y2="192.01"/><line class="cls-4" x1="95.69" y1="119.99" x2="167.72" y2="192.01"/><line class="cls-4" x1="95.69" y1="131.99" x2="155.72" y2="192.01"/><line class="cls-4" x1="143.71" y1="192.01" x2="95.69" y2="143.99"/><line class="cls-4" x1="95.69" y1="156" x2="131.71" y2="192.01"/><line class="cls-4" x1="119.7" y1="192.01" x2="95.69" y2="168"/><line class="cls-4" x1="95.69" y1="180.01" x2="107.7" y2="192.01"/><line class="cls-4" x1="191.73" y1="180.01" x2="107.7" y2="95.98"/><line class="cls-4" x1="191.73" y1="168" x2="119.7" y2="95.98"/><line class="cls-4" x1="191.73" y1="156" x2="131.71" y2="95.98"/><line class="cls-4" x1="143.71" y1="95.98" x2="191.73" y2="143.99"/><line class="cls-4" x1="191.73" y1="131.99" x2="155.72" y2="95.98"/><line class="cls-4" x1="167.72" y1="95.98" x2="191.73" y2="119.99"/><line class="cls-4" x1="191.73" y1="107.98" x2="179.73" y2="95.98"/></g><g><line class="cls-4" x1="101.7" y1="95.98" x2="191.73" y2="186.01"/><line class="cls-4" x1="95.69" y1="101.98" x2="185.73" y2="192.01"/><line class="cls-4" x1="95.69" y1="113.98" x2="173.73" y2="192.01"/><line class="cls-4" x1="95.69" y1="125.99" x2="161.72" y2="192.01"/><line class="cls-4" x1="149.72" y1="192.01" x2="95.69" y2="137.99"/><line class="cls-4" x1="95.69" y1="150" x2="137.71" y2="192.01"/><line class="cls-4" x1="125.71" y1="192.01" x2="95.69" y2="162"/><line class="cls-4" x1="95.69" y1="174.01" x2="113.7" y2="192.01"/><line class="cls-4" x1="95.69" y1="186.01" x2="101.7" y2="192.01"/><line class="cls-4" x1="191.73" y1="174.01" x2="113.7" y2="95.98"/><line class="cls-4" x1="191.73" y1="162" x2="125.71" y2="95.98"/><line class="cls-4" x1="191.73" y1="150" x2="137.71" y2="95.98"/><line class="cls-4" x1="149.72" y1="95.98" x2="191.73" y2="137.99"/><line class="cls-4" x1="191.73" y1="125.99" x2="161.72" y2="95.98"/><line class="cls-4" x1="173.73" y1="95.98" x2="191.73" y2="113.98"/><line class="cls-4" x1="191.73" y1="101.98" x2="185.73" y2="95.98"/></g></g></g></g><rect class="cls-2" x="95.69" y="95.97" width="96.04" height="96.04"/><rect class="cls-2" x="95.69" y="95.97" width="96.04" height="96.04"/><path class="cls-3" d="M131.71,144.3c7.64,0,6-6,6-12v-24.32s-6,0-6,12v24.32Z"/><path class="cls-3" d="M137.91,114.32c9.62,3.15,17.81,13.07,17.81,22.98v54.7h-24.01v-54.7"/><g><path class="cls-3" d="M150.9,123.92c1.44-.41,3.37-.69,6.09-.69,14.41,0,22.86,14.08,34.74,20.77"/><path class="cls-3" d="M95.69,143.99c11.88-6.69,20.33-20.77,34.74-20.77,.45,0,.87,0,1.27,.02"/><path class="cls-3" d="M131.71,170.33c-23.06-5.48-36.01-26.34-36.01-26.34,18.1-3.82,28.74-1.94,36.01,.31"/><path class="cls-3" d="M155.72,144.46c7.19-2.32,17.48-4.38,36.01-.47,0,0-12.95,20.86-36.01,26.34"/></g><polyline class="cls-2" points="163.4 124.3 191.73 95.98 191.73 192.01 95.69 192.01 95.69 192.01 121.1 166.61"/></g><g><g><g class="cls-10"><g><g><line class="cls-5" x1="191.72" y1="95.98" x2="288.11" y2="95.98"/><line class="cls-5" x1="191.72" y1="107.97" x2="288.11" y2="107.97"/><line class="cls-5" x1="191.72" y1="119.97" x2="288.11" y2="119.97"/><line class="cls-5" x1="191.72" y1="131.96" x2="288.11" y2="131.96"/><line class="cls-5" x1="191.72" y1="143.95" x2="288.11" y2="143.95"/><line class="cls-5" x1="191.72" y1="155.95" x2="288.11" y2="155.95"/><line class="cls-5" x1="191.72" y1="167.94" x2="288.11" y2="167.94"/><line class="cls-5" x1="191.72" y1="179.93" x2="288.11" y2="179.93"/><line class="cls-5" x1="191.72" y1="191.92" x2="288.11" y2="191.92"/></g><g><line class="cls-5" x1="288.11" y1="95.98" x2="288.11" y2="191.92"/><line class="cls-5" x1="276.07" y1="95.98" x2="276.07" y2="191.92"/><line class="cls-5" x1="264.02" y1="95.98" x2="264.02" y2="191.92"/><line class="cls-5" x1="251.97" y1="95.98" x2="251.97" y2="191.92"/><line class="cls-5" x1="239.92" y1="95.98" x2="239.92" y2="191.92"/><line class="cls-5" x1="227.87" y1="95.98" x2="227.87" y2="191.92"/><line class="cls-5" x1="215.82" y1="95.98" x2="215.82" y2="191.92"/><line class="cls-5" x1="203.77" y1="95.98" x2="203.77" y2="191.92"/><line class="cls-5" x1="191.72" y1="95.98" x2="191.72" y2="191.92"/></g></g></g><path class="cls-5" d="M233.75,108.51v70.89c-17.02-2.92-29.97-17.67-29.97-35.44s12.95-32.52,29.97-35.44Z"/></g><g class="cls-9"><g><g><line class="cls-3" x1="191.72" y1="95.98" x2="288.11" y2="191.92"/><line class="cls-3" x1="191.72" y1="107.97" x2="276.07" y2="191.92"/><line class="cls-3" x1="191.72" y1="119.97" x2="264.02" y2="191.92"/><line class="cls-3" x1="191.72" y1="131.96" x2="251.97" y2="191.92"/><line class="cls-3" x1="239.92" y1="191.92" x2="191.72" y2="143.95"/><line class="cls-3" x1="191.72" y1="155.95" x2="227.87" y2="191.92"/><line class="cls-3" x1="215.82" y1="191.92" x2="191.72" y2="167.94"/><line class="cls-3" x1="191.72" y1="179.93" x2="203.77" y2="191.92"/><line class="cls-3" x1="288.11" y1="179.93" x2="203.77" y2="95.98"/><line class="cls-3" x1="288.11" y1="167.94" x2="215.82" y2="95.98"/><line class="cls-3" x1="288.11" y1="155.95" x2="227.87" y2="95.98"/><line class="cls-3" x1="239.92" y1="95.98" x2="288.11" y2="143.95"/><line class="cls-3" x1="288.11" y1="131.96" x2="251.97" y2="95.98"/><line class="cls-3" x1="264.02" y1="95.98" x2="288.11" y2="119.97"/><line class="cls-3" x1="288.11" y1="107.97" x2="276.07" y2="95.98"/></g><g><line class="cls-3" x1="197.75" y1="95.98" x2="288.11" y2="185.93"/><line class="cls-3" x1="191.72" y1="101.98" x2="282.09" y2="191.92"/><line class="cls-3" x1="191.72" y1="113.97" x2="270.04" y2="191.92"/><line class="cls-3" x1="191.72" y1="125.96" x2="257.99" y2="191.92"/><line class="cls-3" x1="245.94" y1="191.92" x2="191.72" y2="137.96"/><line class="cls-3" x1="191.72" y1="149.95" x2="233.89" y2="191.92"/><line class="cls-3" x1="221.85" y1="191.92" x2="191.72" y2="161.94"/><line class="cls-3" x1="191.72" y1="173.93" x2="209.8" y2="191.92"/><line class="cls-3" x1="191.72" y1="185.93" x2="197.75" y2="191.92"/><line class="cls-3" x1="288.11" y1="173.93" x2="209.8" y2="95.98"/><line class="cls-3" x1="288.11" y1="161.94" x2="221.85" y2="95.98"/><line class="cls-3" x1="288.11" y1="149.95" x2="233.89" y2="95.98"/><line class="cls-3" x1="245.94" y1="95.98" x2="288.11" y2="137.96"/><line class="cls-3" x1="288.11" y1="125.96" x2="257.99" y2="95.98"/><line class="cls-3" x1="270.04" y1="95.98" x2="288.11" y2="113.97"/><line class="cls-3" x1="288.11" y1="101.98" x2="282.09" y2="95.98"/></g></g></g><g class="cls-15"><g><line class="cls-3" x1="191.73" y1="191.88" x2="191.73" y2="95.93"/><line class="cls-3" x1="203.78" y1="191.88" x2="203.78" y2="95.93"/><line class="cls-3" x1="215.83" y1="191.88" x2="215.83" y2="95.93"/><line class="cls-3" x1="227.88" y1="191.88" x2="227.88" y2="95.93"/><line class="cls-3" x1="239.93" y1="191.88" x2="239.93" y2="95.93"/><line class="cls-3" x1="251.97" y1="191.88" x2="251.97" y2="95.93"/><line class="cls-3" x1="264.02" y1="191.88" x2="264.02" y2="95.93"/><line class="cls-3" x1="276.07" y1="191.88" x2="276.07" y2="95.93"/><line class="cls-3" x1="288.12" y1="191.88" x2="288.12" y2="95.93"/><line class="cls-3" x1="197.76" y1="191.88" x2="197.76" y2="95.93"/><line class="cls-3" x1="209.8" y1="191.88" x2="209.8" y2="95.93"/><line class="cls-3" x1="221.85" y1="191.88" x2="221.85" y2="95.93"/><line class="cls-3" x1="233.9" y1="191.88" x2="233.9" y2="95.93"/><line class="cls-3" x1="245.95" y1="191.88" x2="245.95" y2="95.93"/><line class="cls-3" x1="258" y1="191.88" x2="258" y2="95.93"/><line class="cls-3" x1="270.05" y1="191.88" x2="270.05" y2="95.93"/><line class="cls-3" x1="282.1" y1="191.88" x2="282.1" y2="95.93"/></g></g><g><rect class="cls-3" x="191.73" y="95.98" width="96.39" height="95.94"/><polyline class="cls-3" points="239.93 107.97 239.93 95.98 288.12 95.98 288.12 191.92 239.93 191.92"/><ellipse class="cls-3" cx="239.93" cy="143.95" rx="36.15" ry="35.98"/></g><g><rect class="cls-3" x="191.73" y="95.98" width="96.39" height="95.94"/><polyline class="cls-3" points="239.93 95.98 288.12 95.98 288.12 191.92 239.93 191.92"/><polyline class="cls-3" points="258.13 143.95 288.12 143.95 288.12 191.92 233.75 191.92 233.75 166.54"/><ellipse class="cls-3" cx="239.93" cy="143.95" rx="36.15" ry="35.98"/><path class="cls-3" d="M276.07,143.95c0,19.87-16.18,35.98-36.15,35.98s-36.15-16.11-36.15-35.98"/></g><path class="cls-3" d="M258.13,112.86c-5.35-3.11-11.56-4.89-18.2-4.89-19.96,0-36.15,16.11-36.15,35.98s16.18,35.98,36.15,35.98v-13.39c6.02,0,12.05-6,12.05-11.99h6.02v-41.47"/><path class="cls-3" d="M233.75,108.51v70.89c-17.02-2.92-29.97-17.67-29.97-35.44s12.95-32.52,29.97-35.44Z"/><g><path class="cls-3" d="M255.75,132.9s-2.27-6.04-9.1-6.04-9.1,6.04-9.1,6.04h0s2.27,6.04,9.1,6.04,9.1-6.04,9.1-6.04h0Z"/><ellipse class="cls-3" cx="246.66" cy="132.9" rx="6.07" ry="6.04"/><ellipse class="cls-3" cx="246.66" cy="132.9" rx="2.8" ry="2.79"/></g></g><g><g class="cls-14"><g><g><line class="cls-4" x1="191.73" y1="288.05" x2="95.69" y2="192.01"/><line class="cls-4" x1="179.73" y1="288.05" x2="95.69" y2="204.02"/><line class="cls-4" x1="167.72" y1="288.05" x2="95.69" y2="216.02"/><line class="cls-4" x1="155.72" y1="288.05" x2="95.69" y2="228.03"/><line class="cls-4" x1="95.69" y1="240.03" x2="143.71" y2="288.05"/><line class="cls-4" x1="131.71" y1="288.05" x2="95.69" y2="252.04"/><line class="cls-4" x1="95.69" y1="264.04" x2="119.7" y2="288.05"/><line class="cls-4" x1="107.7" y1="288.05" x2="95.69" y2="276.05"/><line class="cls-4" x1="107.7" y1="192.01" x2="191.73" y2="276.05"/><line class="cls-4" x1="119.7" y1="192.01" x2="191.73" y2="264.04"/><line class="cls-4" x1="131.71" y1="192.01" x2="191.73" y2="252.04"/><line class="cls-4" x1="191.73" y1="240.03" x2="143.71" y2="192.01"/><line class="cls-4" x1="155.72" y1="192.01" x2="191.73" y2="228.03"/><line class="cls-4" x1="191.73" y1="216.02" x2="167.72" y2="192.01"/><line class="cls-4" x1="179.73" y1="192.01" x2="191.73" y2="204.02"/></g><g><line class="cls-4" x1="191.73" y1="282.05" x2="101.7" y2="192.01"/><line class="cls-4" x1="185.73" y1="288.05" x2="95.69" y2="198.02"/><line class="cls-4" x1="173.73" y1="288.05" x2="95.69" y2="210.02"/><line class="cls-4" x1="161.72" y1="288.05" x2="95.69" y2="222.02"/><line class="cls-4" x1="95.69" y1="234.03" x2="149.72" y2="288.05"/><line class="cls-4" x1="137.71" y1="288.05" x2="95.69" y2="246.03"/><line class="cls-4" x1="95.69" y1="258.04" x2="125.71" y2="288.05"/><line class="cls-4" x1="113.7" y1="288.05" x2="95.69" y2="270.04"/><line class="cls-4" x1="101.7" y1="288.05" x2="95.69" y2="282.05"/><line class="cls-4" x1="113.7" y1="192.01" x2="191.73" y2="270.04"/><line class="cls-4" x1="125.71" y1="192.01" x2="191.73" y2="258.04"/><line class="cls-4" x1="137.71" y1="192.01" x2="191.73" y2="246.03"/><line class="cls-4" x1="191.73" y1="234.03" x2="149.72" y2="192.01"/><line class="cls-4" x1="161.72" y1="192.01" x2="191.73" y2="222.02"/><line class="cls-4" x1="191.73" y1="210.02" x2="173.73" y2="192.01"/><line class="cls-4" x1="185.73" y1="192.01" x2="191.73" y2="198.02"/></g></g></g><rect class="cls-3" x="95.69" y="192.01" width="96.04" height="96.04" transform="translate(287.43 480.06) rotate(180)"/><path class="cls-5" d="M161.72,210.02c-9.95,0-18.01,8.06-18.01,18.01,0-9.94-8.06-18.01-18.01-18.01s-18.01,8.06-18.01,18.01c0,18.01,36.01,48.02,36.01,48.02,0,0,36.01-30.01,36.01-48.02,0-9.94-8.06-18.01-18.01-18.01Z"/><polyline class="cls-3" points="143.71 228.03 137.71 240.03 149.72 240.03 141.21 252.04 153.21 252.04 144.7 264.04 156.68 264.04"/><g class="cls-12"><g class="cls-13"><g><g><line class="cls-4" x1="191.73" y1="192.01" x2="95.69" y2="192.01"/><line class="cls-4" x1="191.73" y1="204.02" x2="95.69" y2="204.02"/><line class="cls-4" x1="191.73" y1="216.02" x2="95.69" y2="216.02"/><line class="cls-4" x1="191.73" y1="228.03" x2="95.69" y2="228.03"/><line class="cls-4" x1="191.73" y1="240.03" x2="95.69" y2="240.03"/><line class="cls-4" x1="191.73" y1="252.04" x2="95.69" y2="252.04"/><line class="cls-4" x1="191.73" y1="264.04" x2="95.69" y2="264.04"/><line class="cls-4" x1="191.73" y1="276.05" x2="95.69" y2="276.05"/><line class="cls-4" x1="191.73" y1="288.05" x2="95.69" y2="288.05"/></g><g><line class="cls-4" x1="95.69" y1="192.01" x2="95.69" y2="288.05"/><line class="cls-4" x1="107.7" y1="192.01" x2="107.7" y2="288.05"/><line class="cls-4" x1="119.7" y1="192.01" x2="119.7" y2="288.05"/><line class="cls-4" x1="131.71" y1="192.01" x2="131.71" y2="288.05"/><line class="cls-4" x1="143.71" y1="192.01" x2="143.71" y2="288.05"/><line class="cls-4" x1="155.72" y1="192.01" x2="155.72" y2="288.05"/><line class="cls-4" x1="167.72" y1="192.01" x2="167.72" y2="288.05"/><line class="cls-4" x1="179.73" y1="192.01" x2="179.73" y2="288.05"/><line class="cls-4" x1="191.73" y1="192.01" x2="191.73" y2="288.05"/></g></g></g></g><polyline class="cls-3" points="125.35 258.4 95.69 288.05 191.73 288.05 191.73 192.01 191.73 192.01 171.08 212.67"/></g><g><g><path class="cls-6" d="M.26,75.9c5.98,0,5.98-2.99,11.97-2.99"/><path class="cls-6" d="M.26,81.47c5.98,0,5.98-2.99,11.97-2.99"/><path class="cls-6" d="M.26,64.77c5.98,0,5.98-2.99,11.97-2.99s5.98,2.99,11.97,2.99"/><path class="cls-6" d="M24.19,70.34c-5.98,0-5.98-2.99-11.97-2.99s-5.98,2.99-11.97,2.99"/><path class="cls-6" d="M36.16,56.21c-5.98,0-5.98,2.99-11.97,2.99s-5.98-2.99-11.97-2.99-5.98,2.99-11.97,2.99"/><path class="cls-6" d="M.26,53.64c5.98,0,5.98-2.99,11.97-2.99s5.98,2.99,11.97,2.99,5.98-2.99,11.97-2.99"/></g><g><g class="cls-16"><g><g><line class="cls-4" x1="191.72" y1="95.98" x2="95.99" y2=".25"/><line class="cls-4" x1="179.76" y1="95.98" x2="95.99" y2="12.22"/><line class="cls-4" x1="167.79" y1="95.98" x2="95.99" y2="24.18"/><line class="cls-4" x1="155.82" y1="95.98" x2="95.99" y2="36.15"/><line class="cls-4" x1="95.99" y1="48.12" x2="143.86" y2="95.98"/><line class="cls-4" x1="131.89" y1="95.98" x2="95.99" y2="60.08"/><line class="cls-4" x1="95.99" y1="72.05" x2="119.92" y2="95.98"/><line class="cls-4" x1="107.96" y1="95.98" x2="95.99" y2="84.02"/><line class="cls-4" x1="107.96" y1=".25" x2="191.72" y2="84.02"/><line class="cls-4" x1="119.92" y1=".25" x2="191.72" y2="72.05"/><line class="cls-4" x1="131.89" y1=".25" x2="191.72" y2="60.08"/><line class="cls-4" x1="191.72" y1="48.12" x2="143.86" y2=".25"/><line class="cls-4" x1="155.82" y1=".25" x2="191.72" y2="36.15"/><line class="cls-4" x1="191.72" y1="24.18" x2="167.79" y2=".25"/><line class="cls-4" x1="179.76" y1=".25" x2="191.72" y2="12.22"/></g><g><line class="cls-4" x1="191.72" y1="90" x2="101.97" y2=".25"/><line class="cls-4" x1="185.74" y1="95.98" x2="95.99" y2="6.23"/><line class="cls-4" x1="173.77" y1="95.98" x2="95.99" y2="18.2"/><line class="cls-4" x1="161.81" y1="95.98" x2="95.99" y2="30.17"/><line class="cls-4" x1="95.99" y1="42.13" x2="149.84" y2="95.98"/><line class="cls-4" x1="137.87" y1="95.98" x2="95.99" y2="54.1"/><line class="cls-4" x1="95.99" y1="66.07" x2="125.91" y2="95.98"/><line class="cls-4" x1="113.94" y1="95.98" x2="95.99" y2="78.03"/><line class="cls-4" x1="101.97" y1="95.98" x2="95.99" y2="90"/><line class="cls-4" x1="113.94" y1=".25" x2="191.72" y2="78.03"/><line class="cls-4" x1="125.91" y1=".25" x2="191.72" y2="66.07"/><line class="cls-4" x1="137.87" y1=".25" x2="191.72" y2="54.1"/><line class="cls-4" x1="191.72" y1="42.13" x2="149.84" y2=".25"/><line class="cls-4" x1="161.81" y1=".25" x2="191.72" y2="30.17"/><line class="cls-4" x1="191.72" y1="18.2" x2="173.77" y2=".25"/><line class="cls-4" x1="185.74" y1=".25" x2="191.72" y2="6.23"/></g></g><g><g><line class="cls-4" x1="96" y1="95.98" x2=".27" y2=".25"/><line class="cls-4" x1="84.03" y1="95.98" x2=".27" y2="12.22"/><line class="cls-4" x1="72.07" y1="95.98" x2=".27" y2="24.18"/><line class="cls-4" x1="60.1" y1="95.98" x2=".27" y2="36.15"/><line class="cls-4" x1=".27" y1="48.12" x2="48.13" y2="95.98"/><line class="cls-4" x1="36.17" y1="95.98" x2=".27" y2="60.08"/><line class="cls-4" x1=".27" y1="72.05" x2="24.2" y2="95.98"/><line class="cls-4" x1="12.24" y1="95.98" x2=".27" y2="84.02"/><line class="cls-4" x1="12.24" y1=".25" x2="96" y2="84.02"/><line class="cls-4" x1="24.2" y1=".25" x2="96" y2="72.05"/><line class="cls-4" x1="36.17" y1=".25" x2="96" y2="60.08"/><line class="cls-4" x1="96" y1="48.12" x2="48.13" y2=".25"/><line class="cls-4" x1="60.1" y1=".25" x2="96" y2="36.15"/><line class="cls-4" x1="96" y1="24.18" x2="72.07" y2=".25"/><line class="cls-4" x1="84.03" y1=".25" x2="96" y2="12.22"/></g><g><line class="cls-4" x1="96" y1="90" x2="6.25" y2=".25"/><line class="cls-4" x1="90.02" y1="95.98" x2=".27" y2="6.23"/><line class="cls-4" x1="78.05" y1="95.98" x2=".27" y2="18.2"/><line class="cls-4" x1="66.08" y1="95.98" x2=".27" y2="30.17"/><line class="cls-4" x1=".27" y1="42.13" x2="54.12" y2="95.98"/><line class="cls-4" x1="42.15" y1="95.98" x2=".27" y2="54.1"/><line class="cls-4" x1=".27" y1="66.07" x2="30.19" y2="95.98"/><line class="cls-4" x1="18.22" y1="95.98" x2=".27" y2="78.03"/><line class="cls-4" x1="6.25" y1="95.98" x2=".27" y2="90"/><line class="cls-4" x1="18.22" y1=".25" x2="96" y2="78.03"/><line class="cls-4" x1="30.19" y1=".25" x2="96" y2="66.07"/><line class="cls-4" x1="42.15" y1=".25" x2="96" y2="54.1"/><line class="cls-4" x1="96" y1="42.13" x2="54.12" y2=".25"/><line class="cls-4" x1="66.08" y1=".25" x2="96" y2="30.17"/><line class="cls-4" x1="96" y1="18.2" x2="78.05" y2=".25"/><line class="cls-4" x1="90.02" y1=".25" x2="96" y2="6.23"/></g></g></g><polyline class="cls-4" points="96 .25 .25 .25 .25 95.98 96 95.98"/><path class="cls-4" d="M60.11,32.3c-4.39-4.98-10.81-8.12-17.96-8.12-13.22,0-23.93,10.72-23.93,23.93"/><polyline class="cls-4" points="95.98 95.98 191.73 95.98 191.73 .25 95.98 .25"/><polyline class="cls-4" points="96 48.12 96 95.98 .25 95.98 .25 48.12 36.17 48.12"/><rect class="cls-4" x="96" y="28.97" width="95.73" height="67.01" transform="translate(287.73 124.95) rotate(180)"/><polygon class="cls-4" points="12.24 84.02 12.24 72.05 24.2 72.05 24.2 60.08 36.17 60.08 36.17 48.12 48.13 48.12 48.13 36.15 60.1 36.15 60.1 28.97 96 28.97 96 48.12 96 60.08 96 72.05 96 84.02 96 95.98 84.03 95.98 72.07 95.98 60.1 95.98 48.13 95.98 36.17 95.98 24.2 95.98 .27 95.98 .27 84.02 12.24 84.02"/><g><path class="cls-4" d="M128.91,42.13c3.3,0,5.98,2.68,5.98,5.98v35.9h-11.97V48.12c0-3.3,2.68-5.98,5.98-5.98Z"/><path class="cls-4" d="M110.96,42.13c3.3,0,5.98,2.68,5.98,5.98v35.9h-11.97V48.12c0-3.3,2.68-5.98,5.98-5.98Z"/><path class="cls-4" d="M176.77,42.13c3.3,0,5.98,2.68,5.98,5.98v35.9h-11.97V48.12c0-3.3,2.68-5.98,5.98-5.98Z"/><path class="cls-4" d="M158.82,42.13c3.3,0,5.98,2.68,5.98,5.98v35.9h-11.97V48.12c0-3.3,2.68-5.98,5.98-5.98Z"/><path class="cls-4" d="M72.07,48.12c8.26,0,14.96,6.7,14.96,14.96v20.94h-29.92v-20.94c0-8.26,6.7-14.96,14.96-14.96Z"/></g><g><line class="cls-4" x1="179.77" y1="28.97" x2="179.77" y2=".75"/><line class="cls-4" x1="167.8" y1="28.97" x2="167.8" y2=".75"/><line class="cls-4" x1="155.83" y1="28.97" x2="155.83" y2=".75"/><line class="cls-4" x1="143.87" y1="28.97" x2="143.87" y2=".75"/><line class="cls-4" x1="131.9" y1="28.97" x2="131.9" y2=".75"/><line class="cls-4" x1="119.93" y1="28.97" x2="119.93" y2=".75"/><line class="cls-4" x1="107.97" y1="28.97" x2="107.97" y2=".75"/><line class="cls-4" x1="185.75" y1="28.97" x2="185.75" y2=".75"/><line class="cls-4" x1="173.78" y1="28.97" x2="173.78" y2=".75"/><line class="cls-4" x1="161.82" y1="28.97" x2="161.82" y2=".75"/><line class="cls-4" x1="149.85" y1="28.97" x2="149.85" y2=".75"/><line class="cls-4" x1="137.88" y1="28.97" x2="137.88" y2=".75"/><line class="cls-4" x1="125.92" y1="28.97" x2="125.92" y2=".75"/><line class="cls-4" x1="113.95" y1="28.97" x2="113.95" y2=".75"/><line class="cls-4" x1="101.98" y1="28.97" x2="101.98" y2=".75"/></g><g><line class="cls-4" x1="84.02" y1="28.97" x2="84.02" y2=".75"/><line class="cls-4" x1="72.06" y1="28.97" x2="72.06" y2=".75"/><line class="cls-4" x1="60.09" y1="28.97" x2="60.09" y2=".75"/><line class="cls-4" x1="48.13" y1="24.94" x2="48.13" y2=".75"/><line class="cls-4" x1="36.16" y1="24.95" x2="36.16" y2=".75"/><line class="cls-4" x1="24.19" y1="32.3" x2="24.19" y2=".75"/><line class="cls-4" x1="12.23" y1="48.12" x2="12.23" y2=".75"/><line class="cls-4" x1="90.01" y1="28.97" x2="90.01" y2=".75"/><line class="cls-4" x1="78.04" y1="28.97" x2="78.04" y2=".75"/><line class="cls-4" x1="66.07" y1="28.97" x2="66.07" y2=".75"/><line class="cls-4" x1="54.11" y1="27.39" x2="54.11" y2=".75"/><line class="cls-4" x1="42.14" y1="24.18" x2="42.14" y2=".75"/><line class="cls-4" x1="30.18" y1="27.4" x2="30.18" y2=".75"/><line class="cls-4" x1="18.21" y1="48.12" x2="18.21" y2=".75"/><line class="cls-4" x1="6.24" y1="48.12" x2="6.24" y2=".75"/></g></g><line class="cls-4" x1="96" y1="28.97" x2="95.98" y2=".25"/></g></g></g></svg>