<svg id="Layer_1" data-name="Layer 1" xmlns="http://www.w3.org/2000/svg" xmlns:xlink="http://www.w3.org/1999/xlink" viewBox="0 0 44.54 89.14"><defs><style>.cls-1,.cls-10,.cls-2,.cls-4{fill:none;}.cls-2{stroke:#1d1d1e;}.cls-10,.cls-2,.cls-4{stroke-miterlimit:10;stroke-width:0.25px;}.cls-3{clip-path:url(#clip-path);}.cls-4{stroke:#000;}.cls-5{clip-path:url(#clip-path-2);}.cls-6{clip-path:url(#clip-path-3);}.cls-7{clip-path:url(#clip-path-4);}.cls-8{clip-path:url(#clip-path-5);}.cls-9{clip-path:url(#clip-path-6);}.cls-10{stroke:#3459f4;}</style><clipPath id="clip-path"><path class="cls-1" d="M22.26,0V11.14h0A13.62,13.62,0,0,1,35.9,24.77V44.52h8.67V0Z"/></clipPath><clipPath id="clip-path-2"><path class="cls-2" d="M22.28,15.68a9.09,9.09,0,0,0-9.09,9.09V44.56H31.36V24.77A9.09,9.09,0,0,0,22.28,15.68Z"/></clipPath><clipPath id="clip-path-3"><path class="cls-1" d="M22.29,15.68a9.09,9.09,0,0,0-9.08,9.09V44.56H31.37V24.77A9.08,9.08,0,0,0,22.29,15.68Z"/></clipPath><clipPath id="clip-path-4"><path class="cls-1" d="M11.32,66.84H0V44.56H8.67V58.78A13.56,13.56,0,0,0,11.32,66.84ZM35.91,44.56V58.78a13.56,13.56,0,0,1-2.65,8.06H44.5V44.56Z"/></clipPath><clipPath id="clip-path-5"><path class="cls-1" d="M44.57,66.92V89.14H33.43L25.07,85V72.14a13.64,13.64,0,0,0,8.16-5.23H44.57ZM19.51,85V72.14a13.62,13.62,0,0,1-8.19-5.27H0V89.14H11.15Z"/></clipPath><clipPath id="clip-path-6"><path class="cls-1" d="M22.26,67.86a9.08,9.08,0,0,1-9.08-9.08v-3a7.17,7.17,0,0,1,3.51-1c2.79,0,2.79,1.39,5.57,1.39s2.79-1.39,5.57-1.39a7.17,7.17,0,0,1,3.52,1v3A9.08,9.08,0,0,1,22.26,67.86Z"/></clipPath></defs><g class="cls-3"><line class="cls-4" x1="44.54" y1="44.55" x2="-0.01"/><line class="cls-4" x1="38.97" y1="44.55" x2="-0.01" y2="5.57"/><line class="cls-4" x1="33.4" y1="44.55" x2="-0.01" y2="11.14"/><line class="cls-4" x1="27.83" y1="44.55" x2="-0.01" y2="16.71"/><line class="cls-4" x1="-0.01" y1="22.28" x2="22.26" y2="44.55"/><line class="cls-4" x1="16.7" y1="44.55" x2="-0.01" y2="27.85"/><line class="cls-4" x1="-0.01" y1="33.42" x2="11.13" y2="44.55"/><line class="cls-4" x1="5.56" y1="44.55" x2="-0.01" y2="38.98"/><line class="cls-4" x1="5.56" x2="44.54" y2="38.98"/><line class="cls-4" x1="11.13" x2="44.54" y2="33.42"/><line class="cls-4" x1="16.7" x2="44.54" y2="27.85"/><line class="cls-4" x1="44.54" y1="22.28" x2="22.26"/><line class="cls-4" x1="27.83" x2="44.54" y2="16.71"/><line class="cls-4" x1="44.54" y1="11.14" x2="33.4"/><line class="cls-4" x1="38.97" x2="44.54" y2="5.57"/><line class="cls-4" x1="44.54" y1="41.77" x2="2.77"/><line class="cls-4" x1="41.76" y1="44.55" x2="-0.01" y2="2.78"/><line class="cls-4" x1="36.19" y1="44.55" x2="-0.01" y2="8.35"/><line class="cls-4" x1="30.62" y1="44.55" x2="-0.01" y2="13.92"/><line class="cls-4" x1="-0.01" y1="19.49" x2="25.05" y2="44.55"/><line class="cls-4" x1="19.48" y1="44.55" x2="-0.01" y2="25.06"/><line class="cls-4" x1="-0.01" y1="30.63" x2="13.91" y2="44.55"/><line class="cls-4" x1="8.34" y1="44.55" x2="-0.01" y2="36.2"/><line class="cls-4" x1="2.77" y1="44.55" x2="-0.01" y2="41.77"/><line class="cls-4" x1="8.34" x2="44.54" y2="36.2"/><line class="cls-4" x1="13.91" x2="44.54" y2="30.63"/><line class="cls-4" x1="19.48" x2="44.54" y2="25.06"/><line class="cls-4" x1="44.54" y1="19.49" x2="25.05"/><line class="cls-4" x1="30.62" x2="44.54" y2="13.92"/><line class="cls-4" x1="44.54" y1="8.35" x2="36.19"/><line class="cls-4" x1="41.76" x2="44.54" y2="2.78"/></g><rect class="cls-2" width="44.55" height="44.55"/><path class="cls-2" d="M22.28,11.14A13.63,13.63,0,0,0,8.65,24.77V44.56H35.9V24.77A13.62,13.62,0,0,0,22.28,11.14Z"/><path class="cls-2" d="M22.28,15.68a9.09,9.09,0,0,0-9.09,9.09V44.56H31.36V24.77A9.09,9.09,0,0,0,22.28,15.68Z"/><g class="cls-5"><g class="cls-6"><line class="cls-2" x1="8.67" y1="44.56" x2="36.21" y2="11.14"/><line class="cls-2" x1="8.67" y1="38.99" x2="36.21" y2="5.57"/><line class="cls-2" x1="8.67" y1="33.42" x2="36.21" y2="0.01"/><line class="cls-2" x1="8.67" y1="27.85" x2="36.21" y2="-5.56"/><line class="cls-2" x1="8.67" y1="61.27" x2="36.21" y2="27.85"/><line class="cls-2" x1="8.67" y1="55.7" x2="36.21" y2="22.28"/><line class="cls-2" x1="8.67" y1="66.84" x2="36.21" y2="33.42"/><line class="cls-2" x1="8.67" y1="72.41" x2="36.21" y2="38.99"/><line class="cls-2" x1="8.67" y1="50.13" x2="36.21" y2="16.71"/><line class="cls-2" x1="36.21" y1="44.56" x2="8.67" y2="11.14"/><line class="cls-2" x1="36.21" y1="38.99" x2="8.67" y2="5.57"/><line class="cls-2" x1="36.21" y1="33.42" x2="8.67" y2="0.01"/><line class="cls-2" x1="36.21" y1="27.85" x2="8.67" y2="-5.56"/><line class="cls-2" x1="36.21" y1="61.27" x2="8.67" y2="27.85"/><line class="cls-2" x1="36.21" y1="55.7" x2="8.67" y2="22.28"/><line class="cls-2" x1="36.21" y1="66.84" x2="8.67" y2="33.42"/><line class="cls-2" x1="36.21" y1="72.41" x2="8.67" y2="38.99"/><line class="cls-2" x1="36.21" y1="50.13" x2="8.67" y2="16.71"/></g></g><path class="cls-2" d="M22.28,15.68a9.09,9.09,0,0,0-9.09,9.09V44.56H31.36V24.77A9.09,9.09,0,0,0,22.28,15.68Z"/><line class="cls-2" x1="22.28" y1="11.14" x2="22.28" y2="0.12"/><g class="cls-7"><line class="cls-4" x1="44.54" y1="89.11" x2="-0.01" y2="44.55"/><line class="cls-4" x1="38.97" y1="89.11" x2="-0.01" y2="50.12"/><line class="cls-4" x1="33.4" y1="89.11" x2="-0.01" y2="55.69"/><line class="cls-4" x1="27.83" y1="89.11" x2="-0.01" y2="61.26"/><line class="cls-4" x1="-0.01" y1="66.83" x2="22.26" y2="89.11"/><line class="cls-4" x1="16.7" y1="89.11" x2="-0.01" y2="72.4"/><line class="cls-4" x1="-0.01" y1="77.97" x2="11.13" y2="89.11"/><line class="cls-4" x1="5.56" y1="89.11" x2="-0.01" y2="83.54"/><line class="cls-4" x1="5.56" y1="44.55" x2="44.54" y2="83.54"/><line class="cls-4" x1="11.13" y1="44.55" x2="44.54" y2="77.97"/><line class="cls-4" x1="16.7" y1="44.55" x2="44.54" y2="72.4"/><line class="cls-4" x1="44.54" y1="66.83" x2="22.26" y2="44.55"/><line class="cls-4" x1="27.83" y1="44.55" x2="44.54" y2="61.26"/><line class="cls-4" x1="44.54" y1="55.69" x2="33.4" y2="44.55"/><line class="cls-4" x1="38.97" y1="44.55" x2="44.54" y2="50.12"/><line class="cls-4" x1="44.54" y1="86.32" x2="2.77" y2="44.55"/><line class="cls-4" x1="41.76" y1="89.11" x2="-0.01" y2="47.34"/><line class="cls-4" x1="36.19" y1="89.11" x2="-0.01" y2="52.91"/><line class="cls-4" x1="30.62" y1="89.11" x2="-0.01" y2="58.48"/><line class="cls-4" x1="-0.01" y1="64.05" x2="25.05" y2="89.11"/><line class="cls-4" x1="19.48" y1="89.11" x2="-0.01" y2="69.62"/><line class="cls-4" x1="-0.01" y1="75.18" x2="13.91" y2="89.11"/><line class="cls-4" x1="8.34" y1="89.11" x2="-0.01" y2="80.75"/><line class="cls-4" x1="2.77" y1="89.11" x2="-0.01" y2="86.32"/><line class="cls-4" x1="8.34" y1="44.55" x2="44.54" y2="80.75"/><line class="cls-4" x1="13.91" y1="44.55" x2="44.54" y2="75.18"/><line class="cls-4" x1="19.48" y1="44.55" x2="44.54" y2="69.62"/><line class="cls-4" x1="44.54" y1="64.05" x2="25.05" y2="44.55"/><line class="cls-4" x1="30.62" y1="44.55" x2="44.54" y2="58.48"/><line class="cls-4" x1="44.54" y1="52.91" x2="36.19" y2="44.55"/><line class="cls-4" x1="41.76" y1="44.55" x2="44.54" y2="47.34"/></g><g class="cls-8"><line class="cls-4" x1="44.54" y1="44.58" x2="-0.01" y2="44.58"/><line class="cls-4" x1="44.54" y1="50.15" x2="-0.01" y2="50.15"/><line class="cls-4" x1="44.54" y1="55.72" x2="-0.01" y2="55.72"/><line class="cls-4" x1="44.54" y1="61.29" x2="-0.01" y2="61.29"/><line class="cls-4" x1="44.54" y1="66.86" x2="-0.01" y2="66.86"/><line class="cls-4" x1="44.54" y1="72.43" x2="-0.01" y2="72.43"/><line class="cls-4" x1="44.54" y1="78" x2="-0.01" y2="78"/><line class="cls-4" x1="44.54" y1="83.57" x2="-0.01" y2="83.57"/><line class="cls-4" x1="44.54" y1="89.14" x2="-0.01" y2="89.14"/><line class="cls-4" x1="-0.01" y1="44.58" x2="-0.01" y2="89.14"/><line class="cls-4" x1="5.56" y1="44.58" x2="5.56" y2="89.14"/><line class="cls-4" x1="11.13" y1="44.58" x2="11.13" y2="89.14"/><line class="cls-4" x1="16.69" y1="44.58" x2="16.69" y2="89.14"/><line class="cls-4" x1="22.26" y1="44.58" x2="22.26" y2="89.14"/><line class="cls-4" x1="27.83" y1="44.58" x2="27.83" y2="89.14"/><line class="cls-4" x1="33.4" y1="44.58" x2="33.4" y2="89.14"/><line class="cls-4" x1="38.97" y1="44.58" x2="38.97" y2="89.14"/><line class="cls-4" x1="44.54" y1="44.58" x2="44.54" y2="89.14"/></g><g class="cls-9"><path class="cls-10" d="M44.59,83.89c-2.78,0-2.78-1.4-5.57-1.4s-2.78,1.4-5.57,1.4-2.78-1.4-5.56-1.4-2.79,1.4-5.57,1.4-2.79-1.4-5.57-1.4-2.79,1.4-5.57,1.4-2.79-1.4-5.57-1.4S2.82,83.89,0,83.89"/><path class="cls-10" d="M0,86.41c2.78,0,2.78-1.4,5.57-1.4s2.78,1.4,5.57,1.4S14,85,16.75,85s2.78,1.4,5.57,1.4S25.1,85,27.89,85s2.78,1.4,5.56,1.4S36.24,85,39,85s2.79,1.4,5.57,1.4"/><path class="cls-10" d="M0,88.93c2.78,0,2.78-1.4,5.57-1.4s2.78,1.4,5.57,1.4,2.78-1.4,5.57-1.4,2.78,1.4,5.57,1.4,2.78-1.4,5.57-1.4,2.78,1.4,5.56,1.4,2.79-1.4,5.57-1.4,2.79,1.4,5.57,1.4"/><path class="cls-10" d="M0,81.37c2.78,0,2.78-1.4,5.57-1.4s2.78,1.4,5.57,1.4S14,80,16.75,80s2.78,1.4,5.57,1.4S25.1,80,27.89,80s2.78,1.4,5.56,1.4S36.24,80,39,80s2.79,1.4,5.57,1.4"/><path class="cls-10" d="M44.59,78.85c-2.78,0-2.78-1.4-5.57-1.4s-2.78,1.4-5.57,1.4-2.78-1.4-5.56-1.4-2.79,1.4-5.57,1.4-2.79-1.4-5.57-1.4-2.79,1.4-5.57,1.4-2.79-1.4-5.57-1.4S2.82,78.85,0,78.85"/><path class="cls-10" d="M44.59,73.8c-2.78,0-2.78-1.39-5.57-1.39s-2.78,1.39-5.57,1.39-2.78-1.39-5.56-1.39S25.1,73.8,22.32,73.8s-2.79-1.39-5.57-1.39S14,73.8,11.18,73.8s-2.79-1.39-5.57-1.39S2.82,73.8,0,73.8"/><path class="cls-10" d="M0,76.32c2.78,0,2.78-1.39,5.57-1.39s2.78,1.39,5.57,1.39,2.78-1.39,5.57-1.39,2.78,1.39,5.57,1.39,2.78-1.39,5.57-1.39,2.78,1.39,5.56,1.39,2.79-1.39,5.57-1.39,2.79,1.39,5.57,1.39"/><path class="cls-10" d="M0,71.28c2.78,0,2.78-1.39,5.57-1.39s2.78,1.39,5.57,1.39,2.78-1.39,5.57-1.39,2.78,1.39,5.57,1.39,2.78-1.39,5.57-1.39,2.78,1.39,5.56,1.39,2.79-1.39,5.57-1.39,2.79,1.39,5.57,1.39"/><path class="cls-10" d="M44.59,68.76c-2.78,0-2.78-1.39-5.57-1.39s-2.78,1.39-5.57,1.39-2.78-1.39-5.56-1.39-2.79,1.39-5.57,1.39-2.79-1.39-5.57-1.39S14,68.76,11.18,68.76s-2.79-1.39-5.57-1.39S2.82,68.76,0,68.76"/><path class="cls-10" d="M44.59,66.24c-2.78,0-2.78-1.39-5.57-1.39s-2.78,1.39-5.57,1.39-2.78-1.39-5.56-1.39-2.79,1.39-5.57,1.39-2.79-1.39-5.57-1.39S14,66.24,11.18,66.24s-2.79-1.39-5.57-1.39S2.82,66.24,0,66.24"/><path class="cls-10" d="M0,63.72c2.78,0,2.78-1.39,5.57-1.39s2.78,1.39,5.57,1.39,2.78-1.39,5.57-1.39,2.78,1.39,5.57,1.39,2.78-1.39,5.57-1.39,2.78,1.39,5.56,1.39,2.79-1.39,5.57-1.39,2.79,1.39,5.57,1.39"/><path class="cls-10" d="M44.59,61.2c-2.78,0-2.78-1.39-5.57-1.39s-2.78,1.39-5.57,1.39-2.78-1.39-5.56-1.39S25.1,61.2,22.32,61.2s-2.79-1.39-5.57-1.39S14,61.2,11.18,61.2s-2.79-1.39-5.57-1.39S2.82,61.2,0,61.2"/><path class="cls-10" d="M44.59,56.16c-2.78,0-2.78-1.39-5.57-1.39s-2.78,1.39-5.57,1.39-2.78-1.39-5.56-1.39-2.79,1.39-5.57,1.39-2.79-1.39-5.57-1.39S14,56.16,11.18,56.16s-2.79-1.39-5.57-1.39S2.82,56.16,0,56.16"/><path class="cls-10" d="M0,58.68c2.78,0,2.78-1.39,5.57-1.39s2.78,1.39,5.57,1.39,2.78-1.39,5.57-1.39,2.78,1.39,5.57,1.39,2.78-1.39,5.57-1.39,2.78,1.39,5.56,1.39,2.79-1.39,5.57-1.39,2.79,1.39,5.57,1.39"/><path class="cls-10" d="M0,53.64c2.78,0,2.78-1.39,5.57-1.39s2.78,1.39,5.57,1.39,2.78-1.39,5.57-1.39,2.78,1.39,5.57,1.39,2.78-1.39,5.57-1.39,2.78,1.39,5.56,1.39,2.79-1.39,5.57-1.39,2.79,1.39,5.57,1.39"/><path class="cls-10" d="M44.59,51.12c-2.78,0-2.78-1.39-5.57-1.39s-2.78,1.39-5.57,1.39-2.78-1.39-5.56-1.39-2.79,1.39-5.57,1.39-2.79-1.39-5.57-1.39S14,51.12,11.18,51.12s-2.79-1.39-5.57-1.39S2.82,51.12,0,51.12"/><path class="cls-10" d="M44.59,48.6c-2.78,0-2.78-1.39-5.57-1.39s-2.78,1.39-5.57,1.39-2.78-1.39-5.56-1.39S25.1,48.6,22.32,48.6s-2.79-1.39-5.57-1.39S14,48.6,11.18,48.6s-2.79-1.39-5.57-1.39S2.82,48.6,0,48.6"/><path class="cls-10" d="M44.59,46.08c-2.78,0-2.78-1.39-5.57-1.39s-2.78,1.39-5.57,1.39-2.78-1.39-5.56-1.39-2.79,1.39-5.57,1.39-2.79-1.39-5.57-1.39S14,46.08,11.18,46.08s-2.79-1.39-5.57-1.39S2.82,46.08,0,46.08"/></g><rect class="cls-2" x="0.01" y="44.56" width="44.55" height="44.55" transform="translate(44.58 133.67) rotate(180)"/><polyline class="cls-2" points="33.24 66.89 44.57 66.89 44.57 89.11 0.01 89.11 0.01 66.83 11.32 66.84"/><path class="cls-2" d="M22.29,67.86a9.07,9.07,0,0,1-9.08-9.08V49.1H31.37v9.68A9.07,9.07,0,0,1,22.29,67.86Z"/><path class="cls-2" d="M22.29,67.86a9.07,9.07,0,0,1-9.08-9.08v-3a7.1,7.1,0,0,1,3.51-1c2.79,0,2.79,1.39,5.57,1.39s2.78-1.39,5.57-1.39a7.1,7.1,0,0,1,3.51,1v3A9.07,9.07,0,0,1,22.29,67.86Z"/><path class="cls-2" d="M35.91,58.78V44.56H8.67V58.78A13.63,13.63,0,0,0,19.51,72.12V84.93l-8.36,4.18H33.43l-8.36-4.18V72.12A13.63,13.63,0,0,0,35.91,58.78Z"/></svg>