<svg
   width="224.81592"
   height="338.216"
   xml:space="preserve"
   fill-rule="evenodd"
   stroke-linejoin="round"
   stroke-linecap="round"
   version="1.1"
   id="svg650"
   sodipodi:docname="svg.svg"
   inkscape:version="1.1.1 (c3084ef, 2021-09-22)"
   xmlns:inkscape="http://www.inkscape.org/namespaces/inkscape"
   xmlns:sodipodi="http://sodipodi.sourceforge.net/DTD/sodipodi-0.dtd"
   xmlns="http://www.w3.org/2000/svg"
   xmlns:svg="http://www.w3.org/2000/svg"><sodipodi:namedview
   id="namedview652"
   pagecolor="#ffffff"
   bordercolor="#666666"
   borderopacity="1.0"
   inkscape:pageshadow="2"
   inkscape:pageopacity="0.0"
   inkscape:pagecheckerboard="0"
   showgrid="false"
   inkscape:zoom="2.9160403"
   inkscape:cx="86.932955"
   inkscape:cy="167.86462"
   inkscape:window-width="3440"
   inkscape:window-height="1387"
   inkscape:window-x="0"
   inkscape:window-y="25"
   inkscape:window-maximized="1"
   inkscape:current-layer="svg_673" />
 <defs
   id="defs8"><clipPath
     id="clipId0">
   <path
   id="svg_1"
   d="M 0,600 H 800 V 0 H 0 Z" />
  </clipPath><clipPath
     id="clipId1">
   <path
   id="svg_2"
   d="M -68,595 H 627 V 1 H -68 Z" />
  </clipPath><clipPath
     id="clipId2">
   <path
   id="svg_3"
   d="M 0,600 H 800 V 0 H 0 Z" />
  </clipPath></defs>
 <g
   id="g648"
   transform="translate(-283.7851,-137.23199)">
  <title
   id="title10">Layer 1</title>
  <g
   id="svg_4"
   stroke-width="0.1"
   stroke="#000000"
   fill="none"
   clip-path="url(#clipId0)" />
  <g
   id="svg_5"
   stroke-width="0.1"
   stroke="#000000"
   fill="none"
   clip-path="url(#clipId1)" />
  <g
   id="svg_520"
   stroke-width="0.25"
   stroke="#000000"
   fill="none"
   clip-path="url(#clipId1)">
   <polyline
   id="svg_521"
   points="284.4182014465332,463.5360107421875 284.4182014465332,137.35699462890625 " />
   <polyline
   id="svg_522"
   points="291.53110122680664,463.5360107421875 291.53110122680664,457.43902587890625 " />
   <polyline
   id="svg_523"
   points="357.3769989013672,463.5360107421875 357.3769989013672,457.43902587890625 " />
   <polyline
   id="svg_524"
   points="365.0989990234375,463.5360107421875 365.0989990234375,457.43902587890625 " />
   <polyline
   id="svg_525"
   points="287.4665985107422,457.43902587890625 287.4665985107422,422.8900146484375 " />
   <polyline
   id="svg_526"
   points="296.61180114746094,422.8900146484375 296.61180114746094,418.82598876953125 " />
   <polyline
   id="svg_527"
   points="357.3769989013672,422.8900146484375 357.3769989013672,418.82598876953125 " />
   <polyline
   id="svg_528"
   points="375.66699981689453,422.8900146484375 375.66699981689453,418.82598876953125 " />
   <polyline
   id="svg_529"
   points="288.4827003479004,418.82598876953125 288.4827003479004,333.47100830078125 " />
   <polyline
   id="svg_530"
   points="363.677001953125,418.82598876953125 363.677001953125,333.47100830078125 " />
   <polyline
   id="svg_531"
   points="361.6439971923828,333.47100830078125 361.6439971923828,330.4219970703125 " />
   <polyline
   id="svg_532"
   points="363.677001953125,330.4219970703125 363.677001953125,324.32501220703125 " />
   <polyline
   id="svg_533"
   points="363.677001953125,310.1000061035156 363.677001953125,289.7770080566406 " />
   <polyline
   id="svg_534"
   points="366.7249984741211,418.82598876953125 366.7249984741211,333.47100830078125 " />
   <polyline
   id="svg_535"
   points="368.7570037841797,333.47100830078125 368.7570037841797,330.4219970703125 " />
   <polyline
   id="svg_536"
   points="382.9830017089844,333.47100830078125 382.9830017089844,330.4219970703125 " />
   <polyline
   id="svg_537"
   points="366.7249984741211,330.4219970703125 366.7249984741211,324.32501220703125 " />
   <polyline
   id="svg_538"
   points="366.7249984741211,310.1000061035156 366.7249984741211,286.7279968261719 " />
   <polyline
   id="svg_539"
   points="419.5639953613281,418.82598876953125 419.5639953613281,333.47100830078125 " />
   <polyline
   id="svg_540"
   points="422.61199951171875,418.82598876953125 422.61199951171875,330.4219970703125 " />
   <polyline
   id="svg_541"
   points="288.4827003479004,330.4219970703125 288.4827003479004,289.7770080566406 " />
   <polyline
   id="svg_542"
   points="302.7085990905762,330.4219970703125 302.7085990905762,289.7770080566406 " />
   <polyline
   id="svg_543"
   points="302.7085990905762,286.7279968261719 302.7085990905762,271.4859924316406 " />
   <polyline
   id="svg_544"
   points="342.3377990722656,345.66400146484375 342.3377990722656,333.47100830078125 " />
   <polyline
   id="svg_545"
   points="342.3377990722656,330.4219970703125 342.3377990722656,324.32501220703125 " />
   
   
   <polyline
   id="svg_548"
   points="342.3377990722656,310.1000061035156 342.3377990722656,289.7770080566406 " />
   <polyline
   id="svg_549"
   points="342.3377990722656,286.7279968261719 342.3377990722656,280.1239929199219 " />
   
   
   <polyline
   id="svg_552"
   points="342.3377990722656,265.89801025390625 342.3377990722656,259.2929992675781 " />
   <polyline
   id="svg_553"
   points="345.3861999511719,345.66400146484375 345.3861999511719,333.47100830078125 " />
   <polyline
   id="svg_554"
   points="347.4185028076172,333.47100830078125 347.4185028076172,330.4219970703125 " />
   <polyline
   id="svg_555"
   points="345.3861999511719,330.4219970703125 345.3861999511719,324.32501220703125 " />
   <polyline
   id="svg_556"
   points="345.3861999511719,310.1000061035156 345.3861999511719,289.7770080566406 " />
   <polyline
   id="svg_557"
   points="345.3861999511719,286.7279968261719 345.3861999511719,280.1239929199219 " />
   <polyline
   id="svg_558"
   points="345.3861999511719,265.89801025390625 345.3861999511719,259.2929992675781 " />
   <polyline
   id="svg_559"
   points="288.4827003479004,286.7279968261719 288.4827003479004,259.2929992675781 " />
   <polyline
   id="svg_560"
   points="288.4827003479004,256.2439880371094 288.4827003479004,168.85699462890625 " />
   <polyline
   id="svg_561"
   points="301.69250106811523,256.2439880371094 301.69250106811523,181.51400756835938 " />
   <polyline
   id="svg_562"
   points="372.8219985961914,259.2929992675781 372.8219985961914,233.88900756835938 " />
   <polyline
   id="svg_563"
   points="372.8219985961914,219.66400146484375 372.8219985961914,194.25999450683594 " />
   <polyline
   id="svg_564"
   points="399.2409973144531,263.35699462890625 399.2409973144531,253.19601440429688 " />
   <polyline
   id="svg_565"
   points="399.2409973144531,238.97000122070312 399.2409973144531,194.25999450683594 " />
   <polyline
   id="svg_566"
   points="402.2899932861328,256.2439880371094 402.2899932861328,253.19601440429688 " />
   <polyline
   id="svg_567"
   points="402.2899932861328,238.97000122070312 402.2899932861328,235.9219970703125 " />
   <polyline
   id="svg_568"
   points="402.2899932861328,232.87298583984375 402.2899932861328,194.25999450683594 " />
   <polyline
   id="svg_569"
   points="412.4510040283203,235.9219970703125 412.4510040283203,232.87298583984375 " />
   <polyline
   id="svg_570"
   points="468.33799743652344,256.2439880371094 468.33799743652344,194.25999450683594 " />
   <polyline
   id="svg_571"
   points="472.4029998779297,255.22799682617188 472.4029998779297,184.0989990234375 " />
   <polyline
   id="svg_572"
   points="493.74200439453125,267.4219970703125 493.74200439453125,259.2929992675781 " />
   <polyline
   id="svg_573"
   points="493.74200439453125,255.22799682617188 493.74200439453125,184.0989990234375 " />
  </g>
  <g
   id="svg_673"
   stroke-width="0.25"
   stroke="#000000"
   fill="none"
   clip-path="url(#clipId1)">
   <polyline
   id="svg_674"
   points="373.83799743652344,190.1959991455078 373.83799743652344,187.14700317382812 " />
   <polyline
   id="svg_675"
   points="373.83799743652344,162.75999450683594 373.83799743652344,152.5989990234375 " />
   <polyline
   id="svg_676"
   points="369.7730026245117,256.2439880371094 369.7730026245117,233.88900756835938 " />
   <polyline
   id="svg_677"
   points="369.7730026245117,219.66400146484375 369.7730026245117,187.14700317382812 " />
   <polyline
   id="svg_678"
   points="369.7730026245117,162.75999450683594 369.7730026245117,158.6959991455078 " />
   <polyline
   id="svg_679"
   points="507.9679870605469,463.5360107421875 507.9679870605469,190.1959991455078 " />
   <polyline
   id="svg_680"
   points="500.85499572753906,463.5360107421875 500.85499572753906,457.43902587890625 " />
   <polyline
   id="svg_681"
   points="429.7250061035156,463.5360107421875 429.7250061035156,457.43902587890625 " />
   <polyline
   id="svg_682"
   points="422.0030059814453,463.5360107421875 422.0030059814453,457.43902587890625 " />
   <polyline
   id="svg_683"
   points="504.91900634765625,457.43902587890625 504.91900634765625,422.8900146484375 " />
   <polyline
   id="svg_684"
   points="491.70899963378906,422.8900146484375 491.70899963378906,418.82598876953125 " />
   <polyline
   id="svg_685"
   points="437.85400390625,422.8900146484375 437.85400390625,418.82598876953125 " />
   <polyline
   id="svg_686"
   points="412.2480010986328,422.8900146484375 412.2480010986328,418.82598876953125 " />
   <polyline
   id="svg_687"
   points="503.9029998779297,418.82598876953125 503.9029998779297,299.93798828125 " />
   <polyline
   id="svg_688"
   points="499.83900451660156,362.93798828125 499.83900451660156,355.82598876953125 " />
   <polyline
   id="svg_689"
   points="494.75799560546875,367.00299072265625 494.75799560546875,363.9549865722656 " />
   <polyline
   id="svg_690"
   points="494.75799560546875,354.8089904785156 494.75799560546875,351.760986328125 " />
   <polyline
   id="svg_691"
   points="489.677001953125,372.0840148925781 489.677001953125,346.67999267578125 " />
   <polyline
   id="svg_692"
   points="491.70899963378906,365.47900390625 491.70899963378906,353.2850036621094 " />
   <polyline
   id="svg_693"
   points="500.85499572753906,296.8900146484375 500.85499572753906,267.4219970703125 " />
   <polyline
   id="svg_694"
   points="284.4182014465332,463.5360107421875 291.53110122680664,463.5360107421875 " />
   <polyline
   id="svg_695"
   points="357.3769989013672,463.5360107421875 365.0989990234375,463.5360107421875 " />
   <polyline
   id="svg_696"
   points="422.0030059814453,463.5360107421875 429.7250061035156,463.5360107421875 " />
   <polyline
   id="svg_697"
   points="500.85499572753906,463.5360107421875 507.9679870605469,463.5360107421875 " />
   <polyline
   id="svg_698"
   points="287.4665985107422,457.43902587890625 291.53110122680664,457.43902587890625 " />
   <polyline
   id="svg_699"
   points="357.3769989013672,457.43902587890625 365.0989990234375,457.43902587890625 " />
   <polyline
   id="svg_700"
   points="422.0030059814453,457.43902587890625 429.7250061035156,457.43902587890625 " />
   <polyline
   id="svg_701"
   points="425.2539978027344,456.6259765625 427.28700256347656,456.6259765625 " />
   <polyline
   id="svg_702"
   points="425.45799255371094,455 427.08299255371094,455 " />
   <polyline
   id="svg_703"
   points="426.27000427246094,454.18701171875 427.08299255371094,454.18701171875 " />
   <polyline
   id="svg_704"
   points="500.85499572753906,457.43902587890625 504.91900634765625,457.43902587890625 " />
   <polyline
   id="svg_705"
   points="287.4665985107422,422.8900146484375 296.61180114746094,422.8900146484375 " />
   <polyline
   id="svg_706"
   points="357.3769989013672,422.8900146484375 375.66699981689453,422.8900146484375 " />
   <polyline
   id="svg_707"
   points="412.2480010986328,422.8900146484375 437.85400390625,422.8900146484375 " />
   <polyline
   id="svg_708"
   points="425.2539978027344,423.7030029296875 427.28700256347656,423.7030029296875 " />
   <polyline
   id="svg_709"
   points="425.45799255371094,425.3290100097656 427.08299255371094,425.3290100097656 " />
   <polyline
   id="svg_710"
   points="425.45799255371094,426.1419982910156 426.27000427246094,426.1419982910156 " />
   <polyline
   id="svg_711"
   points="491.70899963378906,422.8900146484375 504.91900634765625,422.8900146484375 " />
   <polyline
   id="svg_712"
   points="493.74200439453125,267.4219970703125 500.85499572753906,267.4219970703125 " />
   <polyline
   id="svg_713"
   points="373.83799743652344,190.1959991455078 377.9029998779297,190.1959991455078 " />
   <polyline
   id="svg_714"
   points="394.16099548339844,190.1959991455078 416.51600646972656,190.1959991455078 " />
   <polyline
   id="svg_715"
   stroke-dasharray="0.254033, 0.127017"
   points="373.83799743652344,187.14700317382812 468.33799743652344,187.14700317382812 " />
   <polyline
   id="svg_716"
   points="447,190.1959991455078 468.33799743652344,190.1959991455078 " />
   <polyline
   id="svg_717"
   points="468.33799743652344,180.03399658203125 474.9429931640625,180.03399658203125 " />
   <polyline
   id="svg_718"
   points="491.2010040283203,180.03399658203125 505.00201416015625,180.03399658203125 " />
   <polyline
   id="svg_719"
   stroke-dasharray="0.254033, 0.127017"
   points="468.33799743652344,176.98599243164062 505.00201416015625,176.98599243164062 " />
   <polyline
   id="svg_720"
   points="288.4827003479004,152.5989990234375 373.83799743652344,152.5989990234375 " />
   
   <polyline
   id="svg_722"
   points="369.7730026245117,162.75999450683594 373.83799743652344,162.75999450683594 " />
   <polyline
   id="svg_723"
   points="369.7730026245117,187.14700317382812 373.83799743652344,187.14700317382812 " />
   <polyline
   id="svg_724"
   points="298.644100189209,158.6959991455078 369.7730026245117,158.6959991455078 " />
   <polyline
   id="svg_725"
   points="334.6719970703125,203.40499877929688 352.96199798583984,203.40499877929688 " />
   <polyline
   id="svg_726"
   points="310.2846984863281,172.92100524902344 334.6719970703125,172.92100524902344 " />
   <polyline
   id="svg_727"
   points="288.4827003479004,256.2439880371094 369.7730026245117,256.2439880371094 " />
   <polyline
   id="svg_728"
   points="402.2899932861328,256.2439880371094 468.33799743652344,256.2439880371094 " />
   <polyline
   id="svg_729"
   points="399.2409973144531,253.19601440429688 402.2899932861328,253.19601440429688 " />
   <polyline
   id="svg_730"
   points="399.2409973144531,238.97000122070312 402.2899932861328,238.97000122070312 " />
   <polyline
   id="svg_731"
   points="402.2899932861328,235.9219970703125 412.4510040283203,235.9219970703125 " />
   <polyline
   id="svg_732"
   points="402.2899932861328,232.87298583984375 412.4510040283203,232.87298583984375 " />
   <polyline
   id="svg_733"
   points="472.4029998779297,255.22799682617188 493.74200439453125,255.22799682617188 " />
   <polyline
   id="svg_734"
   points="372.8219985961914,194.25999450683594 377.9029998779297,194.25999450683594 " />
   <polyline
   id="svg_735"
   points="394.16099548339844,194.25999450683594 399.2409973144531,194.25999450683594 " />
   <polyline
   id="svg_736"
   points="402.2899932861328,194.25999450683594 416.51600646972656,194.25999450683594 " />
   <polyline
   id="svg_737"
   points="447,194.25999450683594 468.33799743652344,194.25999450683594 " />
   <polyline
   id="svg_738"
   points="472.4029998779297,184.0989990234375 474.9429931640625,184.0989990234375 " />
   <polyline
   id="svg_739"
   points="491.2010040283203,184.0989990234375 493.74200439453125,184.0989990234375 " />
   <polyline
   id="svg_740"
   points="472.4029998779297,210.51800537109375 493.74200439453125,210.51800537109375 " />
   <polyline
   id="svg_741"
   points="472.4029998779297,216.10699462890625 493.74200439453125,216.10699462890625 " />
   <polyline
   id="svg_742"
   points="472.4029998779297,221.69601440429688 493.74200439453125,221.69601440429688 " />
   <polyline
   id="svg_743"
   points="472.4029998779297,227.28500366210938 493.74200439453125,227.28500366210938 " />
   <polyline
   id="svg_744"
   points="472.4029998779297,232.87298583984375 493.74200439453125,232.87298583984375 " />
   <polyline
   id="svg_745"
   points="472.4029998779297,238.46200561523438 493.74200439453125,238.46200561523438 " />
   <polyline
   id="svg_746"
   points="472.4029998779297,244.05099487304688 493.74200439453125,244.05099487304688 " />
   <polyline
   id="svg_747"
   points="472.4029998779297,249.6400146484375 493.74200439453125,249.6400146484375 " />
   <polyline
   id="svg_748"
   points="288.4827003479004,259.2929992675781 342.3377990722656,259.2929992675781 " />
   <polyline
   id="svg_749"
   points="345.3861999511719,259.2929992675781 372.8219985961914,259.2929992675781 " />
   <polyline
   id="svg_750"
   points="402.2899932861328,259.2929992675781 493.74200439453125,259.2929992675781 " />
   <polyline
   id="svg_751"
   points="409.4029998779297,279.6159973144531 439.8869934082031,279.6159973144531 " />
   <polyline
   id="svg_752"
   points="409.4029998779297,278.5989990234375 439.8869934082031,278.5989990234375 " />
   <polyline
   id="svg_753"
   points="399.2409973144531,263.35699462890625 402.2899932861328,263.35699462890625 " />
   <polyline
   id="svg_754"
   points="493.74200439453125,299.93798828125 503.9029998779297,299.93798828125 " />
   <polyline
   id="svg_755"
   points="493.74200439453125,296.8900146484375 500.85499572753906,296.8900146484375 " />
   <polyline
   id="svg_756"
   points="288.4827003479004,286.7279968261719 342.3377990722656,286.7279968261719 " />
   <polyline
   id="svg_757"
   points="288.4827003479004,271.4859924316406 302.7085990905762,271.4859924316406 " />
   
   <polyline
   id="svg_759"
   points="326.33499908447266,282.66400146484375 342.3377990722656,282.66400146484375 " />
   
   <polyline
   id="svg_761"
   points="325.81629943847656,278.5989990234375 342.3377990722656,278.5989990234375 " />
   
   
   
   
   <polyline
   id="svg_766"
   points="345.3861999511719,286.7279968261719 366.7249984741211,286.7279968261719 " />
   <polyline
   id="svg_767"
   points="288.4827003479004,289.7770080566406 342.3377990722656,289.7770080566406 " />
   <polyline
   id="svg_768"
   points="345.3861999511719,289.7770080566406 363.677001953125,289.7770080566406 " />
   <polyline
   id="svg_769"
   points="345.3861999511719,301.9700012207031 363.677001953125,301.9700012207031 " />
   <polyline
   id="svg_770"
   points="345.3861999511719,301.4620056152344 363.677001953125,301.4620056152344 " />
   <polyline
   id="svg_771"
   points="288.4827003479004,330.4219970703125 342.3377990722656,330.4219970703125 " />
   <polyline
   id="svg_772"
   points="289.90530014038086,307.6610107421875 289.90530014038086,326.3580017089844 289.90530014038086,326.3580017089844 289.91510009765625,326.5570068359375 289.9444007873535,326.7539978027344 289.99280166625977,326.947998046875 290.060001373291,327.135009765625 290.14530181884766,327.3160095214844 290.24779891967773,327.48699951171875 290.3666000366211,327.6470031738281 290.5005989074707,327.7950134277344 290.64830017089844,327.9289855957031 290.80849838256836,328.0469970703125 290.97959899902344,328.1499938964844 291.1599006652832,328.2349853515625 291.3476982116699,328.302001953125 291.54109954833984,328.35101318359375 291.73839950561523,328.3800048828125 291.9375991821289,328.3900146484375 299.25379943847656,328.3900146484375 299.25379943847656,328.3900146484375 299.45299911499023,328.3800048828125 299.6501998901367,328.35101318359375 299.84370040893555,328.302001953125 300.03150177001953,328.2349853515625 300.21179962158203,328.1499938964844 300.3828010559082,328.0469970703125 300.5429992675781,327.9289855957031 300.69079971313477,327.7950134277344 300.82469940185547,327.6470031738281 300.9435005187988,327.48699951171875 301.0461006164551,327.3160095214844 301.1313018798828,327.135009765625 301.19850158691406,326.947998046875 301.2470016479492,326.7539978027344 301.2761993408203,326.5570068359375 301.2859992980957,326.3580017089844 301.2859992980957,307.6610107421875 301.2859992980957,307.6610107421875 301.2764015197754,307.3299865722656 301.247501373291,307 301.19960021972656,306.6730041503906 301.1325988769531,306.3489990234375 301.04700088500977,306.02899169921875 300.9429016113281,305.7149963378906 300.8205986022949,305.4070129394531 300.68080139160156,305.10699462890625 300.5237007141113,304.8160095214844 300.3498992919922,304.53399658203125 300.1599998474121,304.26300048828125 299.9547004699707,304.00299072265625 299.7346992492676,303.7560119628906 299.5005989074707,303.5220031738281 299.2533988952637,303.302001953125 298.9936981201172,303.09600830078125 298.722599029541,302.9070129394531 298.44079971313477,302.7330017089844 298.1495018005371,302.57598876953125 297.8494987487793,302.4360046386719 297.5419006347656,302.3139953613281 297.22769927978516,302.2099914550781 296.9080009460449,302.1239929199219 296.58380126953125,302.0570068359375 296.2563018798828,302.0090026855469 295.92649841308594,301.9800109863281 295.59569931030273,301.9700012207031 295.2648010253906,301.9800109863281 294.9351005554199,302.0090026855469 294.6076011657715,302.0570068359375 294.2834014892578,302.1239929199219 293.9636993408203,302.2099914550781 293.6495018005371,302.3139953613281 293.34180068969727,302.4360046386719 293.0418014526367,302.57598876953125 292.7504997253418,302.7330017089844 292.46879959106445,302.9070129394531 292.1976013183594,303.09600830078125 291.9379997253418,303.302001953125 291.69070053100586,303.5220031738281 291.4566993713379,303.7560119628906 291.23659896850586,304.00299072265625 291.03129959106445,304.26300048828125 290.8414993286133,304.53399658203125 290.6677017211914,304.8160095214844 290.5106010437012,305.10699462890625 290.37070083618164,305.4070129394531 290.2485008239746,305.7149963378906 290.14440155029297,306.02899169921875 290.05870056152344,306.3489990234375 289.9917984008789,306.6730041503906 289.9438018798828,307 289.91500091552734,307.3299865722656 289.90530014038086,307.6610107421875 " />
   <polyline
   id="svg_773"
   points="288.4827003479004,299.93798828125 302.7085990905762,299.93798828125 " />
   
   
   
   
   
   
   
   
   
   
   
   
   
   
   
   
   <polyline
   id="svg_790"
   points="345.3861999511719,330.4219970703125 347.4185028076172,330.4219970703125 " />
   <polyline
   id="svg_791"
   points="342.3377990722656,324.32501220703125 345.3861999511719,324.32501220703125 " />
   <polyline
   id="svg_792"
   points="363.677001953125,324.32501220703125 366.7249984741211,324.32501220703125 " />
   <polyline
   id="svg_793"
   points="342.3377990722656,310.1000061035156 345.3861999511719,310.1000061035156 " />
   <polyline
   id="svg_794"
   points="363.677001953125,310.1000061035156 366.7249984741211,310.1000061035156 " />
   <polyline
   id="svg_795"
   points="361.6439971923828,330.4219970703125 363.677001953125,330.4219970703125 " />
   <polyline
   id="svg_796"
   points="366.7249984741211,330.4219970703125 368.7570037841797,330.4219970703125 " />
   <polyline
   id="svg_797"
   points="382.9830017089844,330.4219970703125 399.2409973144531,330.4219970703125 " />
   <polyline
   id="svg_798"
   points="402.2899932861328,330.4219970703125 422.61199951171875,330.4219970703125 " />
   <polyline
   id="svg_799"
   points="399.2409973144531,326.3580017089844 402.2899932861328,326.3580017089844 " />
   <polyline
   id="svg_800"
   points="288.4827003479004,333.47100830078125 342.3377990722656,333.47100830078125 " />
   <polyline
   id="svg_801"
   points="345.3861999511719,333.47100830078125 347.4185028076172,333.47100830078125 " />
   <polyline
   id="svg_802"
   points="361.6439971923828,333.47100830078125 363.677001953125,333.47100830078125 " />
   <polyline
   id="svg_803"
   points="366.7249984741211,333.47100830078125 368.7570037841797,333.47100830078125 " />
   <polyline
   id="svg_804"
   points="382.9830017089844,333.47100830078125 385.01499938964844,333.47100830078125 " />
   <polyline
   id="svg_805"
   points="388.0639953613281,333.47100830078125 419.5639953613281,333.47100830078125 " />
   <polyline
   id="svg_806"
   points="342.3377990722656,345.66400146484375 345.3861999511719,345.66400146484375 " />
   <polyline
   id="svg_807"
   points="385.01499938964844,345.66400146484375 388.0639953613281,345.66400146484375 " />
   <polyline
   id="svg_808"
   points="288.4827003479004,418.82598876953125 296.61180114746094,418.82598876953125 " />
   <polyline
   id="svg_809"
   points="357.3769989013672,418.82598876953125 363.677001953125,418.82598876953125 " />
   <polyline
   id="svg_810"
   points="366.7249984741211,418.82598876953125 375.66699981689453,418.82598876953125 " />
   <polyline
   id="svg_811"
   points="412.2480010986328,418.82598876953125 419.5639953613281,418.82598876953125 " />
   <polyline
   id="svg_812"
   points="422.61199951171875,418.82598876953125 437.85400390625,418.82598876953125 " />
   <polyline
   id="svg_813"
   points="491.70899963378906,418.82598876953125 503.9029998779297,418.82598876953125 " />
   <polyline
   id="svg_814"
   points="288.4827003479004,168.85699462890625 298.644100189209,158.6959991455078 " />
   <polyline
   id="svg_815"
   points="301.69250106811523,181.51400756835938 310.2846984863281,172.92100524902344 " />
   <polyline
   id="svg_816"
   points="493.74200439453125,267.4219970703125 493.74200439453125,296.8900146484375 " />
   <polyline
   id="svg_817"
   points="493.74200439453125,296.8900146484375 493.74200439453125,299.93798828125 " />
   <polyline
   id="svg_818"
   points="385.01499938964844,333.47100830078125 385.01499938964844,345.66400146484375 " />
   <polyline
   id="svg_819"
   points="388.0639953613281,333.47100830078125 388.0639953613281,345.66400146484375 " />
   <polyline
   id="svg_820"
   points="342.3377990722656,345.66400146484375 288.4827003479004,345.66400146484375 " />
   <polyline
   id="svg_821"
   points="342.3377990722656,345.156005859375 288.4827003479004,345.156005859375 " />
   <polyline
   id="svg_822"
   points="388.0639953613281,345.66400146484375 419.5639953613281,345.66400146484375 " />
   <polyline
   id="svg_823"
   points="388.0639953613281,345.156005859375 419.5639953613281,345.156005859375 " />
   <polyline
   id="svg_824"
   points="382.9830017089844,333.47100830078125 368.7570037841797,333.47100830078125 368.7570037841797,332.6579895019531 382.9830017089844,332.6579895019531 382.9830017089844,333.47100830078125 " />
   <polyline
   id="svg_825"
   points="291.53110122680664,463.5360107421875 357.3769989013672,463.5360107421875 " />
   <polyline
   id="svg_826"
   points="291.53110122680664,459.47100830078125 357.3769989013672,459.47100830078125 " />
   <polyline
   id="svg_827"
   points="365.0989990234375,463.5360107421875 422.0030059814453,463.5360107421875 " />
   <polyline
   id="svg_828"
   points="365.0989990234375,459.47100830078125 422.0030059814453,459.47100830078125 " />
   <polyline
   id="svg_829"
   points="365.0989990234375,461.90997314453125 422.0030059814453,461.90997314453125 " />
   <polyline
   id="svg_830"
   points="365.0989990234375,462.926025390625 422.0030059814453,462.926025390625 " />
   <polyline
   id="svg_831"
   points="429.7250061035156,463.5360107421875 500.85499572753906,463.5360107421875 " />
   <polyline
   id="svg_832"
   points="429.7250061035156,459.47100830078125 500.85499572753906,459.47100830078125 " />
   <polyline
   id="svg_833"
   points="368.7570037841797,333.47100830078125 368.7570037841797,347.6960144042969 368.7570037841797,347.6960144042969 369.2770004272461,347.68701171875 369.7959976196289,347.65899658203125 370.31300354003906,347.6109924316406 370.8290023803711,347.5450134277344 371.34100341796875,347.4599914550781 371.8499984741211,347.3559875488281 372.3560028076172,347.2340087890625 372.8560028076172,347.0929870605469 373.3509979248047,346.93499755859375 373.83899688720703,346.75799560546875 374.3209991455078,346.56298828125 374.7959976196289,346.35101318359375 375.26200103759766,346.12200927734375 375.7200012207031,345.8760070800781 376.1679992675781,345.614013671875 376.60699462890625,345.3349914550781 377.0350036621094,345.0400085449219 377.4519958496094,344.7300109863281 377.85699462890625,344.4049987792969 378.25,344.0660095214844 378.63099670410156,343.7120056152344 378.9989929199219,343.343994140625 379.3520050048828,342.9639892578125 379.69200134277344,342.5710144042969 380.0169982910156,342.1650085449219 380.3269958496094,341.74798583984375 380.6219940185547,341.32000732421875 380.8999938964844,340.8810119628906 381.1629943847656,340.4330139160156 381.40899658203125,339.9750061035156 381.63800048828125,339.5090026855469 381.8500061035156,339.03399658203125 382.0449981689453,338.5530090332031 382.2209930419922,338.0639953613281 382.3800048828125,337.5690002441406 382.52099609375,337.0690002441406 382.64300537109375,336.5639953613281 382.7469940185547,336.05499267578125 382.8320007324219,335.5419921875 382.8979949951172,335.0270080566406 382.94500732421875,334.5090026855469 382.9739990234375,333.989990234375 382.9830017089844,333.47100830078125 " />
   <polyline
   id="svg_834"
   points="347.4185028076172,333.47100830078125 361.6439971923828,333.47100830078125 361.6439971923828,332.6579895019531 347.4185028076172,332.6579895019531 347.4185028076172,333.47100830078125 " />
   <polyline
   id="svg_835"
   points="361.6439971923828,333.47100830078125 361.6439971923828,347.6960144042969 361.6439971923828,347.6960144042969 361.125,347.68701171875 360.6060028076172,347.65899658203125 360.08799743652344,347.6109924316406 359.572998046875,347.5450134277344 359.05999755859375,347.4599914550781 358.5510025024414,347.3559875488281 358.0459976196289,347.2340087890625 357.5459976196289,347.0929870605469 357.0510025024414,346.93499755859375 356.56199645996094,346.75799560546875 356.0810012817383,346.56298828125 355.6060028076172,346.35101318359375 355.13999938964844,346.12200927734375 354.68199920654297,345.8760070800781 354.23400115966797,345.614013671875 353.7949981689453,345.3349914550781 353.3669967651367,345.0400085449219 352.9499969482422,344.7300109863281 352.5439987182617,344.4049987792969 352.1510009765625,344.0660095214844 351.77100372314453,343.7120056152344 351.4029998779297,343.343994140625 351.0490036010742,342.9639892578125 350.70999908447266,342.5710144042969 350.38500213623047,342.1650085449219 350.0749969482422,341.74798583984375 349.7799987792969,341.32000732421875 349.5009994506836,340.8810119628906 349.23899841308594,340.4330139160156 348.9929962158203,339.9750061035156 348.76399993896484,339.5090026855469 348.552001953125,339.03399658203125 348.3570022583008,338.5530090332031 348.1800003051758,338.0639953613281 348.0220031738281,337.5690002441406 347.881103515625,337.0690002441406 347.75879669189453,336.5639953613281 347.6550979614258,336.05499267578125 347.5700988769531,335.5419921875 347.50379943847656,335.0270080566406 347.4563980102539,334.5090026855469 347.4280014038086,333.989990234375 347.4185028076172,333.47100830078125 " />
   <polyline
   id="svg_836"
   points="342.3377990722656,310.1000061035156 342.3377990722656,324.32501220703125 343.1507034301758,324.32501220703125 343.1507034301758,310.1000061035156 342.3377990722656,310.1000061035156 " />
   <polyline
   id="svg_837"
   points="342.3377990722656,324.32501220703125 328.11199951171875,324.32501220703125 328.11199951171875,324.32501220703125 328.12139892578125,323.8059997558594 328.14990234375,323.2869873046875 328.19730377197266,322.7699890136719 328.2636032104492,322.2539978027344 328.3486022949219,321.7409973144531 328.4523010253906,321.23199462890625 328.57450103759766,320.72698974609375 328.71510314941406,320.22698974609375 328.8739013671875,319.73199462890625 329.05059814453125,319.2430114746094 329.24510192871094,318.7619934082031 329.4570007324219,318.2869873046875 329.6862030029297,317.8210144042969 329.9321975708008,317.3630065917969 330.1947021484375,316.9150085449219 330.47350311279297,316.47601318359375 330.7680969238281,316.0480041503906 331.0781021118164,315.6310119628906 331.4031982421875,315.2250061035156 331.7427978515625,314.8320007324219 332.0966033935547,314.4519958496094 332.46399688720703,314.0840148925781 332.84459686279297,313.7300109863281 333.23789978027344,313.3909912109375 333.64330291748047,313.0660095214844 334.0604019165039,312.7560119628906 334.4885025024414,312.46099853515625 334.927001953125,312.1820068359375 335.3753967285156,311.9200134277344 335.8331985473633,311.67401123046875 336.29959869384766,311.44500732421875 336.7740020751953,311.2330017089844 337.25589752197266,311.0379943847656 337.7445983886719,310.8609924316406 338.2394027709961,310.7030029296875 338.7396011352539,310.56201171875 339.2446975708008,310.44000244140625 339.75389862060547,310.33599853515625 340.2665023803711,310.2510070800781 340.78189849853516,310.18499755859375 341.29940032958984,310.1369934082031 341.81829833984375,310.1090087890625 342.3377990722656,310.1000061035156 " />
   <polyline
   id="svg_838"
   points="345.3861999511719,280.1239929199219 342.3377990722656,280.1239929199219 " />
   <polyline
   id="svg_839"
   points="345.3861999511719,265.89801025390625 342.3377990722656,265.89801025390625 " />
   <polyline
   id="svg_840"
   points="342.3377990722656,265.89801025390625 342.3377990722656,280.1239929199219 343.1507034301758,280.1239929199219 343.1507034301758,265.89801025390625 342.3377990722656,265.89801025390625 " />
   <polyline
   id="svg_841"
   points="342.3377990722656,280.1239929199219 328.11199951171875,280.1239929199219 328.11199951171875,280.1239929199219 328.12139892578125,279.60400390625 328.14990234375,279.0849914550781 328.19730377197266,278.5679931640625 328.2636032104492,278.052001953125 328.3486022949219,277.5400085449219 328.4523010253906,277.0299987792969 328.57450103759766,276.5249938964844 328.71510314941406,276.0249938964844 328.8739013671875,275.5299987792969 329.05059814453125,275.0419921875 329.24510192871094,274.55999755859375 329.4570007324219,274.0849914550781 329.6862030029297,273.6189880371094 329.9321975708008,273.1610107421875 330.1947021484375,272.7130126953125 330.47350311279297,272.27398681640625 330.7680969238281,271.84600830078125 331.0781021118164,271.4289855957031 331.4031982421875,271.02398681640625 331.7427978515625,270.6300048828125 332.0966033935547,270.25 332.46399688720703,269.8819885253906 332.84459686279297,269.52899169921875 333.23789978027344,269.1889953613281 333.64330291748047,268.864013671875 334.0604019165039,268.5539855957031 334.4885025024414,268.2590026855469 334.927001953125,267.9800109863281 335.3753967285156,267.7179870605469 335.8331985473633,267.47198486328125 336.29959869384766,267.2430114746094 336.7740020751953,267.031005859375 337.25589752197266,266.83599853515625 337.7445983886719,266.6600036621094 338.2394027709961,266.5010070800781 338.7396011352539,266.3599853515625 339.2446975708008,266.2380065917969 339.75389862060547,266.1340026855469 340.2665023803711,266.04901123046875 340.78189849853516,265.9830017089844 341.29940032958984,265.9360046386719 341.81829833984375,265.9070129394531 342.3377990722656,265.89801025390625 " />
   <polyline
   id="svg_842"
   points="412.4510040283203,232.87298583984375 412.4510040283203,194.25999450683594 " />
   <polyline
   id="svg_843"
   points="416.51600646972656,194.25999450683594 416.51600646972656,190.1959991455078 " />
   <polyline
   id="svg_844"
   points="447,194.25999450683594 447,190.1959991455078 " />
   <polyline
   id="svg_845"
   points="411.9429931640625,232.87298583984375 411.9429931640625,194.25999450683594 " />
   <polyline
   id="svg_846"
   points="402.2899932861328,238.97000122070312 402.2899932861328,253.19601440429688 401.4770050048828,253.19601440429688 401.4770050048828,238.97000122070312 402.2899932861328,238.97000122070312 " />
   <polyline
   id="svg_847"
   points="402.2899932861328,253.19601440429688 416.51600646972656,253.19601440429688 416.51600646972656,253.19601440429688 416.50599670410156,252.67599487304688 416.4779968261719,252.15798950195312 416.42999267578125,251.6400146484375 416.36399841308594,251.125 416.2790069580078,250.61199951171875 416.1750030517578,250.10299682617188 416.05299377441406,249.59799194335938 415.91200256347656,249.09799194335938 415.7539978027344,248.60299682617188 415.5769958496094,248.114013671875 415.3820037841797,247.63198852539062 415.17100524902344,247.15798950195312 414.9409942626953,246.69100952148438 414.69500732421875,246.2340087890625 414.43299865722656,245.78500366210938 414.1540069580078,245.34698486328125 413.85899353027344,244.91900634765625 413.5489959716797,244.50201416015625 413.2239990234375,244.09600830078125 412.88499450683594,243.7030029296875 412.531005859375,243.32199096679688 412.16400146484375,242.95498657226562 411.7830047607422,242.60101318359375 411.38999938964844,242.260986328125 410.98399353027344,241.93600463867188 410.56700134277344,241.62600708007812 410.1390075683594,241.33200073242188 409.7010040283203,241.05300903320312 409.2519989013672,240.79000854492188 408.79400634765625,240.54400634765625 408.3280029296875,240.31500244140625 407.85400390625,240.10299682617188 407.3719940185547,239.90899658203125 406.88299560546875,239.73199462890625 406.38800048828125,239.572998046875 405.88800048828125,239.43301391601562 405.38299560546875,239.31100463867188 404.8739929199219,239.20700073242188 404.3609924316406,239.12200927734375 403.8459930419922,239.05599975585938 403.3280029296875,239.00799560546875 402.8090057373047,238.98001098632812 402.2899932861328,238.97000122070312 " />
   <polyline
   id="svg_848"
   points="369.7730026245117,233.88900756835938 369.7730026245117,219.66400146484375 370.58599853515625,219.66400146484375 370.58599853515625,233.88900756835938 369.7730026245117,233.88900756835938 " />
   <polyline
   id="svg_849"
   points="369.7730026245117,219.66400146484375 355.5479965209961,219.66400146484375 355.5479965209961,219.66400146484375 355.55699920654297,220.18301391601562 355.58599853515625,220.70199584960938 355.6330032348633,221.22000122070312 355.6989974975586,221.7349853515625 355.78399658203125,222.24798583984375 355.88800048828125,222.75698852539062 356.01000213623047,223.26199340820312 356.1510009765625,223.76199340820312 356.30999755859375,224.25698852539062 356.48600006103516,224.74600219726562 356.6809997558594,225.22698974609375 356.8929977416992,225.70199584960938 357.1220016479492,226.16799926757812 357.3679962158203,226.62600708007812 357.62999725341797,227.07400512695312 357.90899658203125,227.51300048828125 358.2040023803711,227.94100952148438 358.51399993896484,228.35800170898438 358.83899688720703,228.76400756835938 359.1780014038086,229.15701293945312 359.53199768066406,229.5369873046875 359.9000015258789,229.90499877929688 360.2799987792969,230.25900268554688 360.6740036010742,230.59799194335938 361.0790023803711,230.92300415039062 361.4960021972656,231.23300170898438 361.9240036010742,231.52801513671875 362.36299896240234,231.8070068359375 362.81099700927734,232.06900024414062 363.2689971923828,232.31500244140625 363.73500061035156,232.54400634765625 364.20999908447266,232.75601196289062 364.69200134277344,232.95098876953125 365.1800003051758,233.12799072265625 365.6750030517578,233.2860107421875 366.1750030517578,233.427001953125 366.6800003051758,233.54901123046875 367.18900299072266,233.65301513671875 367.7020034790039,233.73800659179688 368.21800231933594,233.80398559570312 368.73500061035156,233.85198974609375 369.2539978027344,233.8800048828125 369.7730026245117,233.88900756835938 " />
   <polyline
   id="svg_850"
   points="369.7730026245117,219.66400146484375 372.8219985961914,219.66400146484375 " />
   <polyline
   id="svg_851"
   points="369.7730026245117,233.88900756835938 372.8219985961914,233.88900756835938 " />
   <polyline
   id="svg_852"
   points="394.16099548339844,194.25999450683594 394.16099548339844,190.1959991455078 " />
   <polyline
   id="svg_853"
   points="377.9029998779297,194.25999450683594 377.9029998779297,190.1959991455078 " />
   <polyline
   id="svg_854"
   points="394.16099548339844,194.25999450683594 377.9029998779297,194.25999450683594 377.9029998779297,193.44700622558594 394.16099548339844,193.44700622558594 394.16099548339844,194.25999450683594 " />
   <polyline
   id="svg_855"
   points="377.9029998779297,194.25999450683594 377.9029998779297,210.51800537109375 377.9029998779297,210.51800537109375 378.45799255371094,210.50900268554688 379.0119934082031,210.48098754882812 379.56500244140625,210.43301391601562 380.1159973144531,210.36700439453125 380.6649932861328,210.28201293945312 381.2100067138672,210.17800903320312 381.7519989013672,210.05599975585938 382.28900146484375,209.91598510742188 382.8209991455078,209.75698852539062 383.3470001220703,209.57998657226562 383.86700439453125,209.385009765625 384.3800048828125,209.1719970703125 384.88499450683594,208.9429931640625 385.3820037841797,208.69601440429688 385.8710021972656,208.4320068359375 386.3500061035156,208.15200805664062 386.8190002441406,207.85501098632812 387.2779998779297,207.54299926757812 387.7259979248047,207.21499633789062 388.1629943847656,206.87200927734375 388.5870056152344,206.51400756835938 389,206.14199829101562 389.3990020751953,205.75698852539062 389.7850036621094,205.35699462890625 390.156005859375,204.94500732421875 390.5140075683594,204.52099609375 390.85699462890625,204.08401489257812 391.18499755859375,203.635986328125 391.4969940185547,203.177001953125 391.79400634765625,202.7080078125 392.0740051269531,202.22900390625 392.33799743652344,201.739990234375 392.5850067138672,201.24301147460938 392.81500244140625,200.73800659179688 393.02699279785156,200.22500610351562 393.2220001220703,199.70498657226562 393.3990020751953,199.17898559570312 393.55799865722656,198.64700317382812 393.697998046875,198.1099853515625 393.8209991455078,197.5679931640625 393.9239959716797,197.02301025390625 394.0090026855469,196.4739990234375 394.0749969482422,195.92300415039062 394.1230010986328,195.3699951171875 394.1510009765625,194.81500244140625 394.16099548339844,194.25999450683594 " />
   <polyline
   id="svg_856"
   points="399.2409973144531,326.3580017089844 399.2409973144531,330.4219970703125 " />
   <polyline
   id="svg_857"
   points="402.2899932861328,259.2929992675781 402.2899932861328,263.35699462890625 " />
   <polyline
   id="svg_858"
   points="402.2899932861328,326.3580017089844 402.2899932861328,330.4219970703125 " />
   <polyline
   id="svg_859"
   stroke-dasharray="0.254033, 0.127017"
   points="399.2409973144531,263.35699462890625 399.2409973144531,326.3580017089844 " />
   <polyline
   id="svg_860"
   points="409.4029998779297,259.2929992675781 409.4029998779297,279.6159973144531 " />
   <polyline
   id="svg_861"
   points="414.4830017089844,259.2929992675781 414.4830017089844,278.5989990234375 " />
   <polyline
   id="svg_862"
   points="419.5639953613281,259.2929992675781 419.5639953613281,278.5989990234375 " />
   <polyline
   id="svg_863"
   points="424.64500427246094,259.2929992675781 424.64500427246094,278.5989990234375 " />
   <polyline
   id="svg_864"
   points="429.7250061035156,259.2929992675781 429.7250061035156,278.5989990234375 " />
   <polyline
   id="svg_865"
   points="434.8059997558594,259.2929992675781 434.8059997558594,278.5989990234375 " />
   <polyline
   id="svg_866"
   points="439.8869934082031,259.2929992675781 439.8869934082031,279.6159973144531 " />
   <polyline
   id="svg_867"
   points="444.9669952392578,259.2929992675781 444.9669952392578,279.6159973144531 " />
   <polyline
   id="svg_868"
   stroke-dasharray="0.254033, 0.127017"
   points="402.2899932861328,263.35699462890625 402.2899932861328,326.3580017089844 " />
   <polyline
   id="svg_869"
   stroke-dasharray="0.254033, 0.127017"
   points="372.8219985961914,259.2929992675781 399.2409973144531,259.2929992675781 " />
   <polyline
   id="svg_870"
   stroke-dasharray="0.254033, 0.127017"
   points="372.8219985961914,256.2439880371094 399.2409973144531,256.2439880371094 " />
   <polyline
   id="svg_871"
   points="491.2010040283203,184.0989990234375 491.2010040283203,180.03399658203125 " />
   <polyline
   id="svg_872"
   points="474.9429931640625,184.0989990234375 474.9429931640625,180.03399658203125 " />
   <polyline
   id="svg_873"
   points="474.9429931640625,180.03399658203125 491.2010040283203,180.03399658203125 491.2010040283203,180.8470001220703 474.9429931640625,180.8470001220703 474.9429931640625,180.03399658203125 " />
   <polyline
   id="svg_874"
   points="373.83799743652344,162.75999450683594 373.83799743652344,187.14700317382812 " />
   <polyline
   id="svg_875"
   points="369.7730026245117,187.14700317382812 369.7730026245117,162.75999450683594 " />
   <polyline
   id="svg_876"
   points="296.61180114746094,422.8900146484375 357.3769989013672,422.8900146484375 " />
   <polyline
   id="svg_877"
   points="296.61180114746094,422.281005859375 357.3769989013672,422.281005859375 " />
   <polyline
   id="svg_878"
   points="296.61180114746094,421.4679870605469 357.3769989013672,421.4679870605469 " />
   <polyline
   id="svg_879"
   points="296.61180114746094,420.6549987792969 357.3769989013672,420.6549987792969 " />
   <polyline
   id="svg_880"
   points="375.66699981689453,422.8900146484375 412.2480010986328,422.8900146484375 " />
   <polyline
   id="svg_881"
   points="375.66699981689453,422.281005859375 412.2480010986328,422.281005859375 " />
   <polyline
   id="svg_882"
   points="375.66699981689453,421.4679870605469 412.2480010986328,421.4679870605469 " />
   <polyline
   id="svg_883"
   points="375.66699981689453,420.6549987792969 412.2480010986328,420.6549987792969 " />
   <polyline
   id="svg_884"
   points="437.85400390625,422.8900146484375 491.70899963378906,422.8900146484375 " />
   <polyline
   id="svg_885"
   points="377.9029998779297,190.1959991455078 394.16099548339844,190.1959991455078 " />
   <polyline
   id="svg_886"
   points="483.07200622558594,210.51800537109375 483.07200622558594,255.22799682617188 " />
   <polyline
   id="svg_887"
   points="486.1210021972656,213.56698608398438 483.07200622558594,210.51800537109375 480.0240020751953,213.56698608398438 " />
   <polyline
   id="svg_888"
   points="444.9669952392578,279.6159973144531 439.8869934082031,279.6159973144531 " />
   <polyline
   id="svg_889"
   stroke-dasharray="0.254033, 0.127017"
   points="444.9669952392578,279.6159973144531 471.3869934082031,279.6159973144531 " />
   <polyline
   id="svg_890"
   stroke-dasharray="0.254033, 0.127017"
   points="471.3869934082031,279.6159973144531 471.3869934082031,259.2929992675781 " />
   
   
   <polyline
   id="svg_893"
   points="326.07969665527344,292.8949890136719 326.07969665527344,289.7770080566406 " />
   
   
   
   <polyline
   id="svg_897"
   points="313.88610076904297,289.8179931640625 313.88610076904297,289.7770080566406 " />
   
   
   
   <polyline
   id="svg_901"
   points="326.07969665527344,286.7279968261719 326.07969665527344,283.6109924316406 " />
   
   
   
   <polyline
   id="svg_905"
   points="313.88610076904297,286.7279968261719 313.88610076904297,286.68701171875 " />
   
   
   
   <polyline
   id="svg_909"
   points="301.69250106811523,271.4859924316406 301.69250106811523,259.2929992675781 " />
   <polyline
   id="svg_910"
   points="297.6278991699219,271.4859924316406 297.6278991699219,268.6700134277344 " />
   <polyline
   id="svg_911"
   points="297.6278991699219,262.1090087890625 297.6278991699219,259.2929992675781 " />
   <polyline
   id="svg_912"
   points="293.5634002685547,271.4859924316406 293.5634002685547,268.7489929199219 " />
   <polyline
   id="svg_913"
   points="293.5634002685547,262.031005859375 293.5634002685547,259.2929992675781 " />
   <polyline
   id="svg_914"
   points="289.4989013671875,271.4859924316406 289.4989013671875,269.3559875488281 " />
   <polyline
   id="svg_915"
   points="289.4989013671875,261.42401123046875 289.4989013671875,259.2929992675781 " />
   <polyline
   id="svg_916"
   points="310.2846984863281,172.92100524902344 310.2846984863281,158.6959991455078 " />
   <polyline
   id="svg_917"
   points="334.6719970703125,172.92100524902344 334.6719970703125,158.6959991455078 " />
   <polyline
   id="svg_918"
   points="334.6719970703125,203.40499877929688 334.6719970703125,172.92100524902344 " />
   <polyline
   id="svg_919"
   points="352.96199798583984,203.40499877929688 352.96199798583984,158.6959991455078 " />
   <polyline
   id="svg_920"
   points="324.91709899902344,170.88900756835938 320.0395965576172,170.88900756835938 320.0395965576172,170.88900756835938 319.9238967895508,170.88099670410156 319.8106002807617,170.8560028076172 319.70189666748047,170.8159942626953 319.60009765625,170.75999450683594 319.5073013305664,170.6909942626953 319.42530059814453,170.60899353027344 319.35579681396484,170.51600646972656 319.3002014160156,170.41400146484375 319.2596969604492,170.30499267578125 319.23500061035156,170.19200134277344 319.22669982910156,170.0760040283203 319.22669982910156,163.572998046875 319.22669982910156,163.572998046875 319.23500061035156,163.45700073242188 319.2596969604492,163.343994140625 319.3002014160156,163.23500061035156 319.35579681396484,163.13400268554688 319.42530059814453,163.04100036621094 319.5073013305664,162.95899963378906 319.60009765625,162.88900756835938 319.70189666748047,162.83399963378906 319.8106002807617,162.79299926757812 319.9238967895508,162.76800537109375 320.0395965576172,162.75999450683594 324.91709899902344,162.75999450683594 324.91709899902344,162.75999450683594 325.03279876708984,162.76800537109375 325.14610290527344,162.79299926757812 325.25479888916016,162.83399963378906 325.3565979003906,162.88900756835938 325.44940185546875,162.95899963378906 325.5314025878906,163.04100036621094 325.6008987426758,163.13400268554688 325.65650177001953,163.23500061035156 325.6970977783203,163.343994140625 325.7217025756836,163.45700073242188 325.7300033569336,163.572998046875 325.7300033569336,170.0760040283203 325.7300033569336,170.0760040283203 325.7217025756836,170.19200134277344 325.6970977783203,170.30499267578125 325.65650177001953,170.41400146484375 325.6008987426758,170.51600646972656 325.5314025878906,170.60899353027344 325.44940185546875,170.6909942626953 325.3565979003906,170.75999450683594 325.25479888916016,170.8159942626953 325.14610290527344,170.8560028076172 325.03279876708984,170.88099670410156 324.91709899902344,170.88900756835938 " />
   <polyline
   id="svg_921"
   points="332.2332000732422,170.88900756835938 327.35579681396484,170.88900756835938 327.35579681396484,170.88900756835938 327.24009704589844,170.88099670410156 327.1268005371094,170.8560028076172 327.0180969238281,170.8159942626953 326.91629791259766,170.75999450683594 326.82350158691406,170.6909942626953 326.7414016723633,170.60899353027344 326.6718978881836,170.51600646972656 326.6163024902344,170.41400146484375 326.57579803466797,170.30499267578125 326.5512008666992,170.19200134277344 326.5429000854492,170.0760040283203 326.5429000854492,163.572998046875 326.5429000854492,163.572998046875 326.5512008666992,163.45700073242188 326.57579803466797,163.343994140625 326.6163024902344,163.23500061035156 326.6718978881836,163.13400268554688 326.7414016723633,163.04100036621094 326.82350158691406,162.95899963378906 326.91629791259766,162.88900756835938 327.0180969238281,162.83399963378906 327.1268005371094,162.79299926757812 327.24009704589844,162.76800537109375 327.35579681396484,162.75999450683594 332.2332000732422,162.75999450683594 332.2332000732422,162.75999450683594 332.3488998413086,162.76800537109375 332.4623031616211,162.79299926757812 332.5708999633789,162.83399963378906 332.6726989746094,162.88900756835938 332.7656021118164,162.95899963378906 332.8476028442383,163.04100036621094 332.91709899902344,163.13400268554688 332.9727020263672,163.23500061035156 333.01319885253906,163.343994140625 333.03790283203125,163.45700073242188 333.0460968017578,163.572998046875 333.0460968017578,170.0760040283203 333.0460968017578,170.0760040283203 333.03790283203125,170.19200134277344 333.01319885253906,170.30499267578125 332.9727020263672,170.41400146484375 332.91709899902344,170.51600646972656 332.8476028442383,170.60899353027344 332.7656021118164,170.6909942626953 332.6726989746094,170.75999450683594 332.5708999633789,170.8159942626953 332.4623031616211,170.8560028076172 332.3488998413086,170.88099670410156 332.2332000732422,170.88900756835938 " />
   
   
   
   
   
   
   
   
   
   
   
   
   
   
   
   
   
   
   
   
   
   
   
   
   
   
   <polyline
   id="svg_948"
   points="301.69250106811523,211.53500366210938 369.7730026245117,211.53500366210938 " />
   
   
   <polyline
   id="svg_951"
   points="352.96199798583984,203.40499877929688 369.7730026245117,203.40499877929688 " />
   
   <polyline
   id="svg_953"
   points="352.96199798583984,199.34100341796875 369.7730026245117,199.34100341796875 " />
   
   <polyline
   id="svg_955"
   points="352.96199798583984,195.2760009765625 369.7730026245117,195.2760009765625 " />
   <polyline
   id="svg_956"
   points="352.96199798583984,191.21200561523438 369.7730026245117,191.21200561523438 " />
   <polyline
   id="svg_957"
   points="352.96199798583984,187.14700317382812 369.7730026245117,187.14700317382812 " />
   <polyline
   id="svg_958"
   points="352.96199798583984,183.08299255371094 369.7730026245117,183.08299255371094 " />
   <polyline
   id="svg_959"
   points="352.96199798583984,179.01800537109375 369.7730026245117,179.01800537109375 " />
   <polyline
   id="svg_960"
   points="352.96199798583984,174.95399475097656 369.7730026245117,174.95399475097656 " />
   <polyline
   id="svg_961"
   points="352.96199798583984,170.88900756835938 369.7730026245117,170.88900756835938 " />
   <polyline
   id="svg_962"
   points="352.96199798583984,166.8249969482422 369.7730026245117,166.8249969482422 " />
   <polyline
   id="svg_963"
   points="352.96199798583984,162.75999450683594 369.7730026245117,162.75999450683594 " />
   
   
   
   
   <polyline
   id="svg_968"
   points="308.252498626709,174.95399475097656 334.6719970703125,174.95399475097656 " />
   <polyline
   id="svg_969"
   points="503.9029998779297,367.00299072265625 494.75799560546875,367.00299072265625 " />
   <polyline
   id="svg_970"
   points="499.83900451660156,362.93798828125 494.75799560546875,363.9549865722656 " />
   <polyline
   id="svg_971"
   points="503.9029998779297,351.760986328125 494.75799560546875,351.760986328125 " />
   <polyline
   id="svg_972"
   points="499.83900451660156,355.82598876953125 494.75799560546875,354.8089904785156 " />
   <polyline
   id="svg_973"
   points="503.9029998779297,372.0840148925781 489.677001953125,372.0840148925781 " />
   <polyline
   id="svg_974"
   points="503.9029998779297,346.67999267578125 489.677001953125,346.67999267578125 " />
   <polyline
   id="svg_975"
   points="494.75799560546875,353.2850036621094 491.70899963378906,353.2850036621094 " />
   <polyline
   id="svg_976"
   points="494.75799560546875,365.47900390625 491.70899963378906,365.47900390625 " />
   <polyline
   id="svg_977"
   points="301.2859992980957,285.9159851074219 289.90530014038086,285.9159851074219 289.90530014038086,285.9159851074219 289.79949951171875,285.906005859375 289.6968002319336,285.8789978027344 289.6004981994629,285.8340148925781 289.51340103149414,285.77301025390625 289.4383010864258,285.697998046875 289.3773002624512,285.6109924316406 289.33240127563477,285.5140075683594 289.3049011230469,285.4119873046875 289.2956008911133,285.3059997558594 289.2956008911133,272.90899658203125 289.2956008911133,272.90899658203125 289.3049011230469,272.8030090332031 289.33240127563477,272.70098876953125 289.3773002624512,272.60400390625 289.4383010864258,272.5169982910156 289.51340103149414,272.4419860839844 289.6004981994629,272.3810119628906 289.6968002319336,272.33599853515625 289.79949951171875,272.3089904785156 289.90530014038086,272.29901123046875 301.2859992980957,272.29901123046875 301.2859992980957,272.29901123046875 301.3918991088867,272.3089904785156 301.49449920654297,272.33599853515625 301.5909004211426,272.3810119628906 301.6778984069824,272.4419860839844 301.75310134887695,272.5169982910156 301.8139991760254,272.60400390625 301.8588981628418,272.70098876953125 301.8863983154297,272.8030090332031 301.8956985473633,272.90899658203125 301.8956985473633,285.3059997558594 301.8956985473633,285.3059997558594 301.8863983154297,285.4119873046875 301.8588981628418,285.5140075683594 301.8139991760254,285.6109924316406 301.75310134887695,285.697998046875 301.6778984069824,285.77301025390625 301.5909004211426,285.8340148925781 301.49449920654297,285.8789978027344 301.3918991088867,285.906005859375 301.2859992980957,285.9159851074219 " />
   <circle
   id="svg_978"
   r="0.40645"
   cy="283.883"
   cx="291.32791" />
   <circle
   id="svg_979"
   r="0.60968"
   cy="283.883"
   cx="291.32791" />
   <circle
   id="svg_980"
   r="0.40645"
   cy="325.34201"
   cx="295.5957" />
   <circle
   id="svg_981"
   r="0.60968"
   cy="325.34201"
   cx="295.5957" />
   <circle
   id="svg_982"
   r="0.45726001"
   cy="329.04999"
   cx="321.10059" />
   <circle
   id="svg_983"
   r="0.45726001"
   cy="329.04999"
   cx="322.92969" />
   <circle
   id="svg_984"
   r="0.48530999"
   cy="326.76401"
   cx="322.0152" />
   <circle
   id="svg_985"
   r="0.69567001"
   cy="326.76401"
   cx="322.0152" />
   <path
   id="svg_986"
   d="m 319.6487,326.412 a 1.82904,1.82904 0 0 0 1.7403,1.267" />
   <path
   id="svg_987"
   d="m 320.1861,320.362 a 7.77342,7.77342 0 0 0 -0.5374,6.05" />
   <polyline
   id="svg_988"
   points="322.64129638671875,327.6789855957031 321.38899993896484,327.6789855957031 " />
   <path
   id="svg_989"
   d="m 322.6413,327.679 a 1.82904,1.82904 0 0 0 1.7403,-1.267" />
   <path
   id="svg_990"
   d="m 324.3816,326.412 a 7.77342,7.77342 0 0 0 -0.5374,-6.05" />
   <path
   id="svg_991"
   d="m 323.8442,320.362 a 2.2863,2.2863 0 0 0 -3.6581,0" />
   <path
   id="svg_992"
   d="m 319.0378,328.9 a 1.82904,1.82904 0 0 0 0.889,1.017" />
   <path
   id="svg_993"
   d="m 319.9268,329.917 a 4.5726,4.5726 0 0 0 4.1767,0" />
   <path
   id="svg_994"
   d="m 319.2716,320.362 a 11.8888,11.8888 0 0 0 -0.2338,8.538" />
   <path
   id="svg_995"
   d="m 324.1035,329.917 a 1.82904,1.82904 0 0 0 0.889,-1.017" />
   <path
   id="svg_996"
   d="m 324.9925,328.9 a 11.8888,11.8888 0 0 0 -0.2338,-8.538" />
   <path
   id="svg_997"
   d="m 324.7587,320.362 a 2.97219,2.97219 0 0 0 -5.4871,0" />
   <path
   id="svg_998"
   d="m 307.3385,318.699 a 8.23068,8.23068 0 0 0 -0.8666,3.371" />
   <path
   id="svg_999"
   d="m 306.2872,327.121 a 27.399,27.399 0 0 0 3.5343,0.228" />
   <polyline
   id="svg_1000"
   points="306.2155990600586,330.4219970703125 309.8214988708496,330.4219970703125 " />
   <path
   id="svg_1001"
   d="m 306.4719,322.07 a 45.726,45.726 0 0 0 0.0866,5.084" />
   <circle
   id="svg_1002"
   r="0.24692"
   cy="328.776"
   cx="309.8215" />
   <polyline
   id="svg_1003"
   points="309.8214988708496,330.4219970703125 309.8214988708496,330.4219970703125 " />
   <path
   id="svg_1004"
   d="m 309.8215,318.168 a 24.6921,24.6921 0 0 0 -1.1424,0.026" />
   <path
   id="svg_1005"
   d="m 307.8214,318.316 a 0.73162,0.73162 0 0 0 -0.4829,0.383" />
   <path
   id="svg_1006"
   d="m 308.6791,318.194 a 4.5726,4.5726 0 0 0 -0.8577,0.122" />
   <path
   id="svg_1007"
   d="m 313.7687,327.472 a 0.36581,0.36581 0 0 0 -0.4128,-0.351" />
   <path
   id="svg_1008"
   d="m 313.4275,330.422 a 0.34752,0.34752 0 0 0 0.3474,-0.338" />
   <polyline
   id="svg_1009"
   points="313.42749786376953,330.4219970703125 309.8214988708496,330.4219970703125 " />
   <path
   id="svg_1010"
   d="m 313.7749,330.084 a 45.7626,45.7626 0 0 0 -0.006,-2.612" />
   <path
   id="svg_1011"
   d="m 309.8215,327.349 a 27.399,27.399 0 0 0 3.5344,-0.228" />
   <path
   id="svg_1012"
   d="m 313.1712,322.07 a 8.23068,8.23068 0 0 0 -0.8666,-3.371" />
   <path
   id="svg_1013"
   d="m 311.8217,318.316 a 4.5726,4.5726 0 0 0 -0.8577,-0.122" />
   <path
   id="svg_1014"
   d="m 312.3046,318.699 a 0.73162,0.73162 0 0 0 -0.4829,-0.383" />
   <path
   id="svg_1015"
   d="m 310.964,318.194 a 24.6921,24.6921 0 0 0 -1.1425,-0.026" />
   <path
   id="svg_1016"
   d="m 313.0846,327.154 a 45.726,45.726 0 0 0 0.0866,-5.084" />
   <path
   id="svg_1017"
   d="m 305.8744,327.472 a 45.7626,45.7626 0 0 0 -0.006,2.612" />
   <path
   id="svg_1018"
   d="m 305.8682,330.084 a 0.34752,0.34752 0 0 0 0.3474,0.338" />
   <path
   id="svg_1019"
   d="m 306.2872,327.121 a 0.36581,0.36581 0 0 0 -0.4128,0.351" />
   <path
   id="svg_1020"
   d="m 300.2055,262.907 a 8.23068,8.23068 0 0 0 -3.3709,-0.867" />
   <path
   id="svg_1021"
   d="m 291.7844,261.855 a 27.399,27.399 0 0 0 -0.2289,3.535" />
   <polyline
   id="svg_1022"
   points="288.4827003479004,261.78399658203125 288.4827003479004,265.3900146484375 " />
   <path
   id="svg_1023"
   d="m 296.8346,262.04 a 45.726,45.726 0 0 0 -5.0841,0.087" />
   <circle
   id="svg_1024"
   r="0.24692"
   cy="265.39001"
   cx="290.12891" />
   <polyline
   id="svg_1025"
   points="288.4827003479004,265.3900146484375 288.4827003479004,265.3900146484375 " />
   <path
   id="svg_1026"
   d="m 300.7373,265.39 a 24.6921,24.6921 0 0 0 -0.0264,-1.143" />
   <path
   id="svg_1027"
   d="m 300.589,263.39 a 0.73162,0.73162 0 0 0 -0.3835,-0.483" />
   <path
   id="svg_1028"
   d="M 300.7109,264.247 A 4.5726,4.5726 0 0 0 300.589,263.39" />
   <path
   id="svg_1029"
   d="m 291.433,269.337 a 0.36581,0.36581 0 0 0 0.3514,-0.413" />
   <path
   id="svg_1030"
   d="m 288.4827,268.996 a 0.34752,0.34752 0 0 0 0.3385,0.347" />
   <polyline
   id="svg_1031"
   points="288.4827003479004,268.9960021972656 288.4827003479004,265.3900146484375 " />
   <path
   id="svg_1032"
   d="m 288.8212,269.343 a 45.7626,45.7626 0 0 0 2.6118,-0.006" />
   <path
   id="svg_1033"
   d="m 291.5555,265.39 a 27.399,27.399 0 0 0 0.2289,3.534" />
   <path
   id="svg_1034"
   d="m 296.8346,268.739 a 8.23068,8.23068 0 0 0 3.3709,-0.866" />
   <path
   id="svg_1035"
   d="m 300.589,267.39 a 4.5726,4.5726 0 0 0 0.1219,-0.858" />
   <path
   id="svg_1036"
   d="m 300.2055,267.873 a 0.73162,0.73162 0 0 0 0.3835,-0.483" />
   <path
   id="svg_1037"
   d="m 300.7109,266.532 a 24.6921,24.6921 0 0 0 0.0264,-1.142" />
   <path
   id="svg_1038"
   d="m 291.7505,268.653 a 45.726,45.726 0 0 0 5.0841,0.086" />
   <path
   id="svg_1039"
   d="m 291.433,261.442 a 45.7626,45.7626 0 0 0 -2.6118,-0.006" />
   <path
   id="svg_1040"
   d="m 288.8212,261.436 a 0.34752,0.34752 0 0 0 -0.3385,0.348" />
   <path
   id="svg_1041"
   d="m 291.7844,261.855 a 0.36581,0.36581 0 0 0 -0.3514,-0.413" />
   <circle
   id="svg_1042"
   r="0.68589002"
   cy="294.522"
   cx="319.47479" />
   <path
   id="svg_1043"
   d="m 313.9017,289.777 a 37.9726,37.9726 0 0 0 -1.473,4.823" />
   <path
   id="svg_1044"
   d="m 312.4287,294.6 a 3.95885,3.95885 0 0 0 0.5073,3.016" />
   <path
   id="svg_1045"
   d="m 312.936,297.616 a 5.01145,5.01145 0 0 0 2.123,1.868" />
   <path
   id="svg_1046"
   d="m 315.059,299.484 a 10.4661,10.4661 0 0 0 4.4158,0.977" />
   <path
   id="svg_1047"
   d="m 319.4748,300.461 a 10.4661,10.4661 0 0 0 4.4159,-0.977" />
   <path
   id="svg_1048"
   d="m 323.8907,299.484 a 5.01145,5.01145 0 0 0 2.1229,-1.868" />
   <path
   id="svg_1049"
   d="m 326.0136,297.616 a 3.95885,3.95885 0 0 0 0.5073,-3.016" />
   <path
   id="svg_1050"
   d="m 326.5209,294.6 a 37.9726,37.9726 0 0 0 -1.473,-4.823" />
   <polyline
   id="svg_1051"
   points="325.0478973388672,289.7770080566406 313.9017028808594,289.7770080566406 " />
   <path
   id="svg_1052"
   d="m 325.5392,295.443 a 10.2289,10.2289 0 0 0 -2.6052,-5.359" />
   <path
   id="svg_1053"
   d="m 325.4469,296.321 a 1.7071,1.7071 0 0 0 0.0923,-0.878" />
   <path
   id="svg_1054"
   d="m 322.4688,299.153 a 4.78084,4.78084 0 0 0 2.9781,-2.832" />
   <path
   id="svg_1055"
   d="m 319.4748,299.63 a 9.63495,9.63495 0 0 0 2.994,-0.477" />
   <path
   id="svg_1056"
   d="m 316.4809,299.153 a 9.63495,9.63495 0 0 0 2.9939,0.477" />
   <path
   id="svg_1057"
   d="m 313.5027,296.321 a 4.78084,4.78084 0 0 0 2.9782,2.832" />
   <path
   id="svg_1058"
   d="m 313.4105,295.443 a 1.7071,1.7071 0 0 0 0.0922,0.878" />
   <path
   id="svg_1059"
   d="m 316.0156,290.084 a 10.2289,10.2289 0 0 0 -2.6051,5.359" />
   <polyline
   id="svg_1060"
   points="316.0156021118164,290.0840148925781 322.93399810791016,290.0840148925781 " />
   <path
   id="svg_1061"
   d="m 314.5563,293.88 a 4.67485,4.67485 0 0 0 -1.1531,2.045" />
   <path
   id="svg_1062"
   d="m 316.6026,292.951 a 3.0484,3.0484 0 0 0 -2.0463,0.929" />
   <path
   id="svg_1063"
   d="m 319.4748,292.882 a 59.1665,59.1665 0 0 0 -2.8722,0.069" />
   <path
   id="svg_1064"
   d="m 325.5464,295.925 a 4.67485,4.67485 0 0 0 -1.153,-2.045" />
   <path
   id="svg_1065"
   d="m 324.3934,293.88 a 3.0484,3.0484 0 0 0 -2.0463,-0.929" />
   <path
   id="svg_1066"
   d="m 322.3471,292.951 a 59.1665,59.1665 0 0 0 -2.8723,-0.069" />
   <polyline
   id="svg_1067"
   points="342.3377990722656,289.7770080566406 342.3377990722656,286.7279968261719 " />
   <circle
   id="svg_1068"
   r="0.68589002"
   cy="281.983"
   cx="319.47479" />
   <path
   id="svg_1069"
   d="m 312.4287,281.905 a 37.9726,37.9726 0 0 0 1.473,4.823" />
   <path
   id="svg_1070"
   d="m 312.936,278.889 a 3.95885,3.95885 0 0 0 -0.5073,3.016" />
   <path
   id="svg_1071"
   d="m 315.059,277.021 a 5.01145,5.01145 0 0 0 -2.123,1.868" />
   <path
   id="svg_1072"
   d="m 319.4748,276.044 a 10.4661,10.4661 0 0 0 -4.4158,0.977" />
   <path
   id="svg_1073"
   d="m 323.8907,277.021 a 10.4661,10.4661 0 0 0 -4.4159,-0.977" />
   <path
   id="svg_1074"
   d="m 326.0136,278.889 a 5.01145,5.01145 0 0 0 -2.1229,-1.868" />
   <path
   id="svg_1075"
   d="m 326.5209,281.905 a 3.95885,3.95885 0 0 0 -0.5073,-3.016" />
   <path
   id="svg_1076"
   d="m 325.0479,286.728 a 37.9726,37.9726 0 0 0 1.473,-4.823" />
   <polyline
   id="svg_1077"
   points="325.0478973388672,286.7279968261719 313.9017028808594,286.7279968261719 " />
   <path
   id="svg_1078"
   d="m 322.934,286.421 a 10.2289,10.2289 0 0 0 2.6052,-5.359" />
   <path
   id="svg_1079"
   d="m 325.5392,281.062 a 1.7071,1.7071 0 0 0 -0.0923,-0.878" />
   <path
   id="svg_1080"
   d="m 325.4469,280.184 a 4.78084,4.78084 0 0 0 -2.9781,-2.832" />
   <path
   id="svg_1081"
   d="m 322.4688,277.352 a 9.63495,9.63495 0 0 0 -2.994,-0.477" />
   <path
   id="svg_1082"
   d="m 319.4748,276.875 a 9.63495,9.63495 0 0 0 -2.9939,0.477" />
   <path
   id="svg_1083"
   d="m 316.4809,277.352 a 4.78084,4.78084 0 0 0 -2.9782,2.832" />
   <path
   id="svg_1084"
   d="m 313.5027,280.184 a 1.7071,1.7071 0 0 0 -0.0922,0.878" />
   <path
   id="svg_1085"
   d="m 313.4105,281.062 a 10.2289,10.2289 0 0 0 2.6051,5.359" />
   <polyline
   id="svg_1086"
   points="316.0156021118164,286.4209899902344 322.93399810791016,286.4209899902344 " />
   <path
   id="svg_1087"
   d="m 313.4032,280.581 a 4.67485,4.67485 0 0 0 1.1531,2.044" />
   <path
   id="svg_1088"
   d="m 314.5563,282.625 a 3.0484,3.0484 0 0 0 2.0463,0.929" />
   <path
   id="svg_1089"
   d="m 316.6026,283.554 a 59.1665,59.1665 0 0 0 2.8722,0.07" />
   <path
   id="svg_1090"
   d="m 324.3934,282.625 a 4.67485,4.67485 0 0 0 1.153,-2.044" />
   <path
   id="svg_1091"
   d="m 322.3471,283.554 a 3.0484,3.0484 0 0 0 2.0463,-0.929" />
   <path
   id="svg_1092"
   d="m 319.4748,283.624 a 59.1665,59.1665 0 0 0 2.8723,-0.07" />
   <polyline
   id="svg_1093"
   points="416.51600646972656,190.1959991455078 447,190.1959991455078 " />
   <polyline
   id="svg_1094"
   points="439.8869934082031,269.0480041503906 409.4029998779297,269.0480041503906 " />
   <polyline
   id="svg_1095"
   points="436.83799743652344,272.09600830078125 439.8869934082031,269.0480041503906 436.83799743652344,265.9989929199219 " />
  </g>
  <g
   id="svg_1549"
   stroke-width="0.1"
   stroke="#000000"
   fill="none"
   clip-path="url(#clipId2)" />
  <g
   id="svg_1566"
   stroke-width="0.25"
   stroke="#000000"
   fill="none"
   clip-path="url(#clipId2)">
   <polyline
   id="svg_1567"
   points="288.4827003479004,405.0610046386719 363.677001953125,405.0610046386719 " />
   <polyline
   id="svg_1568"
   points="288.9907989501953,404.5530090332031 287.9747009277344,405.5690002441406 " />
   <polyline
   id="svg_1569"
   points="363.1689987182617,405.5690002441406 364.18499755859375,404.5530090332031 " />
  </g>
  <g
   id="svg_1570"
   stroke-width="0"
   stroke="#000000"
   fill="#000000"
   clip-path="url(#clipId2)">
   
  </g>
  <g
   id="svg_1572"
   stroke-width="0.25"
   stroke="#000000"
   fill="none"
   clip-path="url(#clipId2)">
   <polyline
   id="svg_1573"
   points="366.7249984741211,405.0610046386719 419.5639953613281,405.0610046386719 " />
   <polyline
   id="svg_1574"
   points="367.2330017089844,404.5530090332031 366.21700286865234,405.5690002441406 " />
   <polyline
   id="svg_1575"
   points="419.0559997558594,405.5690002441406 420.07200622558594,404.5530090332031 " />
  </g>
  
  <g
   id="svg_1578"
   stroke-width="0.25"
   stroke="#000000"
   fill="none"
   clip-path="url(#clipId2)">
   <polyline
   id="svg_1579"
   points="422.61199951171875,405.0610046386719 503.9029998779297,405.0610046386719 " />
   <polyline
   id="svg_1580"
   points="423.1199951171875,404.5530090332031 422.10400390625,405.5690002441406 " />
   <polyline
   id="svg_1581"
   points="503.39500427246094,405.5690002441406 504.4110107421875,404.5530090332031 " />
  </g>
  
  <g
   id="svg_1584"
   stroke-width="0.25"
   stroke="#000000"
   fill="none"
   clip-path="url(#clipId2)">
   <polyline
   id="svg_1585"
   points="366.7249984741211,298.41400146484375 493.74200439453125,298.41400146484375 " />
   <polyline
   id="svg_1586"
   points="367.2330017089844,297.906005859375 366.21700286865234,298.9219970703125 " />
   <polyline
   id="svg_1587"
   points="493.23399353027344,298.9219970703125 494.25,297.906005859375 " />
  </g>
  <g
   id="svg_1588"
   stroke-width="0"
   stroke="#000000"
   fill="#000000"
   clip-path="url(#clipId2)">
   <text
   x="0"
   y="0"
   id="svg_1589"
   font-size="1.39764px"
   font-family="'Arial Narrow', sans-serif"
   transform="matrix(3.0484,0,0,3.0484,426.843,296.184)">6,25</text>
  </g>
  <g
   id="svg_1590"
   stroke-width="0.25"
   stroke="#000000"
   fill="none"
   clip-path="url(#clipId2)">
   <polyline
   id="svg_1591"
   points="412.4510040283203,213.64700317382812 468.33799743652344,213.64700317382812 " />
   <polyline
   id="svg_1592"
   points="412.95899963378906,213.13900756835938 411.9429931640625,214.15499877929688 " />
   <polyline
   id="svg_1593"
   points="467.8300018310547,214.15499877929688 468.8459930419922,213.13900756835938 " />
  </g>
  <g
   id="svg_1594"
   stroke-width="0"
   stroke="#000000"
   fill="#000000"
   clip-path="url(#clipId2)">
   <text
   x="0"
   y="0"
   id="svg_1595"
   font-size="1.39764px"
   font-family="'Arial Narrow', sans-serif"
   transform="matrix(3.0484,0,0,3.0484,437.018,211.417)">2,75</text>
  </g>
  <g
   id="svg_1596"
   stroke-width="0.25"
   stroke="#000000"
   fill="none"
   clip-path="url(#clipId2)">
   <polyline
   id="svg_1597"
   points="456.43299865722656,256.2439880371094 456.43299865722656,194.25999450683594 " />
   <polyline
   id="svg_1598"
   points="455.9250030517578,255.73599243164062 456.9409942626953,256.75299072265625 " />
   <polyline
   id="svg_1599"
   points="456.9409942626953,194.76800537109375 455.9250030517578,193.7519989013672 " />
  </g>
  <g
   id="svg_1600"
   stroke-width="0"
   stroke="#000000"
   fill="#000000"
   clip-path="url(#clipId2)">
   <text
   x="0"
   y="0"
   id="svg_1601"
   font-size="1.39764px"
   font-family="'Arial Narrow', sans-serif"
   transform="matrix(0,-3.0484,3.0484,0,454.204,228.65)">3,05</text>
  </g>
  <g
   id="svg_1602"
   stroke-width="0.25"
   stroke="#000000"
   fill="none"
   clip-path="url(#clipId2)">
   <polyline
   id="svg_1603"
   points="415.0399932861328,418.82598876953125 415.0399932861328,345.66400146484375 " />
   <polyline
   id="svg_1604"
   points="414.53199768066406,418.3179931640625 415.5480041503906,419.3340148925781 " />
   <polyline
   id="svg_1605"
   points="415.5480041503906,346.1719970703125 414.53199768066406,345.156005859375 " />
  </g>
  
  <g
   id="svg_1608"
   stroke-width="0.25"
   stroke="#000000"
   fill="none"
   clip-path="url(#clipId2)">
   <polyline
   id="svg_1609"
   points="359.8320007324219,418.82598876953125 359.8320007324219,333.47100830078125 " />
   <polyline
   id="svg_1610"
   points="359.3239974975586,418.3179931640625 360.3399963378906,419.3340148925781 " />
   <polyline
   id="svg_1611"
   points="360.3399963378906,333.97900390625 359.3239974975586,332.9630126953125 " />
  </g>
  <g
   id="svg_1612"
   stroke-width="0"
   stroke="#000000"
   fill="#000000"
   clip-path="url(#clipId2)">
   
  </g>
  <g
   id="svg_1614"
   stroke-width="0.25"
   stroke="#000000"
   fill="none"
   clip-path="url(#clipId2)">
   <polyline
   id="svg_1615"
   points="483.1820068359375,418.82598876953125 483.1820068359375,259.2929992675781 " />
   <polyline
   id="svg_1616"
   points="482.6739959716797,418.3179931640625 483.69000244140625,419.3340148925781 " />
   <polyline
   id="svg_1617"
   points="483.69000244140625,259.8009948730469 482.6739959716797,258.7850036621094 " />
  </g>
  <g
   id="svg_1618"
   stroke-width="0"
   stroke="#000000"
   fill="#000000"
   clip-path="url(#clipId2)">
   <text
   x="0"
   y="0"
   id="svg_1619"
   font-size="1.39764px"
   font-family="'Arial Narrow', sans-serif"
   transform="matrix(0,-3.0484,3.0484,0,480.952,342.466)">7,85</text>
  </g>
  <g
   id="svg_1620"
   stroke-width="0.25"
   stroke="#000000"
   fill="none"
   clip-path="url(#clipId2)">
   <polyline
   id="svg_1621"
   points="483.1820068359375,459.47100830078125 483.1820068359375,422.8900146484375 " />
   <polyline
   id="svg_1622"
   points="482.6739959716797,458.9630126953125 483.69000244140625,459.97900390625 " />
   <polyline
   id="svg_1623"
   points="483.69000244140625,423.39801025390625 482.6739959716797,422.3819885253906 " />
  </g>
  <g
   id="svg_1624"
   stroke-width="0"
   stroke="#000000"
   fill="#000000"
   clip-path="url(#clipId2)">
   <text
   x="0"
   y="0"
   id="svg_1625"
   font-size="1.39764px"
   font-family="'Arial Narrow', sans-serif"
   transform="matrix(0,-3.0484,3.0484,0,480.952,444.682)">1,80</text>
  </g>
  <g
   id="svg_1626"
   stroke-width="0.25"
   stroke="#000000"
   fill="none"
   clip-path="url(#clipId2)">
   <polyline
   id="svg_1627"
   points="427.28700256347656,452.801025390625 504.91900634765625,452.801025390625 " />
   <polyline
   id="svg_1628"
   points="427.7949981689453,452.2919921875 426.7790069580078,453.30902099609375 " />
   <polyline
   id="svg_1629"
   points="504.4110107421875,453.30902099609375 505.427001953125,452.2919921875 " />
  </g>
  <g
   id="svg_1630"
   stroke-width="0"
   stroke="#000000"
   fill="#000000"
   clip-path="url(#clipId2)">
   <text
   x="0"
   y="0"
   id="svg_1631"
   font-size="1.39764px"
   font-family="'Arial Narrow', sans-serif"
   transform="matrix(3.0484,0,0,3.0484,462.725,450.571)">3,82</text>
  </g>
  <g
   id="svg_1632"
   stroke-width="0.25"
   stroke="#000000"
   fill="none"
   clip-path="url(#clipId2)">
   <polyline
   id="svg_1633"
   points="287.4665985107422,452.801025390625 425.2539978027344,452.801025390625 " />
   <polyline
   id="svg_1634"
   points="287.9747009277344,452.2919921875 286.95849990844727,453.30902099609375 " />
   <polyline
   id="svg_1635"
   points="424.7460021972656,453.30902099609375 425.7619934082031,452.2919921875 " />
  </g>
  
  <g
   id="svg_1638"
   stroke-width="0.25"
   stroke="#000000"
   fill="none"
   clip-path="url(#clipId2)">
   <polyline
   id="svg_1639"
   points="284.4182014465332,474.81500244140625 291.53110122680664,474.81500244140625 " />
   <polyline
   id="svg_1640"
   points="284.9263000488281,474.3070068359375 283.910099029541,475.322998046875 " />
   <polyline
   id="svg_1641"
   points="291.0231018066406,475.322998046875 292.03919982910156,474.3070068359375 " />
  </g>
  
  <g
   id="svg_1644"
   stroke-width="0.25"
   stroke="#000000"
   fill="none"
   clip-path="url(#clipId2)">
   <polyline
   id="svg_1645"
   points="291.53110122680664,474.81500244140625 357.3769989013672,474.81500244140625 " />
   <polyline
   id="svg_1646"
   points="292.03919982910156,474.3070068359375 291.0231018066406,475.322998046875 " />
   <polyline
   id="svg_1647"
   points="356.86900329589844,475.322998046875 357.88500213623047,474.3070068359375 " />
  </g>
  
  <g
   id="svg_1650"
   stroke-width="0.25"
   stroke="#000000"
   fill="none"
   clip-path="url(#clipId2)">
   <polyline
   id="svg_1651"
   points="357.3769989013672,474.81500244140625 365.0989990234375,474.81500244140625 " />
  </g>
  
  <g
   id="svg_1654"
   stroke-width="0.25"
   stroke="#000000"
   fill="none"
   clip-path="url(#clipId2)">
   <polyline
   id="svg_1655"
   points="357.88500213623047,474.3070068359375 356.86900329589844,475.322998046875 " />
   <polyline
   id="svg_1656"
   points="364.59100341796875,475.322998046875 365.6070022583008,474.3070068359375 " />
   <polyline
   id="svg_1657"
   points="365.0989990234375,474.81500244140625 422.0030059814453,474.81500244140625 " />
   <polyline
   id="svg_1658"
   points="365.6070022583008,474.3070068359375 364.59100341796875,475.322998046875 " />
   <polyline
   id="svg_1659"
   points="421.4949951171875,475.322998046875 422.51100158691406,474.3070068359375 " />
  </g>
  
  <g
   id="svg_1662"
   stroke-width="0.25"
   stroke="#000000"
   fill="none"
   clip-path="url(#clipId2)">
   <polyline
   id="svg_1663"
   points="422.0030059814453,474.81500244140625 429.7250061035156,474.81500244140625 " />
  </g>
  
  <g
   id="svg_1666"
   stroke-width="0.25"
   stroke="#000000"
   fill="none"
   clip-path="url(#clipId2)">
   <polyline
   id="svg_1667"
   points="422.51100158691406,474.3070068359375 421.4949951171875,475.322998046875 " />
   <polyline
   id="svg_1668"
   points="429.2169952392578,475.322998046875 430.2330017089844,474.3070068359375 " />
   <polyline
   id="svg_1669"
   points="429.7250061035156,474.81500244140625 500.85499572753906,474.81500244140625 " />
   <polyline
   id="svg_1670"
   points="430.2330017089844,474.3070068359375 429.2169952392578,475.322998046875 " />
   <polyline
   id="svg_1671"
   points="500.3470001220703,475.322998046875 501.3630065917969,474.3070068359375 " />
  </g>
  
  <g
   id="svg_1674"
   stroke-width="0.25"
   stroke="#000000"
   fill="none"
   clip-path="url(#clipId2)">
   <polyline
   id="svg_1675"
   points="500.85499572753906,474.81500244140625 507.9679870605469,474.81500244140625 " />
  </g>
  
  
  <g
   id="svg_1684"
   stroke-width="0"
   stroke="#000000"
   fill="#000000"
   clip-path="url(#clipId2)">
   
  </g>
  
  
  <g
   id="svg_1692"
   stroke-width="0.25"
   stroke="#000000"
   fill="none"
   clip-path="url(#clipId2)">
   <polyline
   id="svg_1693"
   points="372.8219985961914,216.614990234375 399.2409973144531,216.614990234375 " />
   <polyline
   id="svg_1694"
   points="373.3300018310547,216.10699462890625 372.31400299072266,217.12298583984375 " />
   <polyline
   id="svg_1695"
   points="398.7330017089844,217.12298583984375 399.7489929199219,216.10699462890625 " />
  </g>
  <g
   id="svg_1696"
   stroke-width="0"
   stroke="#000000"
   fill="#000000"
   clip-path="url(#clipId2)">
   <text
   x="0"
   y="0"
   id="svg_1697"
   font-size="1.39764px"
   font-family="'Arial Narrow', sans-serif"
   transform="matrix(3.0484,0,0,3.0484,382.53,214.386)">1,30</text>
  </g>
  <g
   id="svg_1698"
   stroke-width="0.25"
   stroke="#000000"
   fill="none"
   clip-path="url(#clipId2)">
   <polyline
   id="svg_1699"
   points="411.9810028076172,330.4219970703125 411.9810028076172,259.2929992675781 " />
   <polyline
   id="svg_1700"
   points="411.47300720214844,329.91400146484375 412.48899841308594,330.92999267578125 " />
   <polyline
   id="svg_1701"
   points="412.48899841308594,259.8009948730469 411.47300720214844,258.7850036621094 " />
  </g>
  
  
  <g
   id="svg_1708"
   stroke-width="0"
   stroke="#000000"
   fill="#000000"
   clip-path="url(#clipId2)">
   
  </g>
  
  
  
  <g
   id="svg_1720"
   stroke-width="0"
   stroke="#000000"
   fill="#000000"
   clip-path="url(#clipId2)">
   <text
   x="0"
   y="0"
   id="svg_1721"
   font-size="1.39764px"
   font-family="'Arial Narrow', sans-serif"
   transform="matrix(3.0484,0,0,3.0484,312.034,264.176)">2,65</text>
  </g>
 </g>
</svg>
